<svg width="600" height="600" viewBox="0 0 600 600" fill="none" xmlns="http://www.w3.org/2000/svg">
<circle cx="300" cy="300" r="300" fill="#252525"/>
<path d="M342.504 102.855C374.771 111.389 401.438 126.189 424.771 148.589C461.571 183.922 479.971 223.655 481.838 271.789C483.038 302.855 479.571 324.189 469.438 348.855C463.971 362.055 454.104 379.789 452.238 379.789C451.571 379.789 449.171 376.455 447.038 372.322C444.771 368.189 438.371 359.789 432.771 353.789L422.371 342.989L426.904 330.989C433.838 312.322 435.971 300.322 435.971 279.789C435.971 258.722 433.304 245.789 425.171 226.722C413.304 199.389 391.571 174.722 367.038 161.255C343.038 148.055 326.771 143.789 299.704 143.789C280.504 143.789 267.438 145.789 253.571 151.122C203.038 170.055 169.571 213.655 163.571 267.789C161.171 289.522 165.704 316.189 175.571 339.655L179.571 348.989V382.989C179.571 408.722 179.171 417.122 177.971 417.122C175.571 417.122 162.238 402.855 153.038 390.589C118.638 344.189 108.371 285.922 124.371 229.789C134.104 195.922 145.704 176.189 169.438 152.455C191.971 130.055 209.838 118.855 239.571 108.589C264.371 99.9221 274.104 98.4554 303.571 98.9887C326.238 99.3887 331.171 99.9221 342.504 102.855ZM317.571 193.789C349.571 200.589 377.038 226.855 384.238 257.389C387.038 269.255 386.771 287.922 383.704 300.055C381.438 308.855 375.171 323.789 373.704 323.789C373.438 323.789 370.904 322.855 368.104 321.655C365.171 320.455 357.838 318.455 351.571 317.122L340.238 314.855L339.571 290.989L338.904 267.122L334.504 259.522C329.704 251.255 324.904 246.589 316.371 242.055C312.104 239.789 308.638 239.122 300.238 239.122C290.771 239.122 288.771 239.522 282.238 243.255C273.838 248.055 267.304 255.789 263.971 264.989C262.238 270.055 260.904 271.789 257.571 272.989C251.971 274.989 245.038 281.922 242.104 288.455C239.971 292.989 239.571 297.389 239.571 317.655V341.655L235.438 337.655C217.438 320.589 208.904 289.122 214.771 261.655C220.771 234.589 237.171 213.255 261.038 201.922C280.904 192.322 298.771 189.789 317.571 193.789ZM293.571 312.789C293.571 358.189 293.571 312.789 293.571 358.189C293.571 398.789 293.571 358.189 293.571 398.789C293.571 407.016 314.504 405.589 314.638 398.789C314.638 396.122 314.504 384.722 314.638 375.389L314.904 358.189C314.904 345.289 344.904 346.945 344.904 358.189C344.904 363.789 344.904 358.189 344.904 398.789C344.904 406.599 364.904 405.845 364.904 398.789C364.904 410.922 364.904 388.722 364.904 398.789C364.904 385.989 365.038 375.522 368.771 371.655C372.104 368.455 373.838 367.789 379.171 367.789C391.704 367.789 405.509 369.789 414.571 398.789C417.071 406.789 416.571 405.088 417.971 427.122C418.504 454.322 416.771 464.855 409.038 480.455C399.038 500.589 383.971 515.655 364.371 525.122C321.704 545.789 288.835 546.484 248.071 517.289C240.671 511.989 216.071 487.289 212.238 453.789C212.238 379.522 212.238 453.789 212.238 379.522C212.238 368.289 240.371 367.789 240.371 379.522C240.371 391.255 241.571 443.789 241.571 443.789C241.571 453.789 264.071 453.289 264.071 443.789C264.071 443.789 264.071 443.789 263.704 312.789C263.67 300.639 293.571 301.125 293.571 312.789Z" fill="#FF4F37"/>
</svg>
