<svg width="512" height="512" viewBox="0 0 512 512" fill="none" xmlns="http://www.w3.org/2000/svg">
<rect x="10" y="10" width="492" height="492" fill="#FF4F37" stroke="#252525" stroke-width="20"/>
<path d="M454.022 245.171H452.522C452.522 273.174 430.972 298.883 395.326 317.68C359.749 336.442 310.497 348.091 256.011 348.091C201.526 348.091 152.273 336.442 116.696 317.68C81.0502 298.883 59.5 273.174 59.5 245.171H58H56.5V291.58C56.5 321.247 79.276 347.748 115.296 366.743C151.385 385.774 201.138 397.5 256.011 397.5C310.884 397.5 360.637 385.774 396.726 366.743C432.746 347.748 455.522 321.247 455.522 291.58V245.171H454.022Z" fill="#252525" stroke="#252525" stroke-width="3"/>
<path d="M256.011 351.091C310.884 351.091 360.637 339.365 396.726 320.334C432.746 301.339 455.522 274.838 455.522 245.171C455.522 215.504 432.746 189.004 396.726 170.008C360.637 150.977 310.884 139.251 256.011 139.251C201.138 139.251 151.385 150.977 115.296 170.008C79.276 189.004 56.5 215.504 56.5 245.171C56.5 274.838 79.276 301.339 115.296 320.334C151.385 339.365 201.138 351.091 256.011 351.091Z" fill="white" stroke="#252525" stroke-width="3"/>
<path d="M358.931 174.785C358.931 190.235 347.791 204.529 329.111 215.044C310.479 225.534 284.637 232.069 256.011 232.069C227.385 232.069 201.544 225.534 182.911 215.044C164.232 204.529 153.091 190.235 153.091 174.785H151.591H150.091V244.398C150.091 261.413 162.326 276.512 181.439 287.272C200.599 298.058 226.967 304.682 256.011 304.682C285.055 304.682 311.423 298.058 330.583 287.272C349.696 276.512 361.931 261.413 361.931 244.398V174.785H360.431H358.931Z" fill="#252525" stroke="#252525" stroke-width="3"/>
<path d="M256.011 235.069C285.055 235.069 311.423 228.445 330.583 217.659C349.696 206.899 361.931 191.799 361.931 174.785C361.931 157.77 349.696 142.67 330.583 131.91C311.423 121.124 285.055 114.5 256.011 114.5C226.967 114.5 200.599 121.124 181.439 131.91C162.326 142.67 150.091 157.77 150.091 174.785C150.091 191.799 162.326 206.899 181.439 217.659C200.599 228.445 226.967 235.069 256.011 235.069Z" fill="white" stroke="#252525" stroke-width="3"/>
</svg>
