<svg width="518" height="365" viewBox="0 0 518 365" fill="none" xmlns="http://www.w3.org/2000/svg">
<path d="M515 167H513.5C513.5 203.447 485.459 236.801 439.32 261.133C393.249 285.428 329.499 300.5 259 300.5C188.501 300.5 124.751 285.428 78.6804 261.133C32.5409 236.801 4.5 203.447 4.5 167H3H1.5V227C1.5 265.112 30.7667 299.257 77.281 323.786C123.864 348.351 188.114 363.5 259 363.5C329.886 363.5 394.136 348.351 440.719 323.786C487.233 299.257 516.5 265.112 516.5 227V167H515Z" fill="#6D6D6D" stroke="#252525" stroke-width="3"/>
<path d="M259 303.5C329.886 303.5 394.136 288.351 440.719 263.786C487.233 239.257 516.5 205.112 516.5 167C516.5 128.888 487.233 94.7428 440.719 70.2138C394.136 45.6486 329.886 30.5 259 30.5C188.114 30.5 123.864 45.6486 77.281 70.2138C30.7667 94.7428 1.5 128.888 1.5 167C1.5 205.112 30.7667 239.257 77.281 263.786C123.864 288.351 188.114 303.5 259 303.5Z" fill="#D9D9D9" stroke="#252525" stroke-width="3"/>
<path d="M392.5 146C392.5 166.205 377.937 184.802 353.724 198.433C329.557 212.038 296.07 220.5 259 220.5C221.93 220.5 188.443 212.038 164.276 198.433C140.063 184.802 125.5 166.205 125.5 146H124H122.5V166C122.5 187.769 138.158 207.172 162.805 221.047C187.499 234.949 221.512 243.5 259 243.5C296.488 243.5 330.501 234.949 355.195 221.047C379.842 207.172 395.5 187.769 395.5 166V146H394H392.5Z" fill="#7C362C" stroke="#252525" stroke-width="3"/>
<path d="M259 223.5C296.488 223.5 330.501 214.949 355.195 201.047C379.842 187.172 395.5 167.769 395.5 146C395.5 124.231 379.842 104.828 355.195 90.9528C330.501 77.0511 296.488 68.5 259 68.5C221.512 68.5 187.499 77.0511 162.805 90.9528C138.158 104.828 122.5 124.231 122.5 146C122.5 167.769 138.158 187.172 162.805 201.047C187.499 214.949 221.512 223.5 259 223.5Z" fill="#FF4F37" stroke="#252525" stroke-width="3"/>
</svg>
