<svg width="518" height="368" viewBox="0 0 518 368" fill="none" xmlns="http://www.w3.org/2000/svg">
<path d="M515 170H513.5C513.5 206.447 485.459 239.801 439.32 264.133C393.249 288.428 329.499 303.5 259 303.5C188.501 303.5 124.751 288.428 78.6804 264.133C32.5409 239.801 4.5 206.447 4.5 170H3H1.5V230C1.5 268.112 30.7667 302.257 77.281 326.786C123.864 351.351 188.114 366.5 259 366.5C329.886 366.5 394.136 351.351 440.719 326.786C487.233 302.257 516.5 268.112 516.5 230V170H515Z" fill="#6D6D6D" stroke="#252525" stroke-width="3"/>
<path d="M259 306.5C329.886 306.5 394.136 291.351 440.719 266.786C487.233 242.257 516.5 208.112 516.5 170C516.5 131.888 487.233 97.7428 440.719 73.2138C394.136 48.6486 329.886 33.5 259 33.5C188.114 33.5 123.864 48.6486 77.281 73.2138C30.7667 97.7428 1.5 131.888 1.5 170C1.5 208.112 30.7667 242.257 77.281 266.786C123.864 291.351 188.114 306.5 259 306.5Z" fill="#D9D9D9" stroke="#252525" stroke-width="3"/>
<path d="M392.5 79C392.5 99.2049 377.937 117.802 353.724 131.433C329.557 145.038 296.07 153.5 259 153.5C221.93 153.5 188.443 145.038 164.276 131.433C140.063 117.802 125.5 99.2049 125.5 79H124H122.5V169C122.5 190.769 138.158 210.172 162.805 224.047C187.499 237.949 221.512 246.5 259 246.5C296.488 246.5 330.501 237.949 355.195 224.047C379.842 210.172 395.5 190.769 395.5 169V79H394H392.5Z" fill="#7C362C" stroke="#252525" stroke-width="3"/>
<path d="M259 156.5C296.488 156.5 330.501 147.949 355.195 134.047C379.842 120.172 395.5 100.769 395.5 79C395.5 57.2312 379.842 37.8281 355.195 23.9528C330.501 10.0511 296.488 1.5 259 1.5C221.512 1.5 187.499 10.0511 162.805 23.9528C138.158 37.8281 122.5 57.2312 122.5 79C122.5 100.769 138.158 120.172 162.805 134.047C187.499 147.949 221.512 156.5 259 156.5Z" fill="#FF4F37" stroke="#252525" stroke-width="3"/>
</svg>
