<svg width="512" height="512" viewBox="0 0 512 512" fill="none" xmlns="http://www.w3.org/2000/svg">
<rect x="10" y="10" width="492" height="492" fill="#F4D71B" stroke="#252525" stroke-width="20"/>
<path d="M274.378 66.6415C285.203 67.9405 301.332 71.7292 310.642 74.9767C321.9 78.9819 340.194 88.6161 350.91 96.1935C363.143 104.853 383.493 125.096 392.045 137.328C408.391 160.602 423.113 197.623 427.118 225.66C428.958 238.433 427.767 266.794 424.953 279.135C418.025 309.228 405.684 332.61 371.802 379.482C366.065 387.492 360.003 396.26 358.488 398.966C354.374 406.219 348.529 421.266 346.472 429.926C343.982 440.318 341.493 443.998 336.405 445.405C330.235 447.137 179.877 446.921 174.789 445.189C170.134 443.565 168.294 440.209 164.505 426.029C160.608 411.307 153.356 397.992 137.443 375.693C105.401 330.986 93.8188 308.795 86.9991 278.918C84.1846 266.794 83.1021 238.325 84.8341 225.66C88.8393 197.623 103.561 160.602 119.907 137.328C128.567 125.096 148.809 104.853 161.258 95.9771C180.31 82.5542 205.099 72.1622 227.831 68.157C239.306 66.1003 263.553 65.3425 274.378 66.6415Z" fill="#252525"/>
<path d="M175.122 202.573C151.739 206.259 133.481 223.595 129.334 245.884L128.413 250.952H120.925C114.936 250.952 113.035 251.183 111.422 251.989C107.621 253.89 107.621 258.382 111.422 260.283C113.035 261.089 114.936 261.32 120.925 261.32H128.413L129.334 266.388C133.078 286.431 148.629 303.018 168.96 308.432C173.625 309.642 175.756 309.872 182.552 309.872C189.406 309.872 191.479 309.642 196.202 308.375C217.224 302.788 233.178 284.53 235.712 263.047L236.288 258.152L240.665 254.005C250.456 244.732 258.865 243.984 268.829 251.528C274.301 255.675 275.568 257.576 276.201 262.471C277.008 269.152 278.332 273.357 281.615 280.038C287.202 291.269 294.632 298.699 305.805 304.228C314.502 308.547 320.319 309.93 329.995 309.93C339.383 309.93 345.488 308.547 353.666 304.516C370.83 296.165 381.715 280.096 383.616 260.283L384.019 256.136H392.025H400.088L401.758 254.466C402.737 253.429 403.428 252.162 403.428 251.24C403.428 250.319 402.737 249.052 401.758 248.015L400.088 246.345H391.449H382.867L381.946 242.659C375.898 218.066 352.399 200.672 327.403 202.17C310.528 203.206 294.516 212.076 285.244 225.496C282.767 229.066 279.311 236.266 278.102 240.297C277.526 242.198 276.892 243.926 276.72 244.214C276.489 244.444 274.646 243.523 272.515 242.083C261.169 234.48 249.765 234.884 238.016 243.177L235.366 245.135L233.811 240.125C228.167 221.982 213.884 208.275 195.799 203.725C190.442 202.4 180.075 201.824 175.122 202.573Z" fill="white"/>
<path d="M343.732 345.854C350.241 347.376 354.362 353.93 351.964 360.169C347.965 370.574 342.014 380.161 334.396 388.398C324.028 399.607 310.925 407.931 296.372 412.553C281.819 417.175 266.315 417.938 251.379 414.765C240.404 412.434 230.012 408.037 220.742 401.846C215.183 398.134 214.767 390.403 219.205 385.405V385.405C223.644 380.407 231.253 380.071 236.997 383.489C242.985 387.053 249.539 389.627 256.408 391.086C267.242 393.387 278.488 392.835 289.044 389.482C299.6 386.129 309.104 380.092 316.625 371.961C321.394 366.806 325.261 360.921 328.095 354.555C330.815 348.449 337.223 344.333 343.732 345.854V345.854Z" fill="white"/>
</svg>
