<svg width="512" height="512" viewBox="0 0 512 512" fill="none" xmlns="http://www.w3.org/2000/svg">
<rect x="10" y="10" width="492" height="492" rx="90" fill="#F2B5FC" stroke="#252525" stroke-width="20"/>
<path d="M138.827 251.147C131.535 252.063 125.431 255.063 120.265 260.284C115.624 264.956 112.835 269.903 111.235 276.338C108.401 287.49 110.458 298.482 117.27 308.81C121.637 315.428 127.283 321.497 137.639 330.749C144.222 336.634 164.317 353.809 165.3 354.382C166.214 354.931 166.557 355 168.5 355C170.443 355 170.786 354.931 171.7 354.382C172.683 353.809 192.823 336.611 199.361 330.749C209.763 321.451 215.363 315.405 219.73 308.81C226.542 298.482 228.599 287.49 225.765 276.338C224.165 269.903 221.376 264.956 216.735 260.284C212.117 255.636 207.179 252.956 200.71 251.582C197.464 250.895 191.474 250.827 188.64 251.468C180.73 253.185 174.672 257.147 169.14 264.2L168.5 265.002L167.883 264.2C162.419 257.285 156.453 253.323 148.84 251.582C146.577 251.056 141.365 250.827 138.827 251.147Z" fill="white"/>
<rect x="123.173" y="400.314" width="427.537" height="63.9196" rx="3.96636" transform="rotate(-45 123.173 400.314)" fill="#252525"/>
<rect x="86.1978" y="272.765" width="180.504" height="63.9196" rx="3.96636" transform="rotate(45 86.1978 272.765)" fill="#252525"/>
</svg>
