<svg width="512" height="512" viewBox="0 0 512 512" fill="none" xmlns="http://www.w3.org/2000/svg">
<g clip-path="url(#clip0_268_10)">
<rect width="512" height="512" fill="#252525"/>
<path d="M256 512C256 478.382 249.378 445.092 236.513 414.033C223.648 382.974 204.791 354.752 181.019 330.981C157.248 307.209 129.026 288.352 97.967 275.487C66.9076 262.622 33.6184 256 -1.11901e-05 256L0 512H256Z" fill="#B3E301"/>
<path d="M-1.11901e-05 256C33.6184 256 66.9076 249.378 97.967 236.513C129.026 223.648 157.248 204.791 181.019 181.019C204.791 157.248 223.648 129.026 236.513 97.9669C249.378 66.9076 256 33.6184 256 -3.05176e-05L0 0L-1.11901e-05 256Z" fill="#FF4F37"/>
<path d="M256 -2.23802e-05C256 33.6184 262.622 66.9076 275.487 97.9669C288.352 129.026 307.209 157.248 330.981 181.019C354.752 204.791 382.974 223.648 414.033 236.513C445.092 249.378 478.382 256 512 256L512 0L256 -2.23802e-05Z" fill="#26B8B5"/>
<path d="M512 256C478.382 256 445.092 262.622 414.033 275.487C382.974 288.352 354.752 307.209 330.981 330.981C307.209 354.752 288.352 382.974 275.487 414.033C262.622 445.092 256 478.382 256 512L512 512L512 256Z" fill="#FF62A5"/>
</g>
<defs>
<clipPath id="clip0_268_10">
<rect width="512" height="512" fill="white"/>
</clipPath>
</defs>
</svg>
