<svg width="512" height="512" viewBox="0 0 512 512" fill="none" xmlns="http://www.w3.org/2000/svg">
<rect x="10" y="10" width="492" height="492" fill="#FEF14B" stroke="#252525" stroke-width="20"/>
<rect x="240.54" y="41.1387" width="241.704" height="356.801" rx="17.2646" transform="rotate(30 240.54 41.1387)" fill="#252525" stroke="#252525" stroke-width="11.5097"/>
<rect x="203.454" y="47.0886" width="241.704" height="356.801" rx="17.2646" transform="rotate(20 203.454 47.0886)" fill="#252525" stroke="#252525" stroke-width="11.5097"/>
<rect x="167.42" y="59.4872" width="241.704" height="356.801" rx="17.2646" transform="rotate(10 167.42 59.4872)" fill="#FEF14B" stroke="#252525" stroke-width="11.5097"/>
<path d="M166.267 380.712L144.111 349.07L175.753 326.913L179.562 332.352L153.297 350.689L171.695 376.964L166.267 380.712ZM157.159 362.143L151.719 354.373L205.218 363.807L204.054 370.412L157.159 362.143ZM153.074 346.688L160.844 341.248L207.738 349.516L206.573 356.121L153.074 346.688Z" fill="#252525"/>
<path d="M332.587 191.397L328.768 186.019L355.043 167.621L336.635 141.406L342.073 137.598L364.23 169.241L332.587 191.397ZM300.602 168.794L301.767 162.189L355.266 171.623L347.497 177.063L300.602 168.794ZM303.122 154.504L304.287 147.899L351.181 156.168L356.621 163.937L303.122 154.504Z" fill="#252525"/>
</svg>
