<svg width="512" height="512" viewBox="0 0 512 512" fill="none" xmlns="http://www.w3.org/2000/svg">
<rect width="512" height="512" fill="#8704BF"/>
<rect x="189.625" y="189" width="21.875" height="21.875" fill="white"/>
<rect x="211.5" y="189" width="21.875" height="21.875" fill="white"/>
<rect x="233.375" y="189" width="21.875" height="21.875" fill="white"/>
<rect x="255.25" y="189" width="21.875" height="21.875" fill="white"/>
<rect x="342.75" y="189" width="21.875" height="21.875" fill="white"/>
<rect x="364.625" y="189" width="21.875" height="21.875" fill="white"/>
<rect x="386.5" y="189" width="21.875" height="21.875" fill="white"/>
<rect x="408.375" y="189" width="21.875" height="21.875" fill="white"/>
<rect x="145.875" y="210.875" width="21.875" height="21.875" fill="white"/>
<rect x="167.75" y="210.875" width="21.875" height="21.875" fill="white"/>
<rect x="189.625" y="210.875" width="21.875" height="21.875" fill="white"/>
<rect x="255.25" y="210.875" width="21.875" height="21.875" fill="white"/>
<rect x="277.125" y="210.875" width="21.875" height="21.875" fill="white"/>
<rect x="299" y="210.875" width="21.875" height="21.875" fill="white"/>
<rect x="320.875" y="210.875" width="21.875" height="21.875" fill="white"/>
<rect x="342.75" y="210.875" width="21.875" height="21.875" fill="white"/>
<rect x="408.375" y="210.875" width="21.875" height="21.875" fill="white"/>
<rect x="430.25" y="210.875" width="21.875" height="21.875" fill="white"/>
<rect x="452.125" y="210.875" width="21.875" height="21.875" fill="white"/>
<rect x="145.875" y="232.75" width="21.875" height="21.875" fill="white"/>
<rect x="277.125" y="232.75" width="21.875" height="21.875" fill="white"/>
<rect x="299" y="232.75" width="21.875" height="21.875" fill="white"/>
<rect x="320.875" y="232.75" width="21.875" height="21.875" fill="white"/>
<rect x="430.25" y="232.75" width="21.875" height="21.875" fill="white"/>
<rect x="452.125" y="232.75" width="21.875" height="21.875" fill="white"/>
<rect x="145.875" y="254.625" width="21.875" height="21.875" fill="white"/>
<rect x="452.125" y="254.625" width="21.875" height="21.875" fill="white"/>
<rect x="124" y="276.5" width="21.875" height="21.875" fill="white"/>
<rect x="145.875" y="276.5" width="21.875" height="21.875" fill="white"/>
<rect x="452.125" y="276.5" width="21.875" height="21.875" fill="white"/>
<rect x="145.875" y="298.375" width="21.875" height="21.875" fill="white"/>
<rect x="452.125" y="298.375" width="21.875" height="21.875" fill="white"/>
<rect x="145.875" y="320.25" width="21.875" height="21.875" fill="white"/>
<rect x="167.75" y="320.25" width="21.875" height="21.875" fill="white"/>
<rect x="430.25" y="320.25" width="21.875" height="21.875" fill="white"/>
<rect x="452.125" y="320.25" width="21.875" height="21.875" fill="white"/>
<rect x="167.75" y="342.125" width="21.875" height="21.875" fill="white"/>
<rect x="189.625" y="342.125" width="21.875" height="21.875" fill="white"/>
<rect x="408.375" y="342.125" width="21.875" height="21.875" fill="white"/>
<rect x="430.25" y="342.125" width="21.875" height="21.875" fill="white"/>
<rect x="189.625" y="364" width="21.875" height="21.875" fill="white"/>
<rect x="211.5" y="364" width="21.875" height="21.875" fill="white"/>
<rect x="386.5" y="364" width="21.875" height="21.875" fill="white"/>
<rect x="408.375" y="364" width="21.875" height="21.875" fill="white"/>
<rect x="211.5" y="385.875" width="21.875" height="21.875" fill="white"/>
<rect x="233.375" y="385.875" width="21.875" height="21.875" fill="white"/>
<rect x="364.625" y="385.875" width="21.875" height="21.875" fill="white"/>
<rect x="386.5" y="385.875" width="21.875" height="21.875" fill="white"/>
<rect x="233.375" y="407.75" width="21.875" height="21.875" fill="white"/>
<rect x="255.25" y="407.75" width="21.875" height="21.875" fill="white"/>
<rect x="342.75" y="407.75" width="21.875" height="21.875" fill="white"/>
<rect x="364.625" y="407.75" width="21.875" height="21.875" fill="white"/>
<rect x="255.25" y="429.625" width="21.875" height="21.875" fill="white"/>
<rect x="277.125" y="429.625" width="21.875" height="21.875" fill="white"/>
<rect x="299" y="429.625" width="21.875" height="21.875" fill="white"/>
<rect x="320.875" y="429.625" width="21.875" height="21.875" fill="white"/>
<rect x="342.75" y="429.625" width="21.875" height="21.875" fill="white"/>
<rect x="277.125" y="451.5" width="21.875" height="21.875" fill="white"/>
<rect x="299" y="451.5" width="21.875" height="21.875" fill="white"/>
<rect x="320.875" y="451.5" width="21.875" height="21.875" fill="white"/>
</svg>
