<svg width="19" height="20" viewBox="0 0 19 20" fill="none" xmlns="http://www.w3.org/2000/svg">
<rect x="6.25" width="0.625" height="0.625" fill="#00B94B"/>
<rect x="6.875" width="0.625" height="0.625" fill="#00B94B"/>
<rect x="7.5" width="0.625" height="0.625" fill="#00B94B"/>
<rect x="8.125" width="0.625" height="0.625" fill="#00B94B"/>
<rect x="8.75" width="0.625" height="0.625" fill="#00B94B"/>
<rect x="9.375" width="0.625" height="0.625" fill="#00B94B"/>
<rect x="10" width="0.625" height="0.625" fill="#00B94B"/>
<rect x="10.625" width="0.625" height="0.625" fill="#00B94B"/>
<rect x="11.25" width="0.625" height="0.625" fill="#00B94B"/>
<rect x="5.625" y="0.625" width="0.625" height="0.625" fill="#00B94B"/>
<rect x="6.25" y="0.625" width="0.625" height="0.625" fill="#00B94B"/>
<rect x="6.875" y="0.625" width="0.625" height="0.625" fill="#00B94B"/>
<rect x="7.5" y="0.625" width="0.625" height="0.625" fill="#00B94B"/>
<rect x="8.125" y="0.625" width="0.625" height="0.625" fill="#00B94B"/>
<rect x="8.75" y="0.625" width="0.625" height="0.625" fill="#00B94B"/>
<rect x="9.375" y="0.625" width="0.625" height="0.625" fill="#00B94B"/>
<rect x="10" y="0.625" width="0.625" height="0.625" fill="#00B94B"/>
<rect x="10.625" y="0.625" width="0.625" height="0.625" fill="#00B94B"/>
<rect x="11.25" y="0.625" width="0.625" height="0.625" fill="#00B94B"/>
<rect x="11.875" y="0.625" width="0.625" height="0.625" fill="#00B94B"/>
<rect x="5" y="1.25" width="0.625" height="0.625" fill="#00B94B"/>
<rect x="5.625" y="1.25" width="0.625" height="0.625" fill="#00B94B"/>
<rect x="11.875" y="1.25" width="0.625" height="0.625" fill="#00B94B"/>
<rect x="12.5" y="1.25" width="0.625" height="0.625" fill="#00B94B"/>
<rect x="5" y="1.875" width="0.625" height="0.625" fill="#00B94B"/>
<rect x="5.625" y="1.875" width="0.625" height="0.625" fill="#00B94B"/>
<rect x="11.875" y="1.875" width="0.625" height="0.625" fill="#00B94B"/>
<rect x="12.5" y="1.875" width="0.625" height="0.625" fill="#00B94B"/>
<rect x="1.25" y="2.5" width="0.625" height="0.625" fill="#00B94B"/>
<rect x="1.875" y="2.5" width="0.625" height="0.625" fill="#00B94B"/>
<rect x="2.5" y="2.5" width="0.625" height="0.625" fill="#00B94B"/>
<rect x="3.125" y="2.5" width="0.625" height="0.625" fill="#00B94B"/>
<rect x="3.75" y="2.5" width="0.625" height="0.625" fill="#00B94B"/>
<rect x="4.375" y="2.5" width="0.625" height="0.625" fill="#00B94B"/>
<rect x="5" y="2.5" width="0.625" height="0.625" fill="#00B94B"/>
<rect x="5.625" y="2.5" width="0.625" height="0.625" fill="#00B94B"/>
<rect x="6.25" y="2.5" width="0.625" height="0.625" fill="#00B94B"/>
<rect x="6.875" y="2.5" width="0.625" height="0.625" fill="#00B94B"/>
<rect x="7.5" y="2.5" width="0.625" height="0.625" fill="#00B94B"/>
<rect x="8.125" y="2.5" width="0.625" height="0.625" fill="#00B94B"/>
<rect x="8.75" y="2.5" width="0.625" height="0.625" fill="#00B94B"/>
<rect x="9.375" y="2.5" width="0.625" height="0.625" fill="#00B94B"/>
<rect x="10" y="2.5" width="0.625" height="0.625" fill="#00B94B"/>
<rect x="10.625" y="2.5" width="0.625" height="0.625" fill="#00B94B"/>
<rect x="11.25" y="2.5" width="0.625" height="0.625" fill="#00B94B"/>
<rect x="11.875" y="2.5" width="0.625" height="0.625" fill="#00B94B"/>
<rect x="12.5" y="2.5" width="0.625" height="0.625" fill="#00B94B"/>
<rect x="13.125" y="2.5" width="0.625" height="0.625" fill="#00B94B"/>
<rect x="13.75" y="2.5" width="0.625" height="0.625" fill="#00B94B"/>
<rect x="14.375" y="2.5" width="0.625" height="0.625" fill="#00B94B"/>
<rect x="15" y="2.5" width="0.625" height="0.625" fill="#00B94B"/>
<rect x="15.625" y="2.5" width="0.625" height="0.625" fill="#00B94B"/>
<rect x="16.25" y="2.5" width="0.625" height="0.625" fill="#00B94B"/>
<rect x="0.625" y="3.125" width="0.625" height="0.625" fill="#00B94B"/>
<rect x="1.25" y="3.125" width="0.625" height="0.625" fill="#00B94B"/>
<rect x="1.875" y="3.125" width="0.625" height="0.625" fill="#00B94B"/>
<rect x="2.5" y="3.125" width="0.625" height="0.625" fill="#00B94B"/>
<rect x="3.125" y="3.125" width="0.625" height="0.625" fill="#00B94B"/>
<rect x="3.75" y="3.125" width="0.625" height="0.625" fill="#00B94B"/>
<rect x="4.375" y="3.125" width="0.625" height="0.625" fill="#00B94B"/>
<rect x="5" y="3.125" width="0.625" height="0.625" fill="#00B94B"/>
<rect x="5.625" y="3.125" width="0.625" height="0.625" fill="#00B94B"/>
<rect x="6.25" y="3.125" width="0.625" height="0.625" fill="#00B94B"/>
<rect x="6.875" y="3.125" width="0.625" height="0.625" fill="#00B94B"/>
<rect x="7.5" y="3.125" width="0.625" height="0.625" fill="#00B94B"/>
<rect x="8.125" y="3.125" width="0.625" height="0.625" fill="#00B94B"/>
<rect x="8.75" y="3.125" width="0.625" height="0.625" fill="#00B94B"/>
<rect x="9.375" y="3.125" width="0.625" height="0.625" fill="#00B94B"/>
<rect x="10" y="3.125" width="0.625" height="0.625" fill="#00B94B"/>
<rect x="10.625" y="3.125" width="0.625" height="0.625" fill="#00B94B"/>
<rect x="11.25" y="3.125" width="0.625" height="0.625" fill="#00B94B"/>
<rect x="11.875" y="3.125" width="0.625" height="0.625" fill="#00B94B"/>
<rect x="12.5" y="3.125" width="0.625" height="0.625" fill="#00B94B"/>
<rect x="13.125" y="3.125" width="0.625" height="0.625" fill="#00B94B"/>
<rect x="13.75" y="3.125" width="0.625" height="0.625" fill="#00B94B"/>
<rect x="14.375" y="3.125" width="0.625" height="0.625" fill="#00B94B"/>
<rect x="15" y="3.125" width="0.625" height="0.625" fill="#00B94B"/>
<rect x="15.625" y="3.125" width="0.625" height="0.625" fill="#00B94B"/>
<rect x="16.25" y="3.125" width="0.625" height="0.625" fill="#00B94B"/>
<rect x="16.875" y="3.125" width="0.625" height="0.625" fill="#00B94B"/>
<rect y="3.75" width="0.625" height="0.625" fill="#00B94B"/>
<rect x="0.625" y="3.75" width="0.625" height="0.625" fill="#00B94B"/>
<rect x="1.25" y="3.75" width="0.625" height="0.625" fill="#00B94B"/>
<rect x="16.25" y="3.75" width="0.625" height="0.625" fill="#00B94B"/>
<rect x="16.875" y="3.75" width="0.625" height="0.625" fill="#00B94B"/>
<rect x="17.5" y="3.75" width="0.625" height="0.625" fill="#00B94B"/>
<rect y="4.375" width="0.625" height="0.625" fill="#00B94B"/>
<rect x="0.625" y="4.375" width="0.625" height="0.625" fill="#00B94B"/>
<rect x="16.25" y="4.375" width="0.625" height="0.625" fill="#00B94B"/>
<rect x="16.875" y="4.375" width="0.625" height="0.625" fill="#00B94B"/>
<rect x="17.5" y="4.375" width="0.625" height="0.625" fill="#00B94B"/>
<rect x="0.625" y="5" width="0.625" height="0.625" fill="#00B94B"/>
<rect x="1.25" y="5" width="0.625" height="0.625" fill="#00B94B"/>
<rect x="1.875" y="5" width="0.625" height="0.625" fill="#00B94B"/>
<rect x="2.5" y="5" width="0.625" height="0.625" fill="#00B94B"/>
<rect x="3.125" y="5" width="0.625" height="0.625" fill="#00B94B"/>
<rect x="3.75" y="5" width="0.625" height="0.625" fill="#00B94B"/>
<rect x="4.375" y="5" width="0.625" height="0.625" fill="#00B94B"/>
<rect x="5" y="5" width="0.625" height="0.625" fill="#00B94B"/>
<rect x="5.625" y="5" width="0.625" height="0.625" fill="#00B94B"/>
<rect x="6.25" y="5" width="0.625" height="0.625" fill="#00B94B"/>
<rect x="6.875" y="5" width="0.625" height="0.625" fill="#00B94B"/>
<rect x="7.5" y="5" width="0.625" height="0.625" fill="#00B94B"/>
<rect x="8.125" y="5" width="0.625" height="0.625" fill="#00B94B"/>
<rect x="8.75" y="5" width="0.625" height="0.625" fill="#00B94B"/>
<rect x="9.375" y="5" width="0.625" height="0.625" fill="#00B94B"/>
<rect x="10" y="5" width="0.625" height="0.625" fill="#00B94B"/>
<rect x="10.625" y="5" width="0.625" height="0.625" fill="#00B94B"/>
<rect x="11.25" y="5" width="0.625" height="0.625" fill="#00B94B"/>
<rect x="11.875" y="5" width="0.625" height="0.625" fill="#00B94B"/>
<rect x="12.5" y="5" width="0.625" height="0.625" fill="#00B94B"/>
<rect x="13.125" y="5" width="0.625" height="0.625" fill="#00B94B"/>
<rect x="13.75" y="5" width="0.625" height="0.625" fill="#00B94B"/>
<rect x="14.375" y="5" width="0.625" height="0.625" fill="#00B94B"/>
<rect x="15" y="5" width="0.625" height="0.625" fill="#00B94B"/>
<rect x="15.625" y="5" width="0.625" height="0.625" fill="#00B94B"/>
<rect x="16.25" y="5" width="0.625" height="0.625" fill="#00B94B"/>
<rect x="16.875" y="5" width="0.625" height="0.625" fill="#00B94B"/>
<rect x="1.25" y="5.625" width="0.625" height="0.625" fill="#00B94B"/>
<rect x="1.875" y="5.625" width="0.625" height="0.625" fill="#00B94B"/>
<rect x="2.5" y="5.625" width="0.625" height="0.625" fill="#00B94B"/>
<rect x="3.125" y="5.625" width="0.625" height="0.625" fill="#00B94B"/>
<rect x="3.75" y="5.625" width="0.625" height="0.625" fill="#00B94B"/>
<rect x="4.375" y="5.625" width="0.625" height="0.625" fill="#00B94B"/>
<rect x="5" y="5.625" width="0.625" height="0.625" fill="#00B94B"/>
<rect x="5.625" y="5.625" width="0.625" height="0.625" fill="#00B94B"/>
<rect x="6.25" y="5.625" width="0.625" height="0.625" fill="#00B94B"/>
<rect x="6.875" y="5.625" width="0.625" height="0.625" fill="#00B94B"/>
<rect x="7.5" y="5.625" width="0.625" height="0.625" fill="#00B94B"/>
<rect x="8.125" y="5.625" width="0.625" height="0.625" fill="#00B94B"/>
<rect x="8.75" y="5.625" width="0.625" height="0.625" fill="#00B94B"/>
<rect x="9.375" y="5.625" width="0.625" height="0.625" fill="#00B94B"/>
<rect x="10" y="5.625" width="0.625" height="0.625" fill="#00B94B"/>
<rect x="10.625" y="5.625" width="0.625" height="0.625" fill="#00B94B"/>
<rect x="11.25" y="5.625" width="0.625" height="0.625" fill="#00B94B"/>
<rect x="11.875" y="5.625" width="0.625" height="0.625" fill="#00B94B"/>
<rect x="12.5" y="5.625" width="0.625" height="0.625" fill="#00B94B"/>
<rect x="13.125" y="5.625" width="0.625" height="0.625" fill="#00B94B"/>
<rect x="13.75" y="5.625" width="0.625" height="0.625" fill="#00B94B"/>
<rect x="14.375" y="5.625" width="0.625" height="0.625" fill="#00B94B"/>
<rect x="15" y="5.625" width="0.625" height="0.625" fill="#00B94B"/>
<rect x="15.625" y="5.625" width="0.625" height="0.625" fill="#00B94B"/>
<rect x="16.25" y="5.625" width="0.625" height="0.625" fill="#00B94B"/>
<rect x="1.25" y="6.25" width="0.625" height="0.625" fill="#00B94B"/>
<rect x="1.875" y="6.25" width="0.625" height="0.625" fill="#00B94B"/>
<rect x="15.625" y="6.25" width="0.625" height="0.625" fill="#00B94B"/>
<rect x="16.25" y="6.25" width="0.625" height="0.625" fill="#00B94B"/>
<rect x="1.25" y="6.875" width="0.625" height="0.625" fill="#00B94B"/>
<rect x="1.875" y="6.875" width="0.625" height="0.625" fill="#00B94B"/>
<rect x="15.625" y="6.875" width="0.625" height="0.625" fill="#00B94B"/>
<rect x="1.875" y="7.5" width="0.625" height="0.625" fill="#00B94B"/>
<rect x="5" y="7.5" width="0.625" height="0.625" fill="#00B94B"/>
<rect x="5.625" y="7.5" width="0.625" height="0.625" fill="#00B94B"/>
<rect x="8.75" y="7.5" width="0.625" height="0.625" fill="#00B94B"/>
<rect x="11.875" y="7.5" width="0.625" height="0.625" fill="#00B94B"/>
<rect x="12.5" y="7.5" width="0.625" height="0.625" fill="#00B94B"/>
<rect x="15" y="7.5" width="0.625" height="0.625" fill="#00B94B"/>
<rect x="15.625" y="7.5" width="0.625" height="0.625" fill="#00B94B"/>
<rect x="1.875" y="8.125" width="0.625" height="0.625" fill="#00B94B"/>
<rect x="2.5" y="8.125" width="0.625" height="0.625" fill="#00B94B"/>
<rect x="5" y="8.125" width="0.625" height="0.625" fill="#00B94B"/>
<rect x="5.625" y="8.125" width="0.625" height="0.625" fill="#00B94B"/>
<rect x="8.75" y="8.125" width="0.625" height="0.625" fill="#00B94B"/>
<rect x="11.875" y="8.125" width="0.625" height="0.625" fill="#00B94B"/>
<rect x="12.5" y="8.125" width="0.625" height="0.625" fill="#00B94B"/>
<rect x="15" y="8.125" width="0.625" height="0.625" fill="#00B94B"/>
<rect x="15.625" y="8.125" width="0.625" height="0.625" fill="#00B94B"/>
<rect x="1.875" y="8.75" width="0.625" height="0.625" fill="#00B94B"/>
<rect x="2.5" y="8.75" width="0.625" height="0.625" fill="#00B94B"/>
<rect x="5" y="8.75" width="0.625" height="0.625" fill="#00B94B"/>
<rect x="5.625" y="8.75" width="0.625" height="0.625" fill="#00B94B"/>
<rect x="8.75" y="8.75" width="0.625" height="0.625" fill="#00B94B"/>
<rect x="11.875" y="8.75" width="0.625" height="0.625" fill="#00B94B"/>
<rect x="12.5" y="8.75" width="0.625" height="0.625" fill="#00B94B"/>
<rect x="15" y="8.75" width="0.625" height="0.625" fill="#00B94B"/>
<rect x="15.625" y="8.75" width="0.625" height="0.625" fill="#00B94B"/>
<rect x="1.875" y="9.375" width="0.625" height="0.625" fill="#00B94B"/>
<rect x="2.5" y="9.375" width="0.625" height="0.625" fill="#00B94B"/>
<rect x="5" y="9.375" width="0.625" height="0.625" fill="#00B94B"/>
<rect x="5.625" y="9.375" width="0.625" height="0.625" fill="#00B94B"/>
<rect x="8.75" y="9.375" width="0.625" height="0.625" fill="#00B94B"/>
<rect x="11.875" y="9.375" width="0.625" height="0.625" fill="#00B94B"/>
<rect x="12.5" y="9.375" width="0.625" height="0.625" fill="#00B94B"/>
<rect x="15" y="9.375" width="0.625" height="0.625" fill="#00B94B"/>
<rect x="15.625" y="9.375" width="0.625" height="0.625" fill="#00B94B"/>
<rect x="1.875" y="10" width="0.625" height="0.625" fill="#00B94B"/>
<rect x="2.5" y="10" width="0.625" height="0.625" fill="#00B94B"/>
<rect x="5" y="10" width="0.625" height="0.625" fill="#00B94B"/>
<rect x="5.625" y="10" width="0.625" height="0.625" fill="#00B94B"/>
<rect x="8.75" y="10" width="0.625" height="0.625" fill="#00B94B"/>
<rect x="11.875" y="10" width="0.625" height="0.625" fill="#00B94B"/>
<rect x="12.5" y="10" width="0.625" height="0.625" fill="#00B94B"/>
<rect x="15" y="10" width="0.625" height="0.625" fill="#00B94B"/>
<rect x="15.625" y="10" width="0.625" height="0.625" fill="#00B94B"/>
<rect x="1.875" y="10.625" width="0.625" height="0.625" fill="#00B94B"/>
<rect x="2.5" y="10.625" width="0.625" height="0.625" fill="#00B94B"/>
<rect x="5" y="10.625" width="0.625" height="0.625" fill="#00B94B"/>
<rect x="5.625" y="10.625" width="0.625" height="0.625" fill="#00B94B"/>
<rect x="8.75" y="10.625" width="0.625" height="0.625" fill="#00B94B"/>
<rect x="11.875" y="10.625" width="0.625" height="0.625" fill="#00B94B"/>
<rect x="12.5" y="10.625" width="0.625" height="0.625" fill="#00B94B"/>
<rect x="15" y="10.625" width="0.625" height="0.625" fill="#00B94B"/>
<rect x="15.625" y="10.625" width="0.625" height="0.625" fill="#00B94B"/>
<rect x="1.875" y="11.25" width="0.625" height="0.625" fill="#00B94B"/>
<rect x="2.5" y="11.25" width="0.625" height="0.625" fill="#00B94B"/>
<rect x="5" y="11.25" width="0.625" height="0.625" fill="#00B94B"/>
<rect x="5.625" y="11.25" width="0.625" height="0.625" fill="#00B94B"/>
<rect x="8.75" y="11.25" width="0.625" height="0.625" fill="#00B94B"/>
<rect x="11.875" y="11.25" width="0.625" height="0.625" fill="#00B94B"/>
<rect x="12.5" y="11.25" width="0.625" height="0.625" fill="#00B94B"/>
<rect x="15" y="11.25" width="0.625" height="0.625" fill="#00B94B"/>
<rect x="15.625" y="11.25" width="0.625" height="0.625" fill="#00B94B"/>
<rect x="1.875" y="11.875" width="0.625" height="0.625" fill="#00B94B"/>
<rect x="2.5" y="11.875" width="0.625" height="0.625" fill="#00B94B"/>
<rect x="5" y="11.875" width="0.625" height="0.625" fill="#00B94B"/>
<rect x="5.625" y="11.875" width="0.625" height="0.625" fill="#00B94B"/>
<rect x="8.75" y="11.875" width="0.625" height="0.625" fill="#00B94B"/>
<rect x="11.875" y="11.875" width="0.625" height="0.625" fill="#00B94B"/>
<rect x="12.5" y="11.875" width="0.625" height="0.625" fill="#00B94B"/>
<rect x="15" y="11.875" width="0.625" height="0.625" fill="#00B94B"/>
<rect x="15.625" y="11.875" width="0.625" height="0.625" fill="#00B94B"/>
<rect x="1.875" y="12.5" width="0.625" height="0.625" fill="#00B94B"/>
<rect x="2.5" y="12.5" width="0.625" height="0.625" fill="#00B94B"/>
<rect x="5" y="12.5" width="0.625" height="0.625" fill="#00B94B"/>
<rect x="5.625" y="12.5" width="0.625" height="0.625" fill="#00B94B"/>
<rect x="8.75" y="12.5" width="0.625" height="0.625" fill="#00B94B"/>
<rect x="11.875" y="12.5" width="0.625" height="0.625" fill="#00B94B"/>
<rect x="12.5" y="12.5" width="0.625" height="0.625" fill="#00B94B"/>
<rect x="15" y="12.5" width="0.625" height="0.625" fill="#00B94B"/>
<rect x="15.625" y="12.5" width="0.625" height="0.625" fill="#00B94B"/>
<rect x="1.875" y="13.125" width="0.625" height="0.625" fill="#00B94B"/>
<rect x="2.5" y="13.125" width="0.625" height="0.625" fill="#00B94B"/>
<rect x="5" y="13.125" width="0.625" height="0.625" fill="#00B94B"/>
<rect x="5.625" y="13.125" width="0.625" height="0.625" fill="#00B94B"/>
<rect x="8.75" y="13.125" width="0.625" height="0.625" fill="#00B94B"/>
<rect x="11.875" y="13.125" width="0.625" height="0.625" fill="#00B94B"/>
<rect x="12.5" y="13.125" width="0.625" height="0.625" fill="#00B94B"/>
<rect x="15" y="13.125" width="0.625" height="0.625" fill="#00B94B"/>
<rect x="15.625" y="13.125" width="0.625" height="0.625" fill="#00B94B"/>
<rect x="1.875" y="13.75" width="0.625" height="0.625" fill="#00B94B"/>
<rect x="2.5" y="13.75" width="0.625" height="0.625" fill="#00B94B"/>
<rect x="5" y="13.75" width="0.625" height="0.625" fill="#00B94B"/>
<rect x="5.625" y="13.75" width="0.625" height="0.625" fill="#00B94B"/>
<rect x="8.75" y="13.75" width="0.625" height="0.625" fill="#00B94B"/>
<rect x="11.875" y="13.75" width="0.625" height="0.625" fill="#00B94B"/>
<rect x="15" y="13.75" width="0.625" height="0.625" fill="#00B94B"/>
<rect x="15.625" y="13.75" width="0.625" height="0.625" fill="#00B94B"/>
<rect x="1.875" y="14.375" width="0.625" height="0.625" fill="#00B94B"/>
<rect x="2.5" y="14.375" width="0.625" height="0.625" fill="#00B94B"/>
<rect x="5.625" y="14.375" width="0.625" height="0.625" fill="#00B94B"/>
<rect x="8.75" y="14.375" width="0.625" height="0.625" fill="#00B94B"/>
<rect x="11.25" y="14.375" width="0.625" height="0.625" fill="#00B94B"/>
<rect x="11.875" y="14.375" width="0.625" height="0.625" fill="#00B94B"/>
<rect x="15" y="14.375" width="0.625" height="0.625" fill="#00B94B"/>
<rect x="2.5" y="15" width="0.625" height="0.625" fill="#00B94B"/>
<rect x="5.625" y="15" width="0.625" height="0.625" fill="#00B94B"/>
<rect x="6.25" y="15" width="0.625" height="0.625" fill="#00B94B"/>
<rect x="8.75" y="15" width="0.625" height="0.625" fill="#00B94B"/>
<rect x="11.25" y="15" width="0.625" height="0.625" fill="#00B94B"/>
<rect x="11.875" y="15" width="0.625" height="0.625" fill="#00B94B"/>
<rect x="14.375" y="15" width="0.625" height="0.625" fill="#00B94B"/>
<rect x="15" y="15" width="0.625" height="0.625" fill="#00B94B"/>
<rect x="2.5" y="15.625" width="0.625" height="0.625" fill="#00B94B"/>
<rect x="3.125" y="15.625" width="0.625" height="0.625" fill="#00B94B"/>
<rect x="5.625" y="15.625" width="0.625" height="0.625" fill="#00B94B"/>
<rect x="6.25" y="15.625" width="0.625" height="0.625" fill="#00B94B"/>
<rect x="8.75" y="15.625" width="0.625" height="0.625" fill="#00B94B"/>
<rect x="11.25" y="15.625" width="0.625" height="0.625" fill="#00B94B"/>
<rect x="11.875" y="15.625" width="0.625" height="0.625" fill="#00B94B"/>
<rect x="14.375" y="15.625" width="0.625" height="0.625" fill="#00B94B"/>
<rect x="15" y="15.625" width="0.625" height="0.625" fill="#00B94B"/>
<rect x="2.5" y="16.25" width="0.625" height="0.625" fill="#00B94B"/>
<rect x="3.125" y="16.25" width="0.625" height="0.625" fill="#00B94B"/>
<rect x="5.625" y="16.25" width="0.625" height="0.625" fill="#00B94B"/>
<rect x="6.25" y="16.25" width="0.625" height="0.625" fill="#00B94B"/>
<rect x="8.75" y="16.25" width="0.625" height="0.625" fill="#00B94B"/>
<rect x="11.25" y="16.25" width="0.625" height="0.625" fill="#00B94B"/>
<rect x="11.875" y="16.25" width="0.625" height="0.625" fill="#00B94B"/>
<rect x="14.375" y="16.25" width="0.625" height="0.625" fill="#00B94B"/>
<rect x="15" y="16.25" width="0.625" height="0.625" fill="#00B94B"/>
<rect x="2.5" y="16.875" width="0.625" height="0.625" fill="#00B94B"/>
<rect x="3.125" y="16.875" width="0.625" height="0.625" fill="#00B94B"/>
<rect x="5.625" y="16.875" width="0.625" height="0.625" fill="#00B94B"/>
<rect x="6.25" y="16.875" width="0.625" height="0.625" fill="#00B94B"/>
<rect x="8.75" y="16.875" width="0.625" height="0.625" fill="#00B94B"/>
<rect x="11.25" y="16.875" width="0.625" height="0.625" fill="#00B94B"/>
<rect x="11.875" y="16.875" width="0.625" height="0.625" fill="#00B94B"/>
<rect x="14.375" y="16.875" width="0.625" height="0.625" fill="#00B94B"/>
<rect x="15" y="16.875" width="0.625" height="0.625" fill="#00B94B"/>
<rect x="2.5" y="17.5" width="0.625" height="0.625" fill="#00B94B"/>
<rect x="3.125" y="17.5" width="0.625" height="0.625" fill="#00B94B"/>
<rect x="5.625" y="17.5" width="0.625" height="0.625" fill="#00B94B"/>
<rect x="8.75" y="17.5" width="0.625" height="0.625" fill="#00B94B"/>
<rect x="11.25" y="17.5" width="0.625" height="0.625" fill="#00B94B"/>
<rect x="11.875" y="17.5" width="0.625" height="0.625" fill="#00B94B"/>
<rect x="14.375" y="17.5" width="0.625" height="0.625" fill="#00B94B"/>
<rect x="15" y="17.5" width="0.625" height="0.625" fill="#00B94B"/>
<rect x="2.5" y="18.125" width="0.625" height="0.625" fill="#00B94B"/>
<rect x="3.125" y="18.125" width="0.625" height="0.625" fill="#00B94B"/>
<rect x="14.375" y="18.125" width="0.625" height="0.625" fill="#00B94B"/>
<rect x="15" y="18.125" width="0.625" height="0.625" fill="#00B94B"/>
<rect x="2.5" y="18.75" width="0.625" height="0.625" fill="#00B94B"/>
<rect x="3.125" y="18.75" width="0.625" height="0.625" fill="#00B94B"/>
<rect x="3.75" y="18.75" width="0.625" height="0.625" fill="#00B94B"/>
<rect x="13.75" y="18.75" width="0.625" height="0.625" fill="#00B94B"/>
<rect x="14.375" y="18.75" width="0.625" height="0.625" fill="#00B94B"/>
<rect x="15" y="18.75" width="0.625" height="0.625" fill="#00B94B"/>
<rect x="3.125" y="19.375" width="0.625" height="0.625" fill="#00B94B"/>
<rect x="3.75" y="19.375" width="0.625" height="0.625" fill="#00B94B"/>
<rect x="4.375" y="19.375" width="0.625" height="0.625" fill="#00B94B"/>
<rect x="5" y="19.375" width="0.625" height="0.625" fill="#00B94B"/>
<rect x="5.625" y="19.375" width="0.625" height="0.625" fill="#00B94B"/>
<rect x="6.25" y="19.375" width="0.625" height="0.625" fill="#00B94B"/>
<rect x="6.875" y="19.375" width="0.625" height="0.625" fill="#00B94B"/>
<rect x="7.5" y="19.375" width="0.625" height="0.625" fill="#00B94B"/>
<rect x="8.125" y="19.375" width="0.625" height="0.625" fill="#00B94B"/>
<rect x="8.75" y="19.375" width="0.625" height="0.625" fill="#00B94B"/>
<rect x="9.375" y="19.375" width="0.625" height="0.625" fill="#00B94B"/>
<rect x="10" y="19.375" width="0.625" height="0.625" fill="#00B94B"/>
<rect x="10.625" y="19.375" width="0.625" height="0.625" fill="#00B94B"/>
<rect x="11.25" y="19.375" width="0.625" height="0.625" fill="#00B94B"/>
<rect x="11.875" y="19.375" width="0.625" height="0.625" fill="#00B94B"/>
<rect x="12.5" y="19.375" width="0.625" height="0.625" fill="#00B94B"/>
<rect x="13.125" y="19.375" width="0.625" height="0.625" fill="#00B94B"/>
<rect x="13.75" y="19.375" width="0.625" height="0.625" fill="#00B94B"/>
<rect x="14.375" y="19.375" width="0.625" height="0.625" fill="#00B94B"/>
</svg>
