<svg width="512" height="512" viewBox="0 0 512 512" fill="none" xmlns="http://www.w3.org/2000/svg">
<rect x="10" y="10" width="492" height="492" fill="#00B94B" stroke="#252525" stroke-width="20"/>
<path d="M436 256C436 355.411 355.411 436 256 436C156.589 436 76 355.411 76 256C76 156.589 156.589 76 256 76C355.411 76 436 156.589 436 256ZM112 256C112 335.529 176.471 400 256 400C335.529 400 400 335.529 400 256C400 176.471 335.529 112 256 112C176.471 112 112 176.471 112 256Z" fill="#252525"/>
<path d="M256 126C233.088 126 210.584 132.055 190.766 143.552C170.947 155.05 154.52 171.58 143.147 191.47C131.774 211.359 125.859 233.901 126.003 256.813C126.146 279.724 132.342 302.19 143.962 321.936C155.583 341.682 172.216 358.006 192.177 369.254C212.137 380.503 234.715 386.276 257.625 385.99C280.535 385.703 302.962 379.367 322.635 367.623C342.308 355.879 358.528 339.145 369.651 319.114L256 256L256 126Z" fill="white"/>
</svg>
