<svg width="512" height="512" viewBox="0 0 512 512" fill="none" xmlns="http://www.w3.org/2000/svg">
<rect x="10" y="10" width="492" height="492" fill="#26B8B5" stroke="#252525" stroke-width="20"/>
<rect x="92.6216" y="50" width="522.381" height="60.2747" rx="3.32" transform="rotate(45 92.6216 50)" fill="#252525"/>
<path d="M412 256C412 342.156 342.156 412 256 412C169.844 412 100 342.156 100 256C100 169.844 169.844 100 256 100C342.156 100 412 169.844 412 256ZM139 256C139 320.617 191.383 373 256 373C320.617 373 373 320.617 373 256C373 191.383 320.617 139 256 139C191.383 139 139 191.383 139 256Z" fill="white"/>
<rect x="50" y="419.379" width="522.381" height="60.2747" rx="3.32" transform="rotate(-45 50 419.379)" fill="#252525"/>
</svg>
