<svg width="512" height="512" viewBox="0 0 512 512" fill="none" xmlns="http://www.w3.org/2000/svg">
<rect width="512" height="512" fill="#26BBB5"/>
<path d="M81.75 256.75V213H38V81.75H81.75V38H169.25V81.75H213V213H169.25V256.75H81.75ZM81.75 211.25H169.25V83.5H81.75V211.25Z" fill="white"/>
<path d="M430 473.75V430H386.25V386.25H342.5V342.5H298.75V298.75H255V255H298.75V298.75H342.5V342.5H386.25V386.25H430V430H473.75V473.75H430ZM386.25 342.5V298.75H430V255H473.75V298.75H430V342.5H386.25ZM298.75 430V386.25H342.5V430H298.75ZM255 473.75V430H298.75V473.75H255Z" fill="#252525"/>
</svg>
