<svg width="512" height="512" viewBox="0 0 512 512" fill="none" xmlns="http://www.w3.org/2000/svg">
<rect width="512" height="512" fill="#12E895"/>
<path d="M214 154H224V164H214V154Z" fill="black"/>
<path d="M224 154H234V164H224V154Z" fill="black"/>
<path d="M214 164H224V174H214V164Z" fill="black"/>
<path d="M224 164H234V174H224V164Z" fill="black"/>
<path d="M214 174H224V184H214V174Z" fill="black"/>
<path d="M224 174H234V184H224V174Z" fill="black"/>
<path d="M234 174H244V184H234V174Z" fill="black"/>
<path d="M244 174H254V184H244V174Z" fill="black"/>
<path d="M254 174H264V184H254V174Z" fill="black"/>
<path d="M264 174H274V184H264V174Z" fill="black"/>
<path d="M274 174H284V184H274V174Z" fill="black"/>
<path d="M284 174H294V184H284V174Z" fill="black"/>
<path d="M214 184H224V194H214V184Z" fill="black"/>
<path d="M224 184H234V194H224V184Z" fill="black"/>
<path d="M234 184H244V194H234V184Z" fill="black"/>
<path d="M244 184H254V194H244V184Z" fill="black"/>
<path d="M254 184H264V194H254V184Z" fill="black"/>
<path d="M264 184H274V194H264V184Z" fill="black"/>
<path d="M274 184H284V194H274V184Z" fill="black"/>
<path d="M284 184H294V194H284V184Z" fill="black"/>
<path d="M214 194H224V204H214V194Z" fill="black"/>
<path d="M224 194H234V204H224V194Z" fill="black"/>
<path d="M274 194H284V204H274V194Z" fill="black"/>
<path d="M284 194H294V204H284V194Z" fill="black"/>
<path d="M294 194H304V204H294V194Z" fill="black"/>
<path d="M304 194H314V204H304V194Z" fill="black"/>
<path d="M214 204H224V214H214V204Z" fill="black"/>
<path d="M224 204H234V214H224V204Z" fill="black"/>
<path d="M274 204H284V214H274V204Z" fill="black"/>
<path d="M284 204H294V214H284V204Z" fill="black"/>
<path d="M294 204H304V214H294V204Z" fill="black"/>
<path d="M304 204H314V214H304V204Z" fill="black"/>
<path d="M214 214H224V224H214V214Z" fill="black"/>
<path d="M224 214H234V224H224V214Z" fill="black"/>
<path d="M294 214H304V224H294V214Z" fill="black"/>
<path d="M304 214H314V224H304V214Z" fill="black"/>
<path d="M214 224H224V234H214V224Z" fill="black"/>
<path d="M224 224H234V234H224V224Z" fill="black"/>
<path d="M294 224H304V234H294V224Z" fill="black"/>
<path d="M304 224H314V234H304V224Z" fill="black"/>
<path d="M214 234H224V244H214V234Z" fill="black"/>
<path d="M224 234H234V244H224V234Z" fill="black"/>
<path d="M294 234H304V244H294V234Z" fill="black"/>
<path d="M304 234H314V244H304V234Z" fill="black"/>
<path d="M214 244H224V254H214V244Z" fill="black"/>
<path d="M224 244H234V254H224V244Z" fill="black"/>
<path d="M294 244H304V254H294V244Z" fill="black"/>
<path d="M304 244H314V254H304V244Z" fill="black"/>
<path d="M214 254H224V264H214V254Z" fill="black"/>
<path d="M224 254H234V264H224V254Z" fill="black"/>
<path d="M294 254H304V264H294V254Z" fill="black"/>
<path d="M304 254H314V264H304V254Z" fill="black"/>
<path d="M214 264H224V274H214V264Z" fill="black"/>
<path d="M224 264H234V274H224V264Z" fill="black"/>
<path d="M294 264H304V274H294V264Z" fill="black"/>
<path d="M304 264H314V274H304V264Z" fill="black"/>
<path d="M194 274H204V284H194V274Z" fill="black"/>
<path d="M204 274H214V284H204V274Z" fill="black"/>
<path d="M294 274H304V284H294V274Z" fill="black"/>
<path d="M304 274H314V284H304V274Z" fill="black"/>
<path d="M194 284H204V294H194V284Z" fill="black"/>
<path d="M204 284H214V294H204V284Z" fill="black"/>
<path d="M294 284H304V294H294V284Z" fill="black"/>
<path d="M304 284H314V294H304V284Z" fill="black"/>
<path d="M194 294H204V304H194V294Z" fill="black"/>
<path d="M204 294H214V304H204V294Z" fill="black"/>
<path d="M294 294H304V304H294V294Z" fill="black"/>
<path d="M304 294H314V304H304V294Z" fill="black"/>
<path d="M194 304H204V314H194V304Z" fill="black"/>
<path d="M204 304H214V314H204V304Z" fill="black"/>
<path d="M294 304H304V314H294V304Z" fill="black"/>
<path d="M304 304H314V314H304V304Z" fill="black"/>
<path d="M194 314H204V324H194V314Z" fill="black"/>
<path d="M204 314H214V324H204V314Z" fill="black"/>
<path d="M294 314H304V324H294V314Z" fill="black"/>
<path d="M304 314H314V324H304V314Z" fill="black"/>
<path d="M194 324H204V334H194V324Z" fill="black"/>
<path d="M204 324H214V334H204V324Z" fill="black"/>
<path d="M294 324H304V334H294V324Z" fill="black"/>
<path d="M304 324H314V334H304V324Z" fill="black"/>
<path d="M194 334H204V344H194V334Z" fill="black"/>
<path d="M204 334H214V344H204V334Z" fill="black"/>
<path d="M294 334H304V344H294V334Z" fill="black"/>
<path d="M304 334H314V344H304V334Z" fill="black"/>
<path d="M194 344H204V354H194V344Z" fill="black"/>
<path d="M204 344H214V354H204V344Z" fill="black"/>
<path d="M294 344H304V354H294V344Z" fill="black"/>
<path d="M304 344H314V354H304V344Z" fill="black"/>
<path d="M194 354H204V364H194V354Z" fill="black"/>
<path d="M204 354H214V364H204V354Z" fill="black"/>
<path d="M294 354H304V364H294V354Z" fill="black"/>
<path d="M304 354H314V364H304V354Z" fill="black"/>
<path d="M194 364H204V374H194V364Z" fill="black"/>
<path d="M204 364H214V374H204V364Z" fill="black"/>
<path d="M294 364H304V374H294V364Z" fill="black"/>
<path d="M304 364H314V374H304V364Z" fill="black"/>
<path d="M174 374H184V384H174V374Z" fill="black"/>
<path d="M184 374H194V384H184V374Z" fill="black"/>
<path d="M194 374H204V384H194V374Z" fill="black"/>
<path d="M204 374H214V384H204V374Z" fill="black"/>
<path d="M214 374H224V384H214V374Z" fill="black"/>
<path d="M224 374H234V384H224V374Z" fill="black"/>
<path d="M234 374H244V384H234V374Z" fill="black"/>
<path d="M244 374H254V384H244V374Z" fill="black"/>
<path d="M294 374H304V384H294V374Z" fill="black"/>
<path d="M304 374H314V384H304V374Z" fill="black"/>
<path d="M174 384H184V394H174V384Z" fill="black"/>
<path d="M184 384H194V394H184V384Z" fill="black"/>
<path d="M194 384H204V394H194V384Z" fill="black"/>
<path d="M204 384H214V394H204V384Z" fill="black"/>
<path d="M214 384H224V394H214V384Z" fill="black"/>
<path d="M224 384H234V394H224V384Z" fill="black"/>
<path d="M234 384H244V394H234V384Z" fill="black"/>
<path d="M244 384H254V394H244V384Z" fill="black"/>
<path d="M294 384H304V394H294V384Z" fill="black"/>
<path d="M304 384H314V394H304V384Z" fill="black"/>
<path d="M254 394H264V404H254V394Z" fill="black"/>
<path d="M264 394H274V404H264V394Z" fill="black"/>
<path d="M294 394H304V404H294V394Z" fill="black"/>
<path d="M304 394H314V404H304V394Z" fill="black"/>
<path d="M254 404H264V414H254V404Z" fill="black"/>
<path d="M264 404H274V414H264V404Z" fill="black"/>
<path d="M294 404H304V414H294V404Z" fill="black"/>
<path d="M304 404H314V414H304V404Z" fill="black"/>
<path d="M254 414H264V424H254V414Z" fill="black"/>
<path d="M264 414H274V424H264V414Z" fill="black"/>
<path d="M294 414H304V424H294V414Z" fill="black"/>
<path d="M304 414H314V424H304V414Z" fill="black"/>
<path d="M254 424H264V434H254V424Z" fill="black"/>
<path d="M264 424H274V434H264V424Z" fill="black"/>
<path d="M294 424H304V434H294V424Z" fill="black"/>
<path d="M304 424H314V434H304V424Z" fill="black"/>
<path d="M254 434H264V444H254V434Z" fill="black"/>
<path d="M264 434H274V444H264V434Z" fill="black"/>
<path d="M294 434H304V444H294V434Z" fill="black"/>
<path d="M304 434H314V444H304V434Z" fill="black"/>
<path d="M254 444H264V454H254V444Z" fill="black"/>
<path d="M264 444H274V454H264V444Z" fill="black"/>
<path d="M294 444H304V454H294V444Z" fill="black"/>
<path d="M304 444H314V454H304V444Z" fill="black"/>
<path d="M254 454H264V464H254V454Z" fill="black"/>
<path d="M264 454H274V464H264V454Z" fill="black"/>
<path d="M294 454H304V464H294V454Z" fill="black"/>
<path d="M304 454H314V464H304V454Z" fill="black"/>
<path d="M254 464H264V474H254V464Z" fill="black"/>
<path d="M264 464H274V474H264V464Z" fill="black"/>
<path d="M294 464H304V474H294V464Z" fill="black"/>
<path d="M304 464H314V474H304V464Z" fill="black"/>
</svg>
