<svg width="80" height="80" viewBox="0 0 80 80" fill="none" xmlns="http://www.w3.org/2000/svg">
<path d="M39.3115 0.653723C39.6974 0.287326 40.3026 0.287326 40.6885 0.653724L43.979 3.77783C44.2961 4.0789 44.7721 4.13903 45.1541 3.92627L49.1181 1.71863C49.583 1.45971 50.1693 1.61023 50.4519 2.06109L52.8621 5.90535C53.0944 6.27583 53.5404 6.45243 53.9633 6.34137L58.3518 5.18889C58.8665 5.05373 59.3969 5.34531 59.5586 5.8523L60.937 10.1752C61.0698 10.5918 61.458 10.8738 61.8952 10.8714L66.4325 10.8465C66.9646 10.8435 67.4058 11.2579 67.4363 11.7891L67.6964 16.319C67.7214 16.7555 68.0272 17.1252 68.4513 17.2316L72.8522 18.3359C73.3684 18.4654 73.6927 18.9764 73.5901 19.4986L72.7155 23.9508C72.6312 24.3798 72.8354 24.8139 73.2198 25.0225L77.2078 27.1865C77.6755 27.4403 77.8625 28.0159 77.6333 28.4962L75.6789 32.591C75.4906 32.9856 75.5805 33.4569 75.9008 33.7544L79.2254 36.8423C79.6153 37.2044 79.6533 37.8085 79.3119 38.2166L76.4005 41.6967C76.12 42.0321 76.0898 42.5109 76.3262 42.8788L78.7784 46.6964C79.066 47.1441 78.9525 47.7387 78.5203 48.0491L74.835 50.6959C74.4798 50.951 74.3316 51.4072 74.469 51.8223L75.8947 56.1298C76.062 56.635 75.8043 57.1827 75.3084 57.3758L71.0806 59.023C70.6732 59.1817 70.4161 59.5868 70.446 60.023L70.7557 64.5497C70.792 65.0806 70.4062 65.547 69.8779 65.6108L65.3733 66.1548C64.9392 66.2072 64.5895 66.5356 64.5099 66.9656L63.6842 71.4271C63.5874 71.9503 63.0977 72.3061 62.5701 72.2365L58.0718 71.6432C57.6383 71.586 57.2179 71.8171 57.0339 72.2138L55.1245 76.3298C54.9006 76.8125 54.3378 77.0353 53.8441 76.8367L49.6347 75.1433C49.229 74.9801 48.7643 75.0994 48.4875 75.4378L45.6145 78.9497C45.2776 79.3616 44.6771 79.4375 44.2483 79.1223L40.5922 76.4353C40.2399 76.1763 39.7601 76.1763 39.4078 76.4353L35.7517 79.1223C35.3229 79.4375 34.7224 79.3616 34.3855 78.9497L31.5125 75.4378C31.2357 75.0994 30.771 74.9801 30.3653 75.1433L26.1559 76.8367C25.6622 77.0353 25.0994 76.8125 24.8755 76.3298L22.9661 72.2138C22.7821 71.8171 22.3617 71.586 21.9282 71.6432L17.4299 72.2365C16.9023 72.3061 16.4126 71.9503 16.3158 71.4271L15.4901 66.9656C15.4105 66.5356 15.0608 66.2072 14.6266 66.1548L10.1221 65.6108C9.59376 65.547 9.20796 65.0806 9.24428 64.5497L9.55402 60.023C9.58387 59.5868 9.32682 59.1817 8.91937 59.023L4.69159 57.3758C4.19575 57.1827 3.93805 56.635 4.10526 56.1298L5.53102 51.8223C5.66843 51.4072 5.52018 50.951 5.16501 50.6959L1.47967 48.0491C1.04746 47.7387 0.934042 47.1441 1.22164 46.6964L3.67383 42.8788C3.91015 42.5109 3.88003 42.0321 3.59946 41.6967L0.68813 38.2166C0.346687 37.8085 0.384692 37.2044 0.774598 36.8423L4.09915 33.7544C4.41954 33.4569 4.50944 32.9856 4.32109 32.591L2.3667 28.4962C2.13749 28.0159 2.32452 27.4403 2.79224 27.1865L6.78025 25.0225C7.16458 24.8139 7.36884 24.3798 7.28455 23.9508L6.4099 19.4986C6.30733 18.9764 6.63164 18.4654 7.14778 18.3359L11.5487 17.2316C11.9728 17.1252 12.2786 16.7555 12.3036 16.319L12.5637 11.7891C12.5942 11.2579 13.0354 10.8435 13.5675 10.8465L18.1048 10.8714C18.5421 10.8738 18.9302 10.5918 19.063 10.1752L20.4414 5.8523C20.6031 5.34531 21.1335 5.05373 21.6482 5.18889L26.0367 6.34137C26.4596 6.45243 26.9056 6.27583 27.1379 5.90535L29.5481 2.06109C29.8307 1.61023 30.417 1.45971 30.8819 1.71863L34.8459 3.92627C35.2279 4.13903 35.7039 4.0789 36.021 3.77783L39.3115 0.653723Z" fill="#131110"/>
</svg>
