<svg width="71" height="40" viewBox="0 0 71 40" fill="none" xmlns="http://www.w3.org/2000/svg">
<path d="M26.1851 2.04049L26.1854 2.04039C26.6963 1.884 28.267 1.6324 29.5648 1.53873C30.3378 1.48307 32.0976 1.49026 33.8661 1.54197C35.6635 1.59452 37.2316 1.68693 37.6875 1.76675C38.6556 1.94177 38.9963 2.09403 39.1508 2.20697C39.2341 2.2679 39.3684 2.38476 39.5607 2.97851L39.5647 2.99078L39.5647 2.99077L39.565 2.99153C39.5897 3.0657 39.6463 3.23541 39.672 4.31969C39.6971 5.38081 39.694 7.15878 39.6802 10.3429C39.6802 10.3431 39.6802 10.3434 39.6802 10.3437L39.639 17.4743L39.6369 17.8272L39.7924 18.144L40.1595 18.8916C40.1602 18.8932 40.161 18.8947 40.1618 18.8963C40.6984 20.0038 41.651 20.9758 43.0905 20.9758C43.4121 20.9758 43.6813 20.8877 43.837 20.8282C44.0136 20.7608 44.1799 20.6761 44.3256 20.5932C44.6179 20.4268 44.9246 20.2113 45.218 19.9815C45.8052 19.5215 46.4517 18.9152 46.9716 18.2994L46.9749 18.2955C49.3839 15.4221 52.8106 9.39126 54.5705 4.99834L54.5709 4.99758C54.7164 4.63365 54.8949 4.24883 55.0609 3.92898C55.1437 3.76942 55.2184 3.63589 55.2792 3.53531C55.3061 3.49088 55.3261 3.45983 55.3393 3.43984L60.3532 3.34272C63.9804 3.27376 66.0336 3.25094 67.2755 3.29068C68.4614 3.32863 68.7069 3.42444 68.7919 3.46573C68.7941 3.46692 68.7962 3.46809 68.7983 3.46924C68.798 3.48399 68.7974 3.50084 68.7962 3.51994C68.7886 3.64425 68.7609 3.82799 68.6951 4.09412L68.6949 4.09477C68.4835 4.95147 67.9663 6.10878 66.8449 7.90476C65.7302 9.68995 64.0758 12.0178 61.67 15.2049L61.6698 15.2052C59.9733 17.4536 58.94 18.8582 58.3384 19.8434C57.699 20.8906 57.4366 21.6406 57.4366 22.5543V22.5623L57.4367 22.5702C57.4406 22.9362 57.4608 23.3797 57.6166 23.8709C57.7727 24.3631 58.0313 24.8022 58.3708 25.251C59.0068 26.0918 60.1447 27.237 62.0596 29.1317C65.5574 32.6021 66.9917 34.2475 68.0905 35.9653C68.4436 36.5174 68.5753 36.8019 68.642 37.039C68.6986 37.2399 68.7304 37.4847 68.7256 37.9456C68.7133 37.959 68.6991 37.9738 68.6829 37.9898C68.6156 38.0558 68.535 38.1202 68.4528 38.1722C68.4059 38.2019 68.3662 38.2228 68.3356 38.2369C68.3284 38.2377 68.3206 38.2385 68.312 38.2394C68.2182 38.2494 68.083 38.2608 67.9047 38.2728C67.5501 38.2969 67.069 38.321 66.4961 38.344C65.3529 38.3901 63.8798 38.4306 62.3989 38.4588C60.9178 38.4871 59.4383 38.5028 58.2819 38.4996C57.7025 38.498 57.2133 38.4917 56.8492 38.4803C56.6662 38.4746 56.5255 38.468 56.4258 38.461C56.3965 38.4589 56.3745 38.4571 56.3591 38.4556C56.354 38.4541 56.3486 38.4525 56.3428 38.4507C56.3068 38.4396 56.261 38.4245 56.2053 38.4051C56.0935 38.3662 55.9568 38.3151 55.8026 38.2542C55.4979 38.1339 55.1504 37.9856 54.8344 37.8405C53.6273 37.2571 52.795 36.5723 50.0647 33.5127C48.6284 31.9002 47.6034 30.8169 46.7247 30.1646C46.2599 29.8195 45.7877 29.5565 45.267 29.3981C44.7442 29.2391 44.255 29.2108 43.7936 29.2331C43.2891 29.2546 42.8804 29.486 42.6838 29.6072C42.4312 29.7629 42.1893 29.9562 41.9755 30.1503C41.5539 30.5333 41.1125 31.0381 40.8031 31.5505L40.7973 31.5602L40.7915 31.57C40.1304 32.7034 39.7564 34.5416 39.642 36.4214C39.5802 37.3331 39.5079 37.7665 39.4319 37.9982C39.4119 38.0592 39.3969 38.0885 39.3911 38.0985C39.3862 38.103 39.3759 38.1115 39.3572 38.1245C39.2446 38.2004 39.0561 38.3059 38.4138 38.3719C37.7179 38.4435 36.6523 38.454 34.8514 38.4126L34.851 38.4126C31.3116 38.3321 30.2179 38.151 28.1377 37.4242L28.1342 37.4229C24.9244 36.3104 20.8455 33.6697 18.2171 30.9764L26.1851 2.04049ZM26.1851 2.04049C26.1478 2.0519 26.1085 2.06572 26.0676 2.08175C26.9446 2.55477 27.6861 3.24658 28.1383 4.12509L28.1416 4.13154M26.1851 2.04049L28.1416 4.13154M28.1416 4.13154C28.4424 4.72306 28.6488 5.50288 28.7982 6.29055C28.9533 7.10836 29.068 8.05216 29.1406 9.03926C29.2853 11.0061 29.2698 13.2405 29.0354 15.1243C28.748 17.4506 28.6041 18.2339 28.0309 19.3464C27.6013 20.1963 26.8717 20.9353 25.7867 21.0913C24.7886 21.2347 23.8688 20.8217 23.1436 20.3167C21.6886 19.3033 20.162 17.3256 18.6848 14.7352C17.6179 12.8678 14.6797 7.00864 14.0007 5.37844C13.5915 4.41208 13.3919 4.01729 13.2353 3.80049C13.1525 3.68601 13.0941 3.62144 12.767 3.45536L12.7655 3.45461M28.1416 4.13154L12.7655 3.45461M12.7655 3.45461L12.3354 3.23565M12.7655 3.45461L12.3354 3.23565M1.53501 3.40363C1.62116 3.3909 1.81703 3.368 2.20208 3.34993C3.00741 3.31213 4.40793 3.29496 6.99745 3.27423C6.99783 3.27423 6.99822 3.27422 6.99861 3.27422M1.53501 3.40363L6.9866 1.77427L6.99861 3.27422M1.53501 3.40363C1.55278 3.46103 1.58035 3.54552 1.62222 3.66205C1.71752 3.92724 1.85617 4.27609 2.03584 4.70042C2.3942 5.54678 2.89354 6.64125 3.48004 7.86872C4.65258 10.3227 6.15071 13.2608 7.51549 15.7256L7.51559 15.7258C10.8186 21.6929 15.1549 27.8349 18.2165 30.9759L1.53501 3.40363ZM6.99861 3.27422L12.3354 3.23565M6.99861 3.27422L12.3354 3.23565M39.3948 38.0948C39.3947 38.0949 39.394 38.0956 39.3928 38.097C39.3944 38.0955 39.395 38.0948 39.3948 38.0948ZM39.3897 38.1009C39.3888 38.1021 39.3884 38.1028 39.3884 38.1028C39.3885 38.1028 39.3889 38.1022 39.3897 38.1009ZM1.42619 3.46659C1.4262 3.46659 1.42661 3.46621 1.42737 3.4654L1.42619 3.46659Z" fill="#E1E3E1" stroke="#131110" stroke-width="3"/>
</svg>
