<svg width="71" height="40" viewBox="0 0 71 40" fill="none" xmlns="http://www.w3.org/2000/svg">
<path d="M29.457 0.0426064C28.1239 0.138809 26.4198 0.399937 25.7463 0.606087C24.5781 0.963413 23.1351 2.25529 23.3962 2.69508C23.4512 2.7638 23.7123 2.87374 24.0009 2.92872C25.2653 3.16236 26.3236 3.87701 26.8046 4.81156C27.6154 6.4058 27.9865 11.4084 27.5467 14.9404C27.2581 17.2768 27.1344 17.8128 26.6946 18.6649C25.5539 20.9326 22.8877 19.0772 19.9879 13.9922C18.9434 12.1643 16.0298 6.35082 15.3838 4.79782C14.5867 2.91498 14.3393 2.57139 13.446 2.11786L12.6901 1.73304L6.9866 1.77427C1.83283 1.81551 1.24187 1.84299 0.84331 2.06288C0.19737 2.40647 -0.0774974 2.88749 0.0187063 3.50594C0.15614 4.59167 3.44081 11.4634 6.20323 16.4522C9.54288 22.4856 13.9545 28.7526 17.143 32.0235C19.9191 34.8684 24.1933 37.6445 27.6429 38.8402C29.9243 39.6373 31.1887 39.8297 34.817 39.9122C38.404 39.9946 39.4347 39.8847 40.2044 39.3625C40.8228 38.9364 41.0152 38.3454 41.1389 36.5176C41.2489 34.7034 41.6062 33.1504 42.0872 32.3258C42.527 31.5974 43.4478 30.7453 43.8601 30.7316C45.2482 30.6629 46.0316 31.2401 48.9452 34.511C51.6801 37.5758 52.6834 38.4691 54.1951 39.1975C54.8823 39.5136 55.7069 39.8435 56.0505 39.9259C56.8751 40.1183 68.0073 39.8984 68.7219 39.6923C69.4366 39.4724 70.2062 38.7165 70.2199 38.2218C70.2612 36.8886 70.11 36.3389 69.3541 35.157C68.1584 33.2879 66.6192 31.5425 63.1146 28.0654C59.2115 24.2035 58.9504 23.8462 58.9366 22.5543C58.9366 21.4686 59.4451 20.644 62.8672 16.1086C67.6912 9.71796 69.6152 6.62569 70.1512 4.45424C70.4673 3.1761 70.2887 2.55764 69.4778 2.1316C68.7082 1.74678 67.5537 1.70556 60.3247 1.84299L54.6487 1.95294L54.2089 2.4477C53.9753 2.72257 53.508 3.61589 53.1781 4.44049C51.4602 8.72843 48.1068 14.6106 45.8254 17.3318C44.9321 18.39 43.544 19.4758 43.0905 19.4758C42.4445 19.4758 41.9086 19.0635 41.51 18.2389L41.1389 17.483L41.1802 10.3502C41.2076 4.0007 41.1939 3.13487 40.9877 2.51642C40.5205 1.07336 39.9295 0.647316 37.9505 0.289986C36.7823 0.0838356 31.175 -0.0810852 29.457 0.0426064Z" fill="#131110"/>
</svg>
