<svg width="512" height="512" viewBox="0 0 512 512" fill="none" xmlns="http://www.w3.org/2000/svg">
<rect width="512" height="512" fill="#FFB129"/>
<rect x="314" y="207" width="26.6667" height="26.6667" fill="black"/>
<rect x="340.667" y="207" width="26.6667" height="26.6667" fill="black"/>
<rect x="367.333" y="207" width="26.6667" height="26.6667" fill="black"/>
<rect x="394" y="207" width="26.6667" height="26.6667" fill="black"/>
<rect x="420.667" y="207" width="26.6667" height="26.6667" fill="black"/>
<rect x="447.333" y="207" width="26.6667" height="26.6667" fill="black"/>
<rect x="314" y="233.667" width="26.6667" height="26.6667" fill="black"/>
<rect x="340.667" y="233.667" width="26.6667" height="26.6667" fill="black"/>
<rect x="367.333" y="233.667" width="26.6667" height="26.6667" fill="black"/>
<rect x="394" y="233.667" width="26.6667" height="26.6667" fill="black"/>
<rect x="420.667" y="233.667" width="26.6667" height="26.6667" fill="black"/>
<rect x="447.333" y="233.667" width="26.6667" height="26.6667" fill="black"/>
<rect x="367.333" y="260.333" width="26.6667" height="26.6667" fill="black"/>
<rect x="394" y="260.333" width="26.6667" height="26.6667" fill="black"/>
<rect x="420.667" y="260.333" width="26.6667" height="26.6667" fill="black"/>
<rect x="447.333" y="260.333" width="26.6667" height="26.6667" fill="black"/>
<rect x="340.667" y="287" width="26.6667" height="26.6667" fill="black"/>
<rect x="367.333" y="287" width="26.6667" height="26.6667" fill="black"/>
<rect x="394" y="287" width="26.6667" height="26.6667" fill="black"/>
<rect x="420.667" y="287" width="26.6667" height="26.6667" fill="black"/>
<rect x="447.333" y="287" width="26.6667" height="26.6667" fill="black"/>
<rect x="180.667" y="313.667" width="26.6667" height="26.6667" fill="black"/>
<rect x="207.333" y="313.667" width="26.6667" height="26.6667" fill="black"/>
<rect x="314" y="313.667" width="26.6667" height="26.6667" fill="black"/>
<rect x="340.667" y="313.667" width="26.6667" height="26.6667" fill="black"/>
<rect x="367.333" y="313.667" width="26.6667" height="26.6667" fill="black"/>
<rect x="420.667" y="313.667" width="26.6667" height="26.6667" fill="black"/>
<rect x="447.333" y="313.667" width="26.6667" height="26.6667" fill="black"/>
<rect x="154" y="340.333" width="26.6667" height="26.6667" fill="black"/>
<rect x="180.667" y="340.333" width="26.6667" height="26.6667" fill="black"/>
<rect x="207.333" y="340.333" width="26.6667" height="26.6667" fill="black"/>
<rect x="234" y="340.333" width="26.6667" height="26.6667" fill="black"/>
<rect x="287.333" y="340.333" width="26.6667" height="26.6667" fill="black"/>
<rect x="314" y="340.333" width="26.6667" height="26.6667" fill="black"/>
<rect x="340.667" y="340.333" width="26.6667" height="26.6667" fill="black"/>
<rect x="420.667" y="340.333" width="26.6667" height="26.6667" fill="black"/>
<rect x="447.333" y="340.333" width="26.6667" height="26.6667" fill="black"/>
<rect x="127.333" y="367" width="26.6667" height="26.6667" fill="black"/>
<rect x="154" y="367" width="26.6667" height="26.6667" fill="black"/>
<rect x="180.667" y="367" width="26.6667" height="26.6667" fill="black"/>
<rect x="207.333" y="367" width="26.6667" height="26.6667" fill="black"/>
<rect x="234" y="367" width="26.6667" height="26.6667" fill="black"/>
<rect x="260.667" y="367" width="26.6667" height="26.6667" fill="black"/>
<rect x="287.333" y="367" width="26.6667" height="26.6667" fill="black"/>
<rect x="314" y="367" width="26.6667" height="26.6667" fill="black"/>
<rect x="100.667" y="393.667" width="26.6667" height="26.6667" fill="black"/>
<rect x="127.333" y="393.667" width="26.6667" height="26.6667" fill="black"/>
<rect x="154" y="393.667" width="26.6667" height="26.6667" fill="black"/>
<rect x="234" y="393.667" width="26.6667" height="26.6667" fill="black"/>
<rect x="260.667" y="393.667" width="26.6667" height="26.6667" fill="black"/>
<rect x="287.333" y="393.667" width="26.6667" height="26.6667" fill="black"/>
<rect x="74" y="420.333" width="26.6667" height="26.6667" fill="black"/>
<rect x="100.667" y="420.333" width="26.6667" height="26.6667" fill="black"/>
<rect x="127.333" y="420.333" width="26.6667" height="26.6667" fill="black"/>
<rect x="260.667" y="420.333" width="26.6667" height="26.6667" fill="black"/>
<rect x="74" y="447" width="26.6667" height="26.6667" fill="black"/>
<rect x="100.667" y="447" width="26.6667" height="26.6667" fill="black"/>
</svg>
