<svg width="512" height="512" viewBox="0 0 512 512" fill="none" xmlns="http://www.w3.org/2000/svg">
<rect width="512" height="512" fill="#F2389E"/>
<rect x="441" y="276" width="16.5" height="16.5" fill="white"/>
<rect x="457.5" y="276" width="16.5" height="16.5" fill="white"/>
<rect x="424.5" y="292.5" width="16.5" height="16.5" fill="white"/>
<rect x="441" y="292.5" width="16.5" height="16.5" fill="white"/>
<rect x="457.5" y="292.5" width="16.5" height="16.5" fill="white"/>
<rect x="408" y="309" width="16.5" height="16.5" fill="white"/>
<rect x="424.5" y="309" width="16.5" height="16.5" fill="white"/>
<rect x="441" y="309" width="16.5" height="16.5" fill="white"/>
<rect x="391.5" y="325.5" width="16.5" height="16.5" fill="white"/>
<rect x="408" y="325.5" width="16.5" height="16.5" fill="white"/>
<rect x="424.5" y="325.5" width="16.5" height="16.5" fill="white"/>
<rect x="375" y="342" width="16.5" height="16.5" fill="white"/>
<rect x="391.5" y="342" width="16.5" height="16.5" fill="white"/>
<rect x="408" y="342" width="16.5" height="16.5" fill="white"/>
<rect x="210" y="358.5" width="16.5" height="16.5" fill="white"/>
<rect x="226.5" y="358.5" width="16.5" height="16.5" fill="white"/>
<rect x="358.5" y="358.5" width="16.5" height="16.5" fill="white"/>
<rect x="375" y="358.5" width="16.5" height="16.5" fill="white"/>
<rect x="391.5" y="358.5" width="16.5" height="16.5" fill="white"/>
<rect x="210" y="375" width="16.5" height="16.5" fill="white"/>
<rect x="226.5" y="375" width="16.5" height="16.5" fill="white"/>
<rect x="243" y="375" width="16.5" height="16.5" fill="white"/>
<rect x="342" y="375" width="16.5" height="16.5" fill="white"/>
<rect x="358.5" y="375" width="16.5" height="16.5" fill="white"/>
<rect x="375" y="375" width="16.5" height="16.5" fill="white"/>
<rect x="226.5" y="391.5" width="16.5" height="16.5" fill="white"/>
<rect x="243" y="391.5" width="16.5" height="16.5" fill="white"/>
<rect x="259.5" y="391.5" width="16.5" height="16.5" fill="white"/>
<rect x="325.5" y="391.5" width="16.5" height="16.5" fill="white"/>
<rect x="342" y="391.5" width="16.5" height="16.5" fill="white"/>
<rect x="358.5" y="391.5" width="16.5" height="16.5" fill="white"/>
<rect x="243" y="408" width="16.5" height="16.5" fill="white"/>
<rect x="259.5" y="408" width="16.5" height="16.5" fill="white"/>
<rect x="276" y="408" width="16.5" height="16.5" fill="white"/>
<rect x="309" y="408" width="16.5" height="16.5" fill="white"/>
<rect x="325.5" y="408" width="16.5" height="16.5" fill="white"/>
<rect x="342" y="408" width="16.5" height="16.5" fill="white"/>
<rect x="259.5" y="424.5" width="16.5" height="16.5" fill="white"/>
<rect x="276" y="424.5" width="16.5" height="16.5" fill="white"/>
<rect x="292.5" y="424.5" width="16.5" height="16.5" fill="white"/>
<rect x="309" y="424.5" width="16.5" height="16.5" fill="white"/>
<rect x="325.5" y="424.5" width="16.5" height="16.5" fill="white"/>
<rect x="276" y="441" width="16.5" height="16.5" fill="white"/>
<rect x="292.5" y="441" width="16.5" height="16.5" fill="white"/>
<rect x="309" y="441" width="16.5" height="16.5" fill="white"/>
<rect x="292.5" y="457.5" width="16.5" height="16.5" fill="white"/>
</svg>
