<svg width="260" height="347" viewBox="0 0 260 347" fill="none" xmlns="http://www.w3.org/2000/svg">
<g clip-path="url(#clip0_703_189)">
<mask id="path-2-inside-1_703_189" fill="white">
<path d="M0 239H260V347H0V239Z"/>
</mask>
<path d="M0 242H260V236H0V242Z" fill="#F2F2F2" mask="url(#path-2-inside-1_703_189)"/>
<path d="M22 302V296H25V293H28V290H25V287H22V281H28V287H31V290H34V287H37V281H43V287H40V290H37V293H40V296H43V302H37V296H34V293H31V296H28V302H22ZM46 302V281H64V284H67V293H64V296H52V302H46ZM52 293H61V284H52V293ZM73 302V299H70V284H73V281H88V284H91V299H88V302H73ZM76 299H85V284H76V299ZM94 302V281H100V290H109V281H115V302H109V293H100V302H94ZM121 302V299H118V284H121V281H136V284H139V299H136V302H121ZM124 299H133V284H124V299ZM142 302V281H148V284H151V287H154V284H157V281H163V302H157V290H154V296H151V290H148V302H142ZM166 302V281H187V284H172V290H184V293H172V299H187V302H166ZM199 302V284H193V281H211V284H205V302H199ZM214 302V281H232V284H235V293H232V296H220V302H214ZM220 293H229V284H220V293Z" fill="#F2F2F2"/>
<path d="M83.9994 119L58.9994 119L58.9994 169.234C62.9522 174.934 67.6002 180.171 72.8663 184.813C76.3647 187.897 80.0895 190.677 83.9994 193.137L83.9994 119Z" fill="#F2F2F2"/>
<path d="M141.999 105L116.999 105L116.999 205.416C118.831 205.695 120.675 205.915 122.529 206.076C129.056 206.643 135.586 206.462 141.999 205.563L141.999 105Z" fill="#F2F2F2"/>
<path d="M170.999 156L145.999 156L145.999 204.906C154.703 203.266 163.139 200.29 170.999 196.052L170.999 156Z" fill="#F2F2F2"/>
<path d="M88.9995 69.9999L112 69.9999L112 203.482C103.947 201.745 96.2012 198.856 88.9995 194.914L88.9995 69.9999Z" stroke="#F2F2F2" stroke-width="2"/>
<path d="M216.73 155.197C217.958 155.695 218.553 157.097 218.024 158.312C210.168 176.36 196.945 191.577 180.125 201.875C162.622 212.591 142.145 217.415 121.699 215.641C101.253 213.866 81.9136 205.586 66.5183 192.015C51.123 178.444 40.482 160.296 36.1564 140.234C31.8308 120.172 34.0482 99.252 42.4834 80.5427C50.9186 61.8334 65.1276 46.3198 83.0258 36.2776C100.924 26.2355 121.569 22.1935 141.933 24.7446C161.502 27.1962 179.821 35.6123 194.416 48.8199C195.398 49.7093 195.434 51.231 194.521 52.1913V52.1913C193.607 53.1515 192.09 53.1865 191.106 52.2984C177.256 39.7975 159.887 31.8314 141.336 29.5074C121.991 27.0839 102.378 30.9238 85.3745 40.4638C68.3712 50.0038 54.8727 64.7418 46.8592 82.5156C38.8458 100.289 36.7392 120.164 40.8486 139.222C44.9579 158.281 55.0668 175.521 69.6924 188.414C84.3179 201.306 102.69 209.173 122.114 210.858C141.538 212.544 160.991 207.961 177.619 197.781C193.564 188.019 206.106 173.604 213.574 156.507C214.105 155.292 215.502 154.699 216.73 155.197V155.197Z" fill="#F2F2F2"/>
<path d="M196.435 51.9015C196.521 53.2795 195.474 54.4664 194.096 54.5524L171.639 55.9543C170.261 56.0403 169.074 54.9929 168.988 53.6149C168.902 52.2369 169.95 51.05 171.328 50.964L191.289 49.7179L190.043 29.7567C189.957 28.3787 191.004 27.1918 192.382 27.1058C193.76 27.0198 194.947 28.0672 195.033 29.4452L196.435 51.9015ZM191.066 46.1867L195.594 50.1828L192.286 53.9317L187.757 49.9357L191.066 46.1867Z" fill="#F2F2F2"/>
<path d="M176.109 191.882L176.001 120L199 120L199 170.321C192.802 178.819 185.054 186.144 176.109 191.882Z" stroke="#F2F2F2" stroke-width="2"/>
</g>
<defs>
<clipPath id="clip0_703_189">
<rect width="260" height="346.66" rx="10" fill="white"/>
</clipPath>
</defs>
</svg>
