<svg width="245" height="319" viewBox="0 0 245 319" fill="none" xmlns="http://www.w3.org/2000/svg">
<path d="M192.482 157.179C173.132 163.25 149.987 159.077 135.569 144.279C151.884 149.97 169.337 145.417 184.135 135.553C184.894 134.794 185.273 134.035 186.032 133.655C191.723 130.241 195.897 125.308 198.932 119.617C202.726 112.029 205.003 101.405 197.794 95.3342C195.138 94.9547 192.482 96.093 190.964 98.3695C183.755 110.131 175.787 119.996 163.646 126.067C163.267 126.447 162.508 126.067 162.128 126.447C155.299 130.241 147.331 131.379 139.743 131.758C147.71 127.964 153.781 122.273 158.714 115.064C167.44 101.025 171.993 85.0898 167.44 69.1543C165.164 61.5659 159.472 53.9775 151.125 53.2187C147.71 52.8392 145.813 56.6334 146.572 60.0482C149.228 71.4308 150.746 81.6751 148.469 93.0576C146.193 103.302 141.64 112.787 134.051 119.617C136.328 113.167 136.707 106.337 136.328 99.5078C136.328 97.9901 135.569 96.4724 135.19 94.5753C131.016 75.225 118.116 53.9775 96.8683 53.2187C92.6947 52.8392 86.624 53.2187 85.1064 58.5305C84.7269 60.807 86.2446 62.7041 88.1417 64.2218C97.6272 70.2925 105.595 75.9838 112.045 85.0898C118.495 94.5753 121.531 104.44 121.531 115.443C117.357 107.096 111.286 100.646 103.318 95.7136C95.7301 91.1605 88.1417 88.1252 79.7945 87.3664C72.5855 86.2281 65.756 85.4693 58.9265 87.7458C51.3381 90.7811 42.232 96.4724 42.9909 105.958C46.0262 110.511 52.0969 108.234 56.6499 107.096C58.9265 106.717 61.203 106.337 63.4795 105.958C71.4473 104.82 79.4151 105.578 87.3829 107.855C95.7301 110.511 103.318 115.064 109.769 121.135C86.624 113.546 60.8236 123.791 47.1645 144.279C41.8526 151.868 39.9555 163.63 47.5439 170.08C52.4763 170.459 55.1323 165.527 57.4088 161.732C63.4795 152.247 71.4473 144.659 81.3122 139.347C81.6916 138.967 82.4504 139.347 82.8298 138.967C86.624 137.07 90.0388 135.932 94.2124 134.794C94.5918 134.794 95.3507 134.794 95.7301 134.794C98.7654 133.655 102.18 133.655 105.216 133.655C96.8683 137.829 90.4182 143.9 85.4858 151.868C77.518 165.906 72.965 182.601 78.6562 198.157C80.9328 205.366 88.1417 214.472 96.4889 211.436C99.1449 210.298 98.7654 206.504 98.0066 203.848C96.4889 197.018 95.3507 190.568 95.7301 184.118C95.7301 181.083 95.7301 178.427 96.1095 175.392C96.8683 171.218 98.0066 167.803 99.1449 163.63C99.5243 162.491 100.283 161.732 100.663 160.974C101.042 160.594 100.663 159.835 101.042 159.456C104.077 154.524 106.733 149.591 110.907 145.797C103.698 168.941 113.563 194.742 134.051 208.401C138.984 211.436 144.296 212.954 149.987 212.195C153.781 211.816 158.714 211.816 159.472 207.642C160.99 201.951 154.54 199.674 150.366 197.018C142.019 191.327 135.569 184.877 130.637 176.53C128.74 172.736 127.222 169.321 125.704 165.527C124.187 160.594 123.807 155.282 123.428 149.97C124.945 153.006 126.842 156.041 129.498 158.697C129.878 159.077 129.878 159.835 130.257 160.215C143.157 174.253 161.749 180.324 180.341 178.806C187.929 178.047 194.379 174.633 199.311 168.562C201.209 165.527 203.864 162.112 201.588 158.697C201.209 158.318 200.829 157.938 200.45 157.559C197.794 156.041 195.138 156.8 192.482 157.179Z" fill="black"/>
<rect x="15" y="250" width="215" height="4" fill="black"/>
<path d="M66.9721 288H62.8201L58.8361 281.52L54.8521 288H50.9641L56.6521 279.168L51.3241 270.864H55.3321L59.0281 277.032L62.6521 270.864H66.5641L61.1881 279.36L66.9721 288ZM73.4039 270.864C75.6119 270.864 77.2199 271.344 78.2279 272.304C79.2519 273.248 79.7639 274.552 79.7639 276.216C79.7639 276.968 79.6519 277.688 79.4279 278.376C79.2039 279.048 78.8279 279.656 78.2999 280.2C77.7879 280.728 77.1079 281.144 76.2599 281.448C75.4119 281.752 74.3639 281.904 73.1159 281.904H71.5559V288H67.9319V270.864H73.4039ZM73.2119 273.84H71.5559V278.928H72.7559C73.4439 278.928 74.0359 278.84 74.5319 278.664C75.0279 278.488 75.4119 278.208 75.6839 277.824C75.9559 277.44 76.0919 276.944 76.0919 276.336C76.0919 275.488 75.8599 274.864 75.3959 274.464C74.9319 274.048 74.2039 273.84 73.2119 273.84ZM97.3542 279.408C97.3542 280.736 97.1862 281.944 96.8502 283.032C96.5302 284.104 96.0342 285.032 95.3622 285.816C94.7062 286.6 93.8582 287.2 92.8182 287.616C91.7942 288.032 90.5862 288.24 89.1942 288.24C87.8022 288.24 86.5862 288.032 85.5462 287.616C84.5222 287.184 83.6742 286.584 83.0022 285.816C82.3462 285.032 81.8502 284.096 81.5142 283.008C81.1942 281.92 81.0342 280.712 81.0342 279.384C81.0342 277.608 81.3222 276.064 81.8982 274.752C82.4902 273.44 83.3862 272.424 84.5862 271.704C85.8022 270.968 87.3462 270.6 89.2182 270.6C91.0742 270.6 92.6022 270.968 93.8022 271.704C95.0022 272.424 95.8902 273.448 96.4662 274.776C97.0582 276.088 97.3542 277.632 97.3542 279.408ZM84.8502 279.408C84.8502 280.608 85.0022 281.64 85.3062 282.504C85.6102 283.368 86.0822 284.032 86.7222 284.496C87.3622 284.96 88.1862 285.192 89.1942 285.192C90.2342 285.192 91.0662 284.96 91.6902 284.496C92.3302 284.032 92.7942 283.368 93.0822 282.504C93.3862 281.64 93.5382 280.608 93.5382 279.408C93.5382 277.6 93.2022 276.184 92.5302 275.16C91.8582 274.136 90.7542 273.624 89.2182 273.624C88.1942 273.624 87.3622 273.856 86.7222 274.32C86.0822 274.784 85.6102 275.448 85.3062 276.312C85.0022 277.176 84.8502 278.208 84.8502 279.408ZM113.744 288H110.12V280.608H103.328V288H99.7038V270.864H103.328V277.584H110.12V270.864H113.744V288ZM132.407 279.408C132.407 280.736 132.239 281.944 131.903 283.032C131.583 284.104 131.087 285.032 130.415 285.816C129.759 286.6 128.911 287.2 127.871 287.616C126.847 288.032 125.639 288.24 124.247 288.24C122.855 288.24 121.639 288.032 120.599 287.616C119.575 287.184 118.727 286.584 118.055 285.816C117.399 285.032 116.903 284.096 116.567 283.008C116.247 281.92 116.087 280.712 116.087 279.384C116.087 277.608 116.375 276.064 116.951 274.752C117.543 273.44 118.439 272.424 119.639 271.704C120.855 270.968 122.399 270.6 124.271 270.6C126.127 270.6 127.655 270.968 128.855 271.704C130.055 272.424 130.943 273.448 131.519 274.776C132.111 276.088 132.407 277.632 132.407 279.408ZM119.903 279.408C119.903 280.608 120.055 281.64 120.359 282.504C120.663 283.368 121.135 284.032 121.775 284.496C122.415 284.96 123.239 285.192 124.247 285.192C125.287 285.192 126.119 284.96 126.743 284.496C127.383 284.032 127.847 283.368 128.135 282.504C128.439 281.64 128.591 280.608 128.591 279.408C128.591 277.6 128.255 276.184 127.583 275.16C126.911 274.136 125.807 273.624 124.271 273.624C123.247 273.624 122.415 273.856 121.775 274.32C121.135 274.784 120.663 275.448 120.359 276.312C120.055 277.176 119.903 278.208 119.903 279.408ZM142.005 288L137.877 274.56H137.781C137.797 274.88 137.821 275.36 137.853 276C137.885 276.64 137.917 277.328 137.949 278.064C137.981 278.784 137.997 279.44 137.997 280.032V288H134.757V270.864H139.701L143.757 283.968H143.829L148.125 270.864H153.069V288H149.685V279.888C149.685 279.344 149.693 278.72 149.709 278.016C149.741 277.312 149.765 276.648 149.781 276.024C149.813 275.384 149.837 274.904 149.853 274.584H149.757L145.341 288H142.005ZM166.062 288H156.198V270.864H166.062V273.84H159.822V277.608H165.63V280.584H159.822V285H166.062V288ZM175.027 288H171.403V273.888H166.747V270.864H179.683V273.888H175.027V288ZM186.598 270.864C188.806 270.864 190.414 271.344 191.422 272.304C192.446 273.248 192.958 274.552 192.958 276.216C192.958 276.968 192.846 277.688 192.622 278.376C192.398 279.048 192.022 279.656 191.494 280.2C190.982 280.728 190.302 281.144 189.454 281.448C188.606 281.752 187.558 281.904 186.31 281.904H184.75V288H181.126V270.864H186.598ZM186.406 273.84H184.75V278.928H185.95C186.638 278.928 187.23 278.84 187.726 278.664C188.222 278.488 188.606 278.208 188.878 277.824C189.15 277.44 189.286 276.944 189.286 276.336C189.286 275.488 189.054 274.864 188.59 274.464C188.126 274.048 187.398 273.84 186.406 273.84Z" fill="black"/>
</svg>
