<svg width="260" height="347" viewBox="0 0 260 347" fill="none" xmlns="http://www.w3.org/2000/svg">
<g clip-path="url(#clip0_738_39)">
<rect width="260" height="346.66" fill="#8080FF"/>
<mask id="path-1-inside-1_738_39" fill="white">
<path d="M0 239H260V347H0V239Z"/>
</mask>
<path d="M0 242H260V236H0V242Z" fill="#17191D" mask="url(#path-1-inside-1_738_39)"/>
<path d="M72.5 293V290.5H60V273H65V288H70V273H75V288H77.5V293H72.5ZM80 290.5V273H95V275.5H97.5V280.5H95V283H97.5V288H95V290.5H80ZM85 280.5H92.5V275.5H85V280.5ZM85 288H92.5V283H85V288ZM100 290.5V273H117.5V275.5H105V280.5H115V283H105V288H117.5V290.5H100ZM127.5 290.5V275.5H122.5V273H137.5V275.5H132.5V290.5H127.5ZM140 290.5V273H145V280.5H152.5V273H157.5V290.5H152.5V283H145V290.5H140ZM162.5 290.5V288H160V275.5H162.5V273H175V275.5H177.5V288H175V290.5H162.5ZM165 288H172.5V275.5H165V288ZM180 290.5V273H197.5V275.5H185V280.5H195V283H185V288H197.5V290.5H180ZM32.5 310.5V308H30V305.5H35V308H42.5V303H35V300.5H42.5V295.5H35V298H30V295.5H32.5V293H45V295.5H47.5V300.5H45V303H47.5V308H45V310.5H32.5ZM50 310.5V298H52.5V295.5H55V293H62.5V295.5H65V298H67.5V310.5H62.5V305.5H55V310.5H50ZM55 303H62.5V298H60V295.5H57.5V298H55V303ZM70 310.5V293H85V295.5H87.5V300.5H85V303H87.5V308H85V310.5H70ZM75 300.5H82.5V295.5H75V300.5ZM75 308H82.5V303H75V308ZM92.5 310.5V308H90V295.5H92.5V293H105V295.5H107.5V308H105V310.5H92.5ZM95 308H102.5V295.5H95V308ZM110 310.5V293H127.5V295.5H115V300.5H125V303H115V308H127.5V310.5H110ZM130 310.5V293H145V295.5H147.5V300.5H145V303H147.5V308H145V310.5H130ZM135 300.5H142.5V295.5H135V300.5ZM135 308H142.5V303H135V308ZM150 310.5V298H152.5V295.5H155V293H162.5V295.5H165V298H167.5V310.5H162.5V305.5H155V310.5H150ZM155 303H162.5V298H160V295.5H157.5V298H155V303ZM170 310.5V293H175V300.5H182.5V293H187.5V310.5H182.5V303H175V310.5H170ZM190 310.5V293H195V303H197.5V300.5H200V298H202.5V293H207.5V310.5H202.5V303H200V305.5H197.5V308H195V310.5H190ZM210 310.5V293H227.5V295.5H215V300.5H225V303H215V308H227.5V310.5H210Z" fill="#17191D"/>
<path d="M25.9985 119.637L130.137 15.4985L234.276 119.637L167.066 186.459L141.61 161.003L182.621 119.99L129.941 67.3108L78.3225 118.93L156.653 197.26L130.137 223.776L25.9985 119.637Z" fill="#17191D"/>
<path fill-rule="evenodd" clip-rule="evenodd" d="M132.418 151.81L99.1841 118.576L135.021 82.7397L141.031 88.7501L143.854 91.5729L168.255 115.974L132.418 151.81ZM132.418 121.5L136.315 117.603L129.208 110.495L125.31 114.392L132.418 121.5ZM144.928 108.103L141.031 112L133.924 104.892L137.821 100.995L144.928 108.103Z" fill="#17191D"/>
</g>
<defs>
<clipPath id="clip0_738_39">
<rect width="260" height="346.66" fill="white"/>
</clipPath>
</defs>
</svg>
