<svg width="260" height="347" viewBox="0 0 260 347" fill="none" xmlns="http://www.w3.org/2000/svg">
<g clip-path="url(#clip0_738_57)">
<mask id="path-2-inside-1_738_57" fill="white">
<path d="M0 239H260V347H0V239Z"/>
</mask>
<path d="M0 242H260V236H0V242Z" fill="#17191D" mask="url(#path-2-inside-1_738_57)"/>
<path d="M72.5 289V286.5H60V269H65V284H70V269H75V284H77.5V289H72.5ZM80 286.5V269H95V271.5H97.5V276.5H95V279H97.5V284H95V286.5H80ZM85 276.5H92.5V271.5H85V276.5ZM85 284H92.5V279H85V284ZM100 286.5V269H117.5V271.5H105V276.5H115V279H105V284H117.5V286.5H100ZM127.5 286.5V271.5H122.5V269H137.5V271.5H132.5V286.5H127.5ZM140 286.5V269H145V276.5H152.5V269H157.5V286.5H152.5V279H145V286.5H140ZM162.5 286.5V284H160V271.5H162.5V269H175V271.5H177.5V284H175V286.5H162.5ZM165 284H172.5V271.5H165V284ZM180 286.5V269H197.5V271.5H185V276.5H195V279H185V284H197.5V286.5H180ZM32.5 306.5V304H30V301.5H35V304H42.5V299H35V296.5H42.5V291.5H35V294H30V291.5H32.5V289H45V291.5H47.5V296.5H45V299H47.5V304H45V306.5H32.5ZM50 306.5V294H52.5V291.5H55V289H62.5V291.5H65V294H67.5V306.5H62.5V301.5H55V306.5H50ZM55 299H62.5V294H60V291.5H57.5V294H55V299ZM70 306.5V289H85V291.5H87.5V296.5H85V299H87.5V304H85V306.5H70ZM75 296.5H82.5V291.5H75V296.5ZM75 304H82.5V299H75V304ZM92.5 306.5V304H90V291.5H92.5V289H105V291.5H107.5V304H105V306.5H92.5ZM95 304H102.5V291.5H95V304ZM110 306.5V289H127.5V291.5H115V296.5H125V299H115V304H127.5V306.5H110ZM130 306.5V289H145V291.5H147.5V296.5H145V299H147.5V304H145V306.5H130ZM135 296.5H142.5V291.5H135V296.5ZM135 304H142.5V299H135V304ZM150 306.5V294H152.5V291.5H155V289H162.5V291.5H165V294H167.5V306.5H162.5V301.5H155V306.5H150ZM155 299H162.5V294H160V291.5H157.5V294H155V299ZM170 306.5V289H175V296.5H182.5V289H187.5V306.5H182.5V299H175V306.5H170ZM190 306.5V289H195V299H197.5V296.5H200V294H202.5V289H207.5V306.5H202.5V299H200V301.5H197.5V304H195V306.5H190ZM210 306.5V289H227.5V291.5H215V296.5H225V299H215V304H227.5V306.5H210Z" fill="#17191D"/>
<path d="M25.9985 119.637L130.137 15.4985L234.276 119.637L167.066 186.459L141.61 161.003L182.621 119.99L129.941 67.3108L78.3225 118.93L156.653 197.26L130.137 223.776L25.9985 119.637Z" fill="#17191D"/>
<path fill-rule="evenodd" clip-rule="evenodd" d="M132.418 151.81L99.1841 118.576L135.021 82.7397L141.031 88.7501L143.854 91.5729L168.255 115.974L132.418 151.81ZM132.418 121.5L136.315 117.603L129.208 110.495L125.31 114.392L132.418 121.5ZM144.928 108.103L141.031 112L133.924 104.892L137.821 100.995L144.928 108.103Z" fill="#17191D"/>
<g filter="url(#filter0_d_738_57)">
<rect x="10" y="10" width="70" height="20" fill="#17191D" shape-rendering="crispEdges"/>
<rect x="10.5" y="10.5" width="69" height="19" stroke="#17191D" shape-rendering="crispEdges"/>
<path d="M15 23.75V15H17.5V18.75H21.25V15H23.75V23.75H21.25V20H17.5V23.75H15ZM26.25 23.75V22.5H25V16.25H26.25V15H32.5V16.25H33.75V22.5H32.5V23.75H26.25ZM27.5 22.5H31.25V16.25H27.5V22.5ZM35 23.75V15H42.5V16.25H43.75V18.75H42.5V20H43.75V22.5H42.5V23.75H35ZM37.5 18.75H41.25V16.25H37.5V18.75ZM37.5 22.5H41.25V20H37.5V22.5ZM45 23.75V15H47.5V17.5H50V23.75H45ZM51.25 23.75V15H53.75V23.75H51.25ZM47.5 22.5H48.75V18.75H47.5V22.5ZM56.25 16.25V15H62.5V16.25H56.25ZM55 23.75V17.5H57.5V21.25H58.75V20H60V18.75H61.25V17.5H63.75V23.75H61.25V21.25H60V22.5H58.75V23.75H55ZM67.5 21.25V15H71.25V18.75H70V21.25H67.5ZM67.5 23.75V22.5H70V23.75H67.5Z" fill="#00BDA6"/>
</g>
</g>
<defs>
<filter id="filter0_d_738_57" x="10" y="10" width="71" height="21" filterUnits="userSpaceOnUse" color-interpolation-filters="sRGB">
<feFlood flood-opacity="0" result="BackgroundImageFix"/>
<feColorMatrix in="SourceAlpha" type="matrix" values="0 0 0 0 0 0 0 0 0 0 0 0 0 0 0 0 0 0 127 0" result="hardAlpha"/>
<feOffset dx="1" dy="1"/>
<feComposite in2="hardAlpha" operator="out"/>
<feColorMatrix type="matrix" values="0 0 0 0 0.0901961 0 0 0 0 0.0980392 0 0 0 0 0.113725 0 0 0 1 0"/>
<feBlend mode="normal" in2="BackgroundImageFix" result="effect1_dropShadow_738_57"/>
<feBlend mode="normal" in="SourceGraphic" in2="effect1_dropShadow_738_57" result="shape"/>
</filter>
<clipPath id="clip0_738_57">
<rect width="260" height="346.66" rx="10" fill="white"/>
</clipPath>
</defs>
</svg>
