<svg width="245" height="319" viewBox="0 0 245 319" fill="none" xmlns="http://www.w3.org/2000/svg">
<path d="M108.018 132.511L122.52 118.009L105.508 101.037L122.52 84.0249L91.2052 52.75L42.9183 101.037L74.6713 132.75L91.4841 115.937L108.018 132.511Z" fill="black"/>
<path d="M122.52 118.009L137.261 132.75L154.074 115.937L170.608 132.511L202.082 101.037L153.795 52.75L122.52 84.0249L139.492 101.037L122.52 118.009Z" fill="black"/>
<path d="M170.329 132.75L153.516 149.563L136.982 132.989L122.48 147.491L139.492 164.463L122.48 181.475L153.795 212.75L202.082 164.463L170.329 132.75Z" fill="black"/>
<path d="M122.48 147.491L107.739 132.75L90.9263 149.563L74.3924 132.989L42.9183 164.463L91.2052 212.75L122.48 181.475L105.468 164.463L122.48 147.491Z" fill="black"/>
<rect x="15" y="250" width="215" height="4" fill="black"/>
<path d="M45.1788 285.12V292.992H41.6748V288H29.0748V270.864H32.6988V284.976H39.0108V270.864H42.6348V285.12H45.1788ZM51.9528 270.864C53.4728 270.864 54.7448 271.008 55.7688 271.296C56.8088 271.568 57.5848 272.024 58.0968 272.664C58.6248 273.288 58.8888 274.136 58.8888 275.208C58.8888 275.848 58.7848 276.432 58.5768 276.96C58.3688 277.488 58.0648 277.92 57.6648 278.256C57.2808 278.592 56.8088 278.808 56.2488 278.904V279.024C56.8248 279.136 57.3448 279.336 57.8088 279.624C58.2728 279.912 58.6408 280.328 58.9128 280.872C59.1848 281.416 59.3208 282.136 59.3208 283.032C59.3208 284.072 59.0648 284.968 58.5528 285.72C58.0568 286.456 57.3368 287.024 56.3928 287.424C55.4488 287.808 54.3288 288 53.0328 288H46.6248V270.864H51.9528ZM52.3608 277.656C53.4168 277.656 54.1448 277.488 54.5448 277.152C54.9608 276.816 55.1688 276.328 55.1688 275.688C55.1688 275.032 54.9288 274.56 54.4488 274.272C53.9688 273.984 53.2088 273.84 52.1688 273.84H50.2488V277.656H52.3608ZM50.2488 280.536V285H52.6248C53.7128 285 54.4728 284.792 54.9048 284.376C55.3368 283.944 55.5528 283.376 55.5528 282.672C55.5528 282.24 55.4568 281.864 55.2648 281.544C55.0888 281.224 54.7768 280.976 54.3288 280.8C53.8808 280.624 53.2728 280.536 52.5048 280.536H50.2488ZM71.4138 288H61.5498V270.864H71.4138V273.84H65.1738V277.608H70.9818V280.584H65.1738V285H71.4138V288ZM80.3795 288H76.7555V273.888H72.0995V270.864H85.0355V273.888H80.3795V288ZM100.518 288H96.894V280.608H90.102V288H86.478V270.864H90.102V277.584H96.894V270.864H100.518V288ZM114.118 288L112.87 283.92H106.63L105.382 288H101.47L107.518 270.792H111.958L118.03 288H114.118ZM110.758 276.888C110.678 276.616 110.574 276.272 110.446 275.856C110.318 275.44 110.19 275.016 110.062 274.584C109.934 274.152 109.83 273.776 109.75 273.456C109.67 273.776 109.558 274.176 109.414 274.656C109.286 275.12 109.158 275.568 109.03 276C108.918 276.416 108.83 276.712 108.766 276.888L107.542 280.872H112.006L110.758 276.888ZM124.76 281.424L120.752 288H116.72L121.592 280.464C121.128 280.272 120.664 279.992 120.2 279.624C119.736 279.24 119.352 278.736 119.048 278.112C118.744 277.472 118.592 276.688 118.592 275.76C118.592 274.176 119.16 272.968 120.296 272.136C121.432 271.288 123.024 270.864 125.072 270.864H130.64V288H127.016V281.424H124.76ZM125.216 273.84C124.592 273.84 124.056 273.912 123.608 274.056C123.176 274.2 122.84 274.432 122.6 274.752C122.376 275.072 122.264 275.496 122.264 276.024C122.264 276.776 122.512 277.376 123.008 277.824C123.52 278.256 124.288 278.472 125.312 278.472H127.016V273.84H125.216ZM143.389 288V270.864H154.213V273.864H147.013V277.44H148.453C150.069 277.44 151.389 277.664 152.413 278.112C153.453 278.56 154.221 279.176 154.717 279.96C155.213 280.744 155.461 281.64 155.461 282.648C155.461 283.768 155.213 284.728 154.717 285.528C154.221 286.328 153.453 286.944 152.413 287.376C151.373 287.792 150.029 288 148.381 288H143.389ZM148.237 285.024C149.341 285.024 150.205 284.848 150.829 284.496C151.469 284.144 151.789 283.528 151.789 282.648C151.789 282.04 151.629 281.576 151.309 281.256C151.005 280.936 150.565 280.72 149.989 280.608C149.429 280.48 148.749 280.416 147.949 280.416H147.013V285.024H148.237ZM157.494 270.864H160.758V279.144C160.758 279.544 160.75 279.992 160.734 280.488C160.718 280.984 160.702 281.472 160.686 281.952C160.67 282.416 160.654 282.824 160.638 283.176C160.622 283.512 160.606 283.744 160.59 283.872H160.662L168.582 270.864H172.926V288H169.686V279.768C169.686 279.336 169.694 278.864 169.71 278.352C169.726 277.824 169.742 277.32 169.758 276.84C169.79 276.36 169.814 275.944 169.83 275.592C169.862 275.224 169.886 274.984 169.902 274.872H169.806L161.862 288H157.494V270.864ZM182.651 288H179.027V273.888H174.371V270.864H187.307V273.888H182.651V288ZM194.078 270.864C195.598 270.864 196.87 271.008 197.894 271.296C198.934 271.568 199.71 272.024 200.222 272.664C200.75 273.288 201.014 274.136 201.014 275.208C201.014 275.848 200.91 276.432 200.702 276.96C200.494 277.488 200.19 277.92 199.79 278.256C199.406 278.592 198.934 278.808 198.374 278.904V279.024C198.95 279.136 199.47 279.336 199.934 279.624C200.398 279.912 200.766 280.328 201.038 280.872C201.31 281.416 201.446 282.136 201.446 283.032C201.446 284.072 201.19 284.968 200.678 285.72C200.182 286.456 199.462 287.024 198.518 287.424C197.574 287.808 196.454 288 195.158 288H188.75V270.864H194.078ZM194.486 277.656C195.542 277.656 196.27 277.488 196.67 277.152C197.086 276.816 197.294 276.328 197.294 275.688C197.294 275.032 197.054 274.56 196.574 274.272C196.094 273.984 195.334 273.84 194.294 273.84H192.374V277.656H194.486ZM192.374 280.536V285H194.75C195.838 285 196.598 284.792 197.03 284.376C197.462 283.944 197.678 283.376 197.678 282.672C197.678 282.24 197.582 281.864 197.39 281.544C197.214 281.224 196.902 280.976 196.454 280.8C196.006 280.624 195.398 280.536 194.63 280.536H192.374ZM214.163 288L212.915 283.92H206.675L205.427 288H201.515L207.563 270.792H212.003L218.075 288H214.163ZM210.803 276.888C210.723 276.616 210.619 276.272 210.491 275.856C210.363 275.44 210.235 275.016 210.107 274.584C209.979 274.152 209.875 273.776 209.795 273.456C209.715 273.776 209.603 274.176 209.459 274.656C209.331 275.12 209.203 275.568 209.075 276C208.963 276.416 208.875 276.712 208.811 276.888L207.587 280.872H212.051L210.803 276.888Z" fill="black"/>
</svg>
