<svg width="245" height="319" viewBox="0 0 245 319" fill="none" xmlns="http://www.w3.org/2000/svg">
<path d="M202.5 135.505V120.995L136.304 126.995C136.265 126.603 136.225 126.25 136.147 125.897L201.637 114.564L197.873 100.564L135.48 123.505C135.363 123.152 135.206 122.799 135.049 122.485L195.402 94.5245L188.147 81.9755L133.833 120.289C133.598 119.975 133.402 119.701 133.167 119.387L184.225 76.8382L173.951 66.5637L131.363 117.623C131.088 117.387 130.775 117.152 130.461 116.956L168.775 62.6029L156.225 55.348L128.343 115.662C127.99 115.505 127.676 115.348 127.324 115.23L150.265 52.8382L136.265 49.0735L124.931 114.564C124.578 114.485 124.186 114.446 123.833 114.407L129.755 48.25H115.245L121.245 114.446C120.853 114.485 120.5 114.525 120.147 114.603L108.814 49.1127L94.8137 52.8775L117.755 115.27C117.402 115.387 117.049 115.544 116.735 115.701L88.7745 55.348L76.2255 62.6029L114.539 116.917C114.225 117.152 113.951 117.348 113.637 117.583L71.049 66.5637L60.7745 76.8382L111.833 119.387C111.598 119.662 111.363 119.975 111.167 120.289L56.8529 81.9755L49.598 94.5245L109.912 122.407C109.755 122.76 109.598 123.074 109.48 123.426L47.1275 100.525L43.3627 114.525L108.853 125.858C108.775 126.211 108.735 126.603 108.696 126.956L42.5 120.995V135.505L108.696 129.505C108.735 129.897 108.775 130.25 108.853 130.603L43.3627 141.936L47.1275 155.936L109.52 132.995C109.637 133.348 109.794 133.701 109.951 134.015L49.598 161.975L56.8529 174.525L111.167 136.211C111.402 136.525 111.598 136.799 111.833 137.113L60.8137 179.701L71.0882 189.975L113.637 138.917C113.912 139.152 114.225 139.387 114.539 139.583L76.2255 193.897L88.7745 201.152L116.657 140.838C117.01 140.995 117.324 141.152 117.676 141.27L94.7353 203.662L108.735 207.426L120.069 141.936C120.422 142.015 120.814 142.054 121.167 142.093L115.245 208.25H129.755L123.755 142.054C124.147 142.015 124.5 141.975 124.853 141.897L136.186 207.387L150.186 203.623L127.245 141.23C127.598 141.113 127.951 140.956 128.265 140.799L156.225 201.152L168.775 193.897L130.461 139.583C130.775 139.348 131.049 139.152 131.363 138.917L173.912 189.975L184.186 179.701L133.127 137.113C133.363 136.838 133.598 136.525 133.794 136.211L188.147 174.525L195.402 161.975L135.088 134.093C135.245 133.74 135.402 133.426 135.52 133.074L197.912 156.015L201.676 142.015L136.186 130.681C136.265 130.328 136.304 129.936 136.343 129.583L202.5 135.505Z" fill="black"/>
<rect x="15" y="251" width="215" height="3" fill="black"/>
<path d="M67.709 270.624V272.736C69.581 272.784 71.069 273.112 72.173 273.72C73.293 274.312 74.093 275.08 74.573 276.024C75.069 276.968 75.317 278 75.317 279.12C75.317 279.84 75.189 280.576 74.933 281.328C74.693 282.08 74.277 282.776 73.685 283.416C73.109 284.04 72.333 284.552 71.357 284.952C70.381 285.352 69.165 285.568 67.709 285.6V288.24H64.445V285.6C62.973 285.568 61.741 285.352 60.749 284.952C59.773 284.552 58.997 284.032 58.421 283.392C57.845 282.752 57.437 282.064 57.197 281.328C56.957 280.576 56.837 279.84 56.837 279.12C56.837 278.288 56.973 277.496 57.245 276.744C57.517 275.992 57.949 275.32 58.541 274.728C59.133 274.136 59.917 273.664 60.893 273.312C61.869 272.96 63.053 272.768 64.445 272.736V270.624H67.709ZM64.445 275.568C63.405 275.616 62.573 275.8 61.949 276.12C61.341 276.424 60.901 276.832 60.629 277.344C60.373 277.856 60.245 278.44 60.245 279.096C60.245 279.816 60.389 280.448 60.677 280.992C60.981 281.52 61.437 281.944 62.045 282.264C62.669 282.568 63.469 282.744 64.445 282.792V275.568ZM67.709 282.792C68.685 282.744 69.477 282.568 70.085 282.264C70.709 281.944 71.165 281.52 71.453 280.992C71.757 280.448 71.909 279.816 71.909 279.096C71.909 278.44 71.773 277.856 71.501 277.344C71.245 276.832 70.805 276.424 70.181 276.12C69.573 275.8 68.749 275.616 67.709 275.568V282.792ZM87.2295 288H77.3655V270.864H87.2295V273.84H80.9895V277.608H86.7975V280.584H80.9895V285H87.2295V288ZM103.395 265.224C103.315 266.056 103.083 266.792 102.699 267.432C102.315 268.056 101.715 268.544 100.899 268.896C100.083 269.248 98.9872 269.424 97.6112 269.424C96.2032 269.424 95.0992 269.256 94.2992 268.92C93.5152 268.568 92.9552 268.08 92.6192 267.456C92.2832 266.832 92.0832 266.088 92.0192 265.224H95.2112C95.2912 266.104 95.5152 266.688 95.8832 266.976C96.2512 267.264 96.8512 267.408 97.6832 267.408C98.3712 267.408 98.9312 267.256 99.3632 266.952C99.8112 266.632 100.075 266.056 100.155 265.224H103.395ZM89.5952 270.864H92.8592V279.144C92.8592 279.544 92.8512 279.992 92.8352 280.488C92.8192 280.984 92.8032 281.472 92.7872 281.952C92.7712 282.416 92.7552 282.824 92.7392 283.176C92.7232 283.512 92.7072 283.744 92.6912 283.872H92.7632L100.683 270.864H105.027V288H101.787V279.768C101.787 279.336 101.795 278.864 101.811 278.352C101.827 277.824 101.843 277.32 101.859 276.84C101.891 276.36 101.915 275.944 101.931 275.592C101.963 275.224 101.987 274.984 102.003 274.872H101.907L93.9632 288H89.5952V270.864ZM118.017 288H108.153V270.864H118.017V273.84H111.777V277.608H117.585V280.584H111.777V285H118.017V288ZM125.855 270.864C128.063 270.864 129.671 271.344 130.679 272.304C131.703 273.248 132.215 274.552 132.215 276.216C132.215 276.968 132.103 277.688 131.879 278.376C131.655 279.048 131.279 279.656 130.751 280.2C130.239 280.728 129.559 281.144 128.711 281.448C127.863 281.752 126.815 281.904 125.567 281.904H124.007V288H120.383V270.864H125.855ZM125.663 273.84H124.007V278.928H125.207C125.895 278.928 126.487 278.84 126.983 278.664C127.479 278.488 127.863 278.208 128.135 277.824C128.407 277.44 128.543 276.944 128.543 276.336C128.543 275.488 128.311 274.864 127.847 274.464C127.383 274.048 126.655 273.84 125.663 273.84ZM139.581 270.864C141.101 270.864 142.373 271.008 143.397 271.296C144.437 271.568 145.213 272.024 145.725 272.664C146.253 273.288 146.517 274.136 146.517 275.208C146.517 275.848 146.413 276.432 146.205 276.96C145.997 277.488 145.693 277.92 145.293 278.256C144.909 278.592 144.437 278.808 143.877 278.904V279.024C144.453 279.136 144.973 279.336 145.437 279.624C145.901 279.912 146.269 280.328 146.541 280.872C146.813 281.416 146.949 282.136 146.949 283.032C146.949 284.072 146.693 284.968 146.181 285.72C145.685 286.456 144.965 287.024 144.021 287.424C143.077 287.808 141.957 288 140.661 288H134.253V270.864H139.581ZM139.989 277.656C141.045 277.656 141.773 277.488 142.173 277.152C142.589 276.816 142.797 276.328 142.797 275.688C142.797 275.032 142.557 274.56 142.077 274.272C141.597 273.984 140.837 273.84 139.797 273.84H137.877V277.656H139.989ZM137.877 280.536V285H140.253C141.341 285 142.101 284.792 142.533 284.376C142.965 283.944 143.181 283.376 143.181 282.672C143.181 282.24 143.085 281.864 142.893 281.544C142.717 281.224 142.405 280.976 141.957 280.8C141.509 280.624 140.901 280.536 140.133 280.536H137.877ZM159.042 288H149.178V270.864H159.042V273.84H152.802V277.608H158.61V280.584H152.802V285H159.042V288ZM166.88 270.864C169.088 270.864 170.696 271.344 171.704 272.304C172.728 273.248 173.24 274.552 173.24 276.216C173.24 276.968 173.128 277.688 172.904 278.376C172.68 279.048 172.304 279.656 171.776 280.2C171.264 280.728 170.584 281.144 169.736 281.448C168.888 281.752 167.84 281.904 166.592 281.904H165.032V288H161.408V270.864H166.88ZM166.688 273.84H165.032V278.928H166.232C166.92 278.928 167.512 278.84 168.008 278.664C168.504 278.488 168.888 278.208 169.16 277.824C169.432 277.44 169.568 276.944 169.568 276.336C169.568 275.488 169.336 274.864 168.872 274.464C168.408 274.048 167.68 273.84 166.688 273.84ZM189.246 288H185.118L178.902 279.312V288H175.278V270.864H178.902V279.168L185.046 270.864H188.91L182.67 279.096L189.246 288Z" fill="black"/>
</svg>
