<svg width="260" height="347" viewBox="0 0 260 347" fill="none" xmlns="http://www.w3.org/2000/svg">
<g clip-path="url(#clip0_435_17)">
<rect width="260" height="346.66" fill="#F4D71B"/>
<mask id="path-1-inside-1_435_17" fill="white">
<path d="M0 239H260V347H0V239Z"/>
</mask>
<path d="M0 239H260V347H0V239Z" fill="#F4D71B"/>
<path d="M0 242H260V236H0V242Z" fill="#252525" mask="url(#path-1-inside-1_435_17)"/>
<path d="M103 290V287H97V284H94V275H97V272H103V269H106V272H112V275H115V284H112V287H106V290H103ZM100 284H103V275H100V284ZM106 284H109V275H106V284ZM118 290V275H121V272H124V269H133V272H136V275H139V290H133V284H124V290H118ZM124 281H133V275H130V272H127V275H124V281ZM142 290V269H148V278H157V269H163V290H157V281H148V290H142ZM79 314V311H73V308H70V299H73V296H79V293H82V296H88V299H91V308H88V311H82V314H79ZM76 308H79V299H76V308ZM82 308H85V299H82V308ZM94 314V299H97V296H100V293H109V296H112V299H115V314H109V308H100V314H94ZM100 305H109V299H106V296H103V299H100V305ZM127 299H130V302H133V305H136V311H139V314H133V311H130V305H124V314H118V293H124V302H127V299ZM139 293V296H136V299H130V296H133V293H139ZM151 314V296H145V293H163V296H157V314H151ZM172 314V311H169V308H166V299H169V296H172V293H184V296H187V299H181V296H175V299H172V308H175V311H181V308H187V311H184V314H172Z" fill="#252525"/>
<path d="M135.236 40.4158C138.32 40.7858 142.914 41.8652 145.567 42.7903C148.774 43.9313 153.985 46.676 157.038 48.8346C160.523 51.3017 166.321 57.0685 168.757 60.5532C173.414 67.1835 177.608 77.7302 178.749 85.7174C179.273 89.3563 178.934 97.436 178.132 100.952C176.158 109.525 172.643 116.186 162.99 129.539C161.356 131.821 159.629 134.319 159.197 135.09C158.025 137.156 156.36 141.442 155.774 143.909C155.065 146.87 154.355 147.918 152.906 148.319C151.148 148.813 108.314 148.751 106.864 148.258C105.538 147.795 105.014 146.839 103.935 142.799C102.825 138.605 100.758 134.812 96.2251 128.459C87.0969 115.723 83.7972 109.401 81.8544 100.89C81.0526 97.436 80.7442 89.3255 81.2376 85.7174C82.3786 77.7302 86.5727 67.1835 91.2293 60.5532C93.6963 57.0685 99.4631 51.3017 103.01 48.773C108.437 44.949 115.499 41.9885 121.975 40.8475C125.244 40.2616 132.152 40.0457 135.236 40.4158Z" fill="#252525"/>
<path d="M150.501 155.412C152.598 156.275 153.554 160.099 152.382 162.906C151.426 165.126 152.814 165.003 129.994 165.003C107.173 165.003 108.561 165.126 107.605 162.906C106.649 160.593 107.173 157.262 108.715 155.905C109.394 155.289 109.887 155.289 129.654 155.227C140.787 155.196 150.162 155.289 150.501 155.412Z" fill="#252525"/>
<path d="M151.21 172.281C153.369 173.761 153.4 179.003 151.272 180.885C150.593 181.501 150.162 181.501 129.993 181.501C109.825 181.501 109.393 181.501 108.715 180.885C107.173 179.528 106.649 176.197 107.605 173.884C108.561 171.664 107.173 171.787 129.993 171.787C148.126 171.787 150.593 171.849 151.21 172.281Z" fill="#252525"/>
<path d="M141.033 188.532C142.791 189.365 143.624 193.59 142.483 195.872C141.373 198.062 141.804 198 129.993 198C120.372 198 119.292 197.938 118.706 197.445C116.27 195.502 116.486 189.673 119.046 188.502C120.125 188.008 139.985 188.008 141.033 188.532Z" fill="#252525"/>
<path d="M106.959 79.1404C100.298 80.1905 95.0964 85.1292 93.915 91.4791L93.6525 92.923H91.5195C89.8131 92.923 89.2716 92.9886 88.8122 93.2183C87.7293 93.7598 87.7293 95.0396 88.8122 95.581C89.2716 95.8108 89.8131 95.8764 91.5195 95.8764H93.6525L93.915 97.3203C94.9815 103.03 99.4117 107.756 105.204 109.298C106.533 109.643 107.14 109.708 109.076 109.708C111.028 109.708 111.619 109.643 112.965 109.282C118.953 107.69 123.498 102.489 124.22 96.3686L124.384 94.9739L125.631 93.7926C128.421 91.1509 130.816 90.9376 133.655 93.087C135.214 94.2684 135.575 94.8099 135.755 96.2045C135.985 98.1078 136.362 99.3056 137.297 101.209C138.889 104.408 141.006 106.525 144.189 108.1C146.666 109.331 148.323 109.725 151.08 109.725C153.754 109.725 155.494 109.331 157.824 108.182C162.713 105.803 165.814 101.225 166.356 95.581L166.471 94.3997H168.751H171.048L171.524 93.9238C171.803 93.6285 172 93.2675 172 93.005C172 92.7425 171.803 92.3815 171.524 92.0862L171.048 91.6103H168.587H166.142L165.88 90.5602C164.157 83.5541 157.463 78.5989 150.342 79.0255C145.534 79.3209 140.973 81.8477 138.331 85.6707C137.626 86.688 136.641 88.739 136.297 89.8875C136.132 90.429 135.952 90.9212 135.903 91.0032C135.837 91.0689 135.312 90.8064 134.705 90.3962C131.473 88.2303 128.224 88.3452 124.877 90.7079L124.122 91.2658L123.679 89.8383C122.071 84.6698 118.002 80.7647 112.85 79.4685C111.324 79.0911 108.37 78.9271 106.959 79.1404Z" fill="#F4D71B"/>
<path d="M155.001 119.909C156.847 120.34 158.016 122.199 157.336 123.969C156.202 126.92 154.514 129.639 152.353 131.976C149.412 135.155 145.696 137.516 141.568 138.827C137.44 140.138 133.042 140.354 128.806 139.454C125.693 138.793 122.745 137.546 120.116 135.79C118.539 134.737 118.421 132.544 119.68 131.127V131.127C120.939 129.709 123.097 129.614 124.726 130.583C126.425 131.594 128.284 132.324 130.232 132.738C133.305 133.391 136.495 133.234 139.489 132.283C142.483 131.332 145.179 129.62 147.312 127.313C148.665 125.851 149.762 124.182 150.566 122.377C151.337 120.644 153.155 119.477 155.001 119.909V119.909Z" fill="#F4D71B"/>
</g>
<defs>
<clipPath id="clip0_435_17">
<rect width="260" height="346.66" fill="white"/>
</clipPath>
</defs>
</svg>
