<svg width="245" height="319" viewBox="0 0 245 319" fill="none" xmlns="http://www.w3.org/2000/svg">
<path d="M69.164 47.7707L42.5 74.4347L69.164 101.099L95.8281 74.4347L69.164 47.7707Z" fill="black"/>
<path d="M122.503 47.75L95.839 74.414L122.503 101.078L149.167 74.414L122.503 47.75Z" fill="black"/>
<path d="M175.815 47.7562L149.151 74.4203L175.815 101.084L202.479 74.4203L175.815 47.7562Z" fill="black"/>
<path d="M69.1847 101.11L42.5207 127.774L69.1847 154.438L95.8487 127.774L69.1847 101.11Z" fill="black"/>
<path d="M122.524 101.089L95.8597 127.753L122.524 154.417L149.188 127.753L122.524 101.089Z" fill="black"/>
<path d="M175.836 101.095L149.172 127.759L175.836 154.423L202.5 127.759L175.836 101.095Z" fill="black"/>
<path d="M69.1785 154.422L42.5145 181.086L69.1785 207.75L95.8425 181.086L69.1785 154.422Z" fill="black"/>
<path d="M122.518 154.401L95.8535 181.065L122.518 207.729L149.182 181.065L122.518 154.401Z" fill="black"/>
<path d="M175.83 154.407L149.166 181.071L175.83 207.736L202.494 181.071L175.83 154.407Z" fill="black"/>
<rect x="15" y="250.5" width="215" height="3" fill="black"/>
<path d="M90.5979 287.5L89.7099 285.196L94.7019 280.564C95.1179 280.196 95.5499 279.796 95.9979 279.364C96.4459 278.932 96.8539 278.5 97.2219 278.068C97.6059 277.62 97.9099 277.188 98.1339 276.772C98.3579 276.356 98.4699 275.972 98.4699 275.62C98.4699 275.284 98.3899 274.988 98.2299 274.732C98.0699 274.476 97.8299 274.276 97.5099 274.132C97.2059 273.988 96.8299 273.916 96.3819 273.916C95.9339 273.916 95.4859 274.004 95.0379 274.18C94.6059 274.356 94.1819 274.644 93.7659 275.044C93.3659 275.428 92.9739 275.932 92.5899 276.556L89.5899 274.828C90.0699 273.98 90.6619 273.212 91.3659 272.524C92.0859 271.836 92.9099 271.3 93.8379 270.916C94.7659 270.516 95.7659 270.316 96.8379 270.316C97.9419 270.316 98.9179 270.524 99.7659 270.94C100.63 271.356 101.302 271.924 101.782 272.644C102.278 273.364 102.526 274.196 102.526 275.14C102.526 275.62 102.446 276.1 102.286 276.58C102.142 277.044 101.918 277.508 101.614 277.972C101.326 278.42 100.99 278.876 100.606 279.34C100.238 279.804 99.8299 280.26 99.3819 280.708C98.9339 281.14 98.4699 281.58 97.9899 282.028L93.6939 285.94L93.5019 283.9H103.27V287.5H90.5979ZM113.335 287.74C111.591 287.74 110.119 287.388 108.919 286.684C107.735 285.964 106.831 284.956 106.207 283.66C105.599 282.364 105.295 280.844 105.295 279.1C105.295 277.34 105.599 275.82 106.207 274.54C106.831 273.244 107.735 272.244 108.919 271.54C110.119 270.82 111.591 270.46 113.335 270.46C115.063 270.46 116.511 270.82 117.679 271.54C118.863 272.244 119.751 273.244 120.343 274.54C120.951 275.82 121.255 277.34 121.255 279.1C121.255 280.844 120.951 282.364 120.343 283.66C119.751 284.956 118.863 285.964 117.679 286.684C116.511 287.388 115.063 287.74 113.335 287.74ZM113.335 284.284C114.615 284.284 115.607 283.836 116.311 282.94C117.015 282.044 117.367 280.764 117.367 279.1C117.367 277.388 117.015 276.076 116.311 275.164C115.607 274.236 114.615 273.772 113.335 273.772C112.023 273.772 110.999 274.236 110.263 275.164C109.527 276.076 109.159 277.388 109.159 279.1C109.159 280.764 109.527 282.044 110.263 282.94C110.999 283.836 112.023 284.284 113.335 284.284ZM131.777 287.5V272.572L134.513 272.524L126.329 282.052L125.873 280.684H139.073V283.948H124.553L122.945 280.9L132.113 270.556H135.713V287.5H131.777ZM147.946 287.572C146.602 287.572 145.402 287.348 144.346 286.9C143.306 286.436 142.482 285.812 141.874 285.028C141.266 284.244 140.962 283.364 140.962 282.388C140.962 281.7 141.074 281.108 141.298 280.612C141.522 280.1 141.834 279.668 142.234 279.316C142.634 278.964 143.082 278.676 143.578 278.452C144.074 278.212 144.586 278.02 145.114 277.876L144.826 279.124C144.458 278.948 144.082 278.74 143.698 278.5C143.33 278.244 142.994 277.948 142.69 277.612C142.402 277.276 142.17 276.9 141.994 276.484C141.818 276.052 141.73 275.588 141.73 275.092C141.73 274.196 142.002 273.404 142.546 272.716C143.106 272.012 143.85 271.46 144.778 271.06C145.722 270.644 146.778 270.436 147.946 270.436C149.098 270.436 150.138 270.644 151.066 271.06C152.01 271.46 152.754 272.012 153.298 272.716C153.858 273.404 154.138 274.196 154.138 275.092C154.138 275.62 154.042 276.1 153.85 276.532C153.674 276.948 153.434 277.324 153.13 277.66C152.842 277.98 152.514 278.268 152.146 278.524C151.778 278.764 151.41 278.964 151.042 279.124L150.826 277.948C151.37 278.076 151.89 278.268 152.386 278.524C152.898 278.764 153.338 279.068 153.706 279.436C154.09 279.804 154.394 280.236 154.618 280.732C154.842 281.212 154.954 281.764 154.954 282.388C154.954 283.364 154.65 284.244 154.042 285.028C153.434 285.812 152.602 286.436 151.546 286.9C150.49 287.348 149.29 287.572 147.946 287.572ZM147.946 284.356C148.554 284.356 149.098 284.268 149.578 284.092C150.058 283.916 150.434 283.668 150.706 283.348C150.978 283.012 151.114 282.636 151.114 282.22C151.114 281.804 150.978 281.436 150.706 281.116C150.434 280.796 150.058 280.548 149.578 280.372C149.114 280.18 148.57 280.084 147.946 280.084C147.338 280.084 146.786 280.18 146.29 280.372C145.81 280.548 145.434 280.796 145.162 281.116C144.89 281.436 144.754 281.804 144.754 282.22C144.754 282.62 144.89 282.988 145.162 283.324C145.434 283.644 145.802 283.9 146.266 284.092C146.746 284.268 147.306 284.356 147.946 284.356ZM147.946 277.036C148.442 277.036 148.89 276.956 149.29 276.796C149.69 276.636 150.002 276.412 150.226 276.124C150.45 275.836 150.562 275.5 150.562 275.116C150.562 274.78 150.45 274.484 150.226 274.228C150.002 273.956 149.69 273.748 149.29 273.604C148.906 273.444 148.458 273.364 147.946 273.364C147.434 273.364 146.97 273.436 146.554 273.58C146.154 273.724 145.842 273.932 145.618 274.204C145.394 274.476 145.282 274.78 145.282 275.116C145.282 275.516 145.394 275.86 145.618 276.148C145.842 276.42 146.154 276.636 146.554 276.796C146.954 276.956 147.418 277.036 147.946 277.036Z" fill="black"/>
</svg>
