<svg width="245" height="319" viewBox="0 0 245 319" fill="none" xmlns="http://www.w3.org/2000/svg">
<path d="M122.5 118.508C161.62 118.508 193.333 102.668 193.333 83.1288C193.333 63.5896 161.62 47.75 122.5 47.75C83.3798 47.75 51.6667 63.5896 51.6667 83.1288C51.6667 102.668 83.3798 118.508 122.5 118.508Z" fill="black"/>
<path d="M122.5 164.114C161.62 164.114 193.333 154.752 193.333 143.205C193.333 131.657 161.62 122.295 122.5 122.295C83.3798 122.295 51.6667 131.657 51.6667 143.205C51.6667 154.752 83.3798 164.114 122.5 164.114Z" fill="black"/>
<path d="M122.5 191.917C161.62 191.917 193.333 186.541 193.333 179.909C193.333 173.277 161.62 167.902 122.5 167.902C83.3798 167.902 51.6667 173.277 51.6667 179.909C51.6667 186.541 83.3798 191.917 122.5 191.917Z" fill="black"/>
<path d="M122.5 207.75C161.62 207.75 193.333 205.054 193.333 201.727C193.333 198.401 161.62 195.705 122.5 195.705C83.3798 195.705 51.6667 198.401 51.6667 201.727C51.6667 205.054 83.3798 207.75 122.5 207.75Z" fill="black"/>
<rect x="15" y="250.5" width="215" height="3" fill="black"/>
<path d="M72.1546 287.5H68.0266L61.8106 278.812V287.5H58.1866V270.364H61.8106V278.668L67.9546 270.364H71.8186L65.5786 278.596L72.1546 287.5ZM78.5836 270.364C80.7916 270.364 82.3996 270.844 83.4076 271.804C84.4316 272.748 84.9436 274.052 84.9436 275.716C84.9436 276.468 84.8316 277.188 84.6076 277.876C84.3836 278.548 84.0076 279.156 83.4796 279.7C82.9676 280.228 82.2876 280.644 81.4396 280.948C80.5916 281.252 79.5436 281.404 78.2956 281.404H76.7356V287.5H73.1116V270.364H78.5836ZM78.3916 273.34H76.7356V278.428H77.9356C78.6236 278.428 79.2156 278.34 79.7116 278.164C80.2076 277.988 80.5916 277.708 80.8636 277.324C81.1356 276.94 81.2716 276.444 81.2716 275.836C81.2716 274.988 81.0396 274.364 80.5756 273.964C80.1116 273.548 79.3836 273.34 78.3916 273.34ZM95.4299 282.484C94.9499 283.572 94.4379 284.516 93.8939 285.316C93.3659 286.1 92.6859 286.7 91.8539 287.116C91.0219 287.532 89.9339 287.74 88.5899 287.74C88.1739 287.74 87.7179 287.708 87.2219 287.644C86.7259 287.58 86.2699 287.492 85.8539 287.38V284.26C86.2379 284.42 86.6619 284.532 87.1259 284.596C87.5899 284.66 88.0219 284.692 88.4219 284.692C88.9499 284.692 89.3739 284.604 89.6939 284.428C90.0299 284.252 90.2939 284.012 90.4859 283.708C90.6939 283.388 90.8619 283.044 90.9899 282.676L85.0619 270.364H88.9019L92.0939 277.78C92.1739 277.94 92.2699 278.148 92.3819 278.404C92.4939 278.66 92.6059 278.924 92.7179 279.196C92.8299 279.468 92.9179 279.708 92.9819 279.916H93.1019C93.1659 279.724 93.2459 279.492 93.3419 279.22C93.4539 278.932 93.5659 278.644 93.6779 278.356C93.8059 278.052 93.9179 277.788 94.0139 277.564L96.9899 270.364H100.734L95.4299 282.484ZM112.52 270.364V273.364H105.32V287.5H101.696V270.364H112.52ZM129.032 278.908C129.032 280.236 128.864 281.444 128.528 282.532C128.208 283.604 127.712 284.532 127.04 285.316C126.384 286.1 125.536 286.7 124.496 287.116C123.472 287.532 122.264 287.74 120.872 287.74C119.48 287.74 118.264 287.532 117.224 287.116C116.2 286.684 115.352 286.084 114.68 285.316C114.024 284.532 113.528 283.596 113.192 282.508C112.872 281.42 112.712 280.212 112.712 278.884C112.712 277.108 113 275.564 113.576 274.252C114.168 272.94 115.064 271.924 116.264 271.204C117.48 270.468 119.024 270.1 120.896 270.1C122.752 270.1 124.28 270.468 125.48 271.204C126.68 271.924 127.568 272.948 128.144 274.276C128.736 275.588 129.032 277.132 129.032 278.908ZM116.528 278.908C116.528 280.108 116.68 281.14 116.984 282.004C117.288 282.868 117.76 283.532 118.4 283.996C119.04 284.46 119.864 284.692 120.872 284.692C121.912 284.692 122.744 284.46 123.368 283.996C124.008 283.532 124.472 282.868 124.76 282.004C125.064 281.14 125.216 280.108 125.216 278.908C125.216 277.1 124.88 275.684 124.208 274.66C123.536 273.636 122.432 273.124 120.896 273.124C119.872 273.124 119.04 273.356 118.4 273.82C117.76 274.284 117.288 274.948 116.984 275.812C116.68 276.676 116.528 277.708 116.528 278.908ZM136.854 270.364C139.062 270.364 140.67 270.844 141.678 271.804C142.702 272.748 143.214 274.052 143.214 275.716C143.214 276.468 143.102 277.188 142.878 277.876C142.654 278.548 142.278 279.156 141.75 279.7C141.238 280.228 140.558 280.644 139.71 280.948C138.862 281.252 137.814 281.404 136.566 281.404H135.006V287.5H131.382V270.364H136.854ZM136.662 273.34H135.006V278.428H136.206C136.894 278.428 137.486 278.34 137.982 278.164C138.478 277.988 138.862 277.708 139.134 277.324C139.406 276.94 139.542 276.444 139.542 275.836C139.542 274.988 139.31 274.364 138.846 273.964C138.382 273.548 137.654 273.34 136.662 273.34ZM160.804 278.908C160.804 280.236 160.636 281.444 160.3 282.532C159.98 283.604 159.484 284.532 158.812 285.316C158.156 286.1 157.308 286.7 156.268 287.116C155.244 287.532 154.036 287.74 152.644 287.74C151.252 287.74 150.036 287.532 148.996 287.116C147.972 286.684 147.124 286.084 146.452 285.316C145.796 284.532 145.3 283.596 144.964 282.508C144.644 281.42 144.484 280.212 144.484 278.884C144.484 277.108 144.772 275.564 145.348 274.252C145.94 272.94 146.836 271.924 148.036 271.204C149.252 270.468 150.796 270.1 152.668 270.1C154.524 270.1 156.052 270.468 157.252 271.204C158.452 271.924 159.34 272.948 159.916 274.276C160.508 275.588 160.804 277.132 160.804 278.908ZM148.3 278.908C148.3 280.108 148.452 281.14 148.756 282.004C149.06 282.868 149.532 283.532 150.172 283.996C150.812 284.46 151.636 284.692 152.644 284.692C153.684 284.692 154.516 284.46 155.14 283.996C155.78 283.532 156.244 282.868 156.532 282.004C156.836 281.14 156.988 280.108 156.988 278.908C156.988 277.1 156.652 275.684 155.98 274.66C155.308 273.636 154.204 273.124 152.668 273.124C151.644 273.124 150.812 273.356 150.172 273.82C149.532 274.284 149.06 274.948 148.756 275.812C148.452 276.676 148.3 277.708 148.3 278.908ZM170.426 273.148C169.738 273.148 169.122 273.284 168.578 273.556C168.05 273.828 167.602 274.22 167.234 274.732C166.866 275.228 166.586 275.836 166.394 276.556C166.218 277.276 166.13 278.084 166.13 278.98C166.13 280.196 166.274 281.236 166.562 282.1C166.866 282.948 167.338 283.596 167.978 284.044C168.618 284.492 169.434 284.716 170.426 284.716C171.13 284.716 171.826 284.636 172.514 284.476C173.218 284.316 173.978 284.092 174.794 283.804V286.852C174.042 287.156 173.298 287.38 172.562 287.524C171.826 287.668 171.002 287.74 170.09 287.74C168.33 287.74 166.874 287.38 165.722 286.66C164.586 285.924 163.746 284.9 163.202 283.588C162.658 282.26 162.386 280.716 162.386 278.956C162.386 277.66 162.562 276.476 162.914 275.404C163.266 274.316 163.778 273.38 164.45 272.596C165.138 271.812 165.978 271.204 166.97 270.772C167.978 270.34 169.13 270.124 170.426 270.124C171.274 270.124 172.122 270.236 172.97 270.46C173.834 270.668 174.658 270.956 175.442 271.324L174.266 274.276C173.626 273.972 172.978 273.708 172.322 273.484C171.682 273.26 171.05 273.148 170.426 273.148ZM183.835 287.5H180.211V273.388H175.555V270.364H188.491V273.388H183.835V287.5Z" fill="black"/>
</svg>
