<svg width="245" height="319" viewBox="0 0 245 319" fill="none" xmlns="http://www.w3.org/2000/svg">
<path d="M197.292 71.1198C185.031 55.6101 154.99 68.3951 130.223 99.694C127.463 103.187 124.913 106.715 122.503 110.348C120.128 106.75 117.543 103.187 114.783 99.694C90.0166 68.3951 60.0102 55.6101 47.7142 71.1198C35.4531 86.6295 45.5484 124.565 70.315 155.829C85.3357 174.797 102.278 186.954 116.041 190.132C118.032 190.726 120.198 191.006 122.503 190.971C124.809 191.006 126.974 190.726 128.965 190.132C142.729 186.954 159.671 174.762 174.691 155.829C199.423 124.53 209.553 86.5946 197.292 71.1198Z" fill="black"/>
<rect x="15" y="250.5" width="215" height="3" fill="black"/>
<path d="M34.6448 287.5H31.0208V280.876C30.0128 281.228 29.0848 281.492 28.2368 281.668C27.4048 281.844 26.5648 281.932 25.7168 281.932C24.1168 281.932 22.8608 281.548 21.9488 280.78C21.0528 279.996 20.6048 278.884 20.6048 277.444V270.364H24.2288V276.412C24.2288 277.244 24.4208 277.868 24.8048 278.284C25.1888 278.7 25.8368 278.908 26.7488 278.908C27.4208 278.908 28.0928 278.836 28.7648 278.692C29.4368 278.548 30.1888 278.332 31.0208 278.044V270.364H34.6448V287.5ZM47.6177 287.5H37.7537V270.364H47.6177V273.34H41.3777V277.108H47.1857V280.084H41.3777V284.5H47.6177V287.5ZM63.9514 287.5H59.8234L53.6074 278.812V287.5H49.9834V270.364H53.6074V278.668L59.7514 270.364H63.6154L57.3754 278.596L63.9514 287.5ZM78.4684 287.5H74.8444V273.388H70.6444C70.5484 274.124 70.4444 274.924 70.3324 275.788C70.2364 276.652 70.1244 277.532 69.9964 278.428C69.8844 279.308 69.7644 280.148 69.6364 280.948C69.5084 281.732 69.3804 282.428 69.2524 283.036C69.0444 284.028 68.7644 284.876 68.4124 285.58C68.0764 286.284 67.6044 286.82 66.9964 287.188C66.4044 287.556 65.6284 287.74 64.6684 287.74C64.3484 287.74 64.0444 287.716 63.7564 287.668C63.4684 287.62 63.1964 287.556 62.9404 287.476V284.5C63.1484 284.564 63.3484 284.62 63.5404 284.668C63.7484 284.716 63.9724 284.74 64.2124 284.74C64.5324 284.74 64.7964 284.636 65.0044 284.428C65.2124 284.22 65.3964 283.868 65.5564 283.372C65.7164 282.86 65.8764 282.156 66.0364 281.26C66.1164 280.876 66.2124 280.332 66.3244 279.628C66.4364 278.908 66.5644 278.068 66.7084 277.108C66.8684 276.132 67.0284 275.076 67.1884 273.94C67.3484 272.788 67.5004 271.596 67.6444 270.364H78.4684V287.5ZM81.5912 270.364H84.8552V278.644C84.8552 279.044 84.8472 279.492 84.8312 279.988C84.8152 280.484 84.7992 280.972 84.7832 281.452C84.7672 281.916 84.7512 282.324 84.7352 282.676C84.7192 283.012 84.7032 283.244 84.6872 283.372H84.7592L92.6792 270.364H97.0232V287.5H93.7832V279.268C93.7832 278.836 93.7912 278.364 93.8072 277.852C93.8232 277.324 93.8392 276.82 93.8552 276.34C93.8872 275.86 93.9112 275.444 93.9272 275.092C93.9592 274.724 93.9832 274.484 93.9992 274.372H93.9032L85.9592 287.5H81.5912V270.364ZM107.421 273.148C106.733 273.148 106.117 273.284 105.573 273.556C105.045 273.828 104.597 274.22 104.229 274.732C103.861 275.228 103.581 275.836 103.389 276.556C103.213 277.276 103.125 278.084 103.125 278.98C103.125 280.196 103.269 281.236 103.557 282.1C103.861 282.948 104.333 283.596 104.973 284.044C105.613 284.492 106.429 284.716 107.421 284.716C108.125 284.716 108.821 284.636 109.509 284.476C110.213 284.316 110.973 284.092 111.789 283.804V286.852C111.037 287.156 110.293 287.38 109.557 287.524C108.821 287.668 107.997 287.74 107.085 287.74C105.325 287.74 103.869 287.38 102.717 286.66C101.581 285.924 100.741 284.9 100.197 283.588C99.6531 282.26 99.3811 280.716 99.3811 278.956C99.3811 277.66 99.5571 276.476 99.9091 275.404C100.261 274.316 100.773 273.38 101.445 272.596C102.133 271.812 102.973 271.204 103.965 270.772C104.973 270.34 106.125 270.124 107.421 270.124C108.269 270.124 109.117 270.236 109.965 270.46C110.829 270.668 111.653 270.956 112.437 271.324L111.261 274.276C110.621 273.972 109.973 273.708 109.317 273.484C108.677 273.26 108.045 273.148 107.421 273.148ZM120.83 287.5H117.206V273.388H112.55V270.364H125.486V273.388H120.83V287.5ZM140.493 278.596L134.733 270.364H138.477L144.021 278.668V270.364H147.405V278.668L152.949 270.364H156.693L150.933 278.596L157.029 287.5H153.141L147.405 278.812V287.5H144.021V278.812L138.285 287.5H134.397L140.493 278.596ZM157.997 270.364H161.261V278.644C161.261 279.044 161.253 279.492 161.237 279.988C161.221 280.484 161.205 280.972 161.189 281.452C161.173 281.916 161.157 282.324 161.141 282.676C161.125 283.012 161.109 283.244 161.093 283.372H161.165L169.085 270.364H173.429V287.5H170.189V279.268C170.189 278.836 170.197 278.364 170.213 277.852C170.229 277.324 170.245 276.82 170.261 276.34C170.293 275.86 170.317 275.444 170.333 275.092C170.365 274.724 170.389 274.484 170.405 274.372H170.309L162.365 287.5H157.997V270.364ZM188.387 274.372C188.387 275.524 187.979 276.452 187.163 277.156C186.347 277.86 185.307 278.3 184.043 278.476V278.548C185.611 278.708 186.811 279.148 187.643 279.868C188.491 280.572 188.915 281.492 188.915 282.628C188.915 283.62 188.643 284.508 188.099 285.292C187.555 286.06 186.747 286.66 185.675 287.092C184.603 287.524 183.275 287.74 181.691 287.74C180.395 287.74 179.243 287.66 178.235 287.5C177.243 287.34 176.379 287.108 175.643 286.804V283.756C176.139 283.996 176.699 284.204 177.323 284.38C177.947 284.54 178.579 284.668 179.219 284.764C179.859 284.844 180.451 284.884 180.995 284.884C182.515 284.884 183.611 284.668 184.283 284.236C184.971 283.788 185.315 283.164 185.315 282.364C185.315 281.548 184.819 280.956 183.827 280.588C182.835 280.204 181.499 280.012 179.819 280.012H178.211V277.18H179.651C181.011 277.18 182.067 277.092 182.819 276.916C183.571 276.74 184.099 276.484 184.403 276.148C184.707 275.812 184.859 275.412 184.859 274.948C184.859 274.356 184.595 273.892 184.067 273.556C183.555 273.204 182.779 273.028 181.739 273.028C180.859 273.028 180.027 273.156 179.243 273.412C178.475 273.668 177.755 274.004 177.083 274.42L175.499 271.996C176.091 271.612 176.715 271.284 177.371 271.012C178.043 270.724 178.779 270.508 179.579 270.364C180.379 270.204 181.267 270.124 182.243 270.124C183.539 270.124 184.643 270.308 185.555 270.676C186.467 271.044 187.163 271.548 187.643 272.188C188.139 272.812 188.387 273.54 188.387 274.372ZM204.958 287.5H201.334V280.108H194.542V287.5H190.918V270.364H194.542V277.084H201.334V270.364H204.958V287.5ZM208.069 270.364H211.333V278.644C211.333 279.044 211.325 279.492 211.309 279.988C211.293 280.484 211.277 280.972 211.261 281.452C211.245 281.916 211.229 282.324 211.213 282.676C211.197 283.012 211.181 283.244 211.165 283.372H211.237L219.157 270.364H223.501V287.5H220.261V279.268C220.261 278.836 220.269 278.364 220.285 277.852C220.301 277.324 220.317 276.82 220.333 276.34C220.365 275.86 220.389 275.444 220.405 275.092C220.437 274.724 220.461 274.484 220.477 274.372H220.381L212.437 287.5H208.069V270.364Z" fill="black"/>
</svg>
