<svg width="260" height="347" viewBox="0 0 260 347" fill="none" xmlns="http://www.w3.org/2000/svg">
<g clip-path="url(#clip0_703_222)">
<mask id="path-2-inside-1_703_222" fill="white">
<path d="M0 239H260V347H0V239Z"/>
</mask>
<path d="M0 242H260V236H0V242Z" fill="#F2F2F2" mask="url(#path-2-inside-1_703_222)"/>
<path d="M49 290V281H37V278H34V269H40V278H49V269H55V290H49ZM58 290V269H79V272H64V278H76V281H64V287H79V290H58ZM91 275H94V278H97V281H100V287H103V290H97V287H94V281H88V290H82V269H88V278H91V275ZM103 269V272H100V275H94V272H97V269H103ZM109 281V278H127V281H109ZM130 290V284H133V281H136V269H151V290H145V272H139V287H136V290H130ZM154 290V269H160V281H163V278H166V275H169V269H175V290H169V281H166V284H163V287H160V290H154ZM184 290V287H181V284H178V275H181V272H184V269H196V272H199V275H193V272H187V275H184V284H187V287H193V284H199V287H196V290H184ZM211 290V272H205V269H223V272H217V290H211ZM76 293V302H73V299H70V293H76ZM82 302H85V305H82V314H79V305H76V302H79V293H82V302ZM91 293V299H88V302H85V293H91ZM73 305H76V314H70V308H73V305ZM85 314V305H88V308H91V314H85ZM94 314V293H100V305H103V302H106V299H109V293H115V314H109V305H106V308H103V311H100V314H94ZM121 314V311H118V308H124V311H133V305H124V302H133V296H124V299H118V296H121V293H136V296H139V302H136V305H139V311H136V314H121ZM142 314V293H148V302H157V293H163V314H157V305H148V314H142ZM166 314V293H172V305H175V302H178V299H181V293H187V314H181V305H178V308H175V311H172V314H166Z" fill="#F2F2F2"/>
<mask id="mask0_703_222" style="mask-type:alpha" maskUnits="userSpaceOnUse" x="0" y="0" width="260" height="239">
<path d="M0 0H260V239H0V0Z" fill="#26B8B5"/>
</mask>
<g mask="url(#mask0_703_222)">
<rect x="74" y="40" width="158" height="8" rx="4" fill="#F2F2F2" stroke="#F2F2F2" stroke-width="2"/>
<rect x="74" y="90" width="158" height="8" rx="4" stroke="#F2F2F2" stroke-width="2"/>
<rect x="74" y="140" width="158" height="8" rx="4" fill="#F2F2F2" stroke="#F2F2F2" stroke-width="2"/>
<rect x="74" y="190" width="158" height="8" rx="4" stroke="#F2F2F2" stroke-width="2"/>
<rect x="38.7021" y="51.2983" width="24.4635" height="3.65745" rx="1.82872" transform="rotate(-45 38.7021 51.2983)" fill="#F2F2F2"/>
<rect x="36.5864" y="44.0001" width="10.3284" height="3.65745" rx="1.82872" transform="rotate(45 36.5864 44.0001)" fill="#F2F2F2"/>
<rect x="28" y="28" width="33" height="33" stroke="#F2F2F2" stroke-width="2"/>
<rect x="28" y="128" width="33" height="33" stroke="#F2F2F2" stroke-width="2"/>
<rect x="37.7021" y="201.298" width="24.4635" height="3.65745" rx="1.82872" transform="rotate(-45 37.7021 201.298)" fill="#F2F2F2"/>
<rect x="35.5864" y="194" width="10.3284" height="3.65745" rx="1.82872" transform="rotate(45 35.5864 194)" fill="#F2F2F2"/>
<rect x="28" y="178" width="33" height="33" stroke="#F2F2F2" stroke-width="2"/>
<rect x="28" y="78" width="33" height="33" fill="#F2F2F2" stroke="#F2F2F2" stroke-width="2"/>
</g>
</g>
<defs>
<clipPath id="clip0_703_222">
<rect width="260" height="346.66" rx="10" fill="white"/>
</clipPath>
</defs>
</svg>
