<svg width="260" height="347" viewBox="0 0 260 347" fill="none" xmlns="http://www.w3.org/2000/svg">
<g clip-path="url(#clip0_716_92)">
<mask id="path-2-inside-1_716_92" fill="white">
<path d="M0 239H260V347H0V239Z"/>
</mask>
<path d="M0 242H260V236H0V242Z" fill="#17191D" mask="url(#path-2-inside-1_716_92)"/>
<path d="M22 302V281H43V302H37V284H28V302H22ZM46 302V281H64V284H67V293H64V296H52V302H46ZM52 293H61V284H52V293ZM73 302V299H70V284H73V281H88V284H91V299H88V302H73ZM76 299H85V284H76V299ZM109 305V302H94V281H100V299H106V281H112V299H115V305H109ZM118 302V281H139V284H124V290H136V293H124V299H139V302H118ZM142 302V281H148V290H157V281H163V302H157V293H148V302H142ZM175 302V284H169V281H187V284H181V302H175ZM190 302V287H193V284H196V281H205V284H208V287H211V302H205V296H196V302H190ZM196 293H205V287H202V284H199V287H196V293ZM214 302V281H220V299H223V281H226V299H229V281H235V302H214Z" fill="#17191D"/>
<circle cx="130" cy="120" r="90" stroke="#17191D" stroke-width="5" stroke-linecap="round" stroke-dasharray="10 30"/>
<path d="M101.15 136.528C98.2705 136.528 95.8545 136.064 93.9025 135.136C91.9505 134.208 90.4625 132.992 89.4385 131.488C88.4465 129.984 87.9185 128.384 87.8545 126.688C87.8545 126.4 87.9505 126.16 88.1425 125.968C88.3345 125.776 88.5745 125.68 88.8625 125.68H94.2865C94.6705 125.68 94.9745 125.776 95.1985 125.968C95.4545 126.128 95.6465 126.352 95.7745 126.64C96.0945 127.504 96.5105 128.208 97.0225 128.752C97.5665 129.296 98.1905 129.696 98.8945 129.952C99.5985 130.208 100.35 130.336 101.15 130.336C102.174 130.336 103.118 130.128 103.982 129.712C104.846 129.264 105.534 128.624 106.046 127.792C106.558 126.96 106.814 125.936 106.814 124.72C106.814 123.664 106.574 122.736 106.094 121.936C105.614 121.136 104.942 120.512 104.078 120.064C103.214 119.616 102.238 119.392 101.15 119.392C100.318 119.392 99.6305 119.488 99.0865 119.68C98.5745 119.872 98.1425 120.112 97.7905 120.4C97.4385 120.656 97.1185 120.896 96.8305 121.12C96.5425 121.312 96.2225 121.408 95.8705 121.408H90.5425C90.2545 121.408 89.9985 121.312 89.7745 121.12C89.5825 120.896 89.4865 120.64 89.4865 120.352L91.1665 103.792C91.2305 103.344 91.3905 103.008 91.6465 102.784C91.9345 102.528 92.2705 102.4 92.6545 102.4H111.278C111.63 102.4 111.918 102.512 112.142 102.736C112.366 102.96 112.478 103.248 112.478 103.6V107.44C112.478 107.76 112.366 108.032 112.142 108.256C111.918 108.48 111.63 108.592 111.278 108.592H97.4065L96.6865 115.648C97.3265 115.232 98.1105 114.864 99.0385 114.544C99.9985 114.192 101.326 114.016 103.022 114.016C104.558 114.016 106.014 114.272 107.39 114.784C108.798 115.264 110.046 115.984 111.134 116.944C112.222 117.904 113.07 119.056 113.678 120.4C114.318 121.712 114.638 123.216 114.638 124.912C114.638 127.216 114.094 129.248 113.006 131.008C111.918 132.736 110.366 134.096 108.35 135.088C106.334 136.048 103.934 136.528 101.15 136.528Z" fill="#17191D"/>
<path d="M130.087 136.48C127.783 136.48 125.799 136.16 124.135 135.52C122.503 134.848 121.143 133.936 120.055 132.784C118.999 131.6 118.199 130.24 117.655 128.704C117.143 127.136 116.839 125.472 116.743 123.712C116.711 122.848 116.679 121.888 116.647 120.832V117.568C116.679 116.48 116.711 115.488 116.743 114.592C116.807 112.832 117.111 111.184 117.655 109.648C118.231 108.112 119.063 106.768 120.151 105.616C121.239 104.464 122.599 103.568 124.231 102.928C125.895 102.256 127.847 101.92 130.087 101.92V108.064C128.199 108.096 126.823 108.736 125.959 109.984C125.127 111.232 124.679 112.848 124.615 114.832C124.583 115.696 124.551 116.624 124.519 117.616V120.592C124.551 121.584 124.583 122.544 124.615 123.472C124.679 125.552 125.143 127.2 126.007 128.416C126.871 129.632 128.231 130.24 130.087 130.24V136.48Z" fill="#17191D"/>
<path fill-rule="evenodd" clip-rule="evenodd" d="M130 40C140.506 40 150.909 42.0693 160.615 46.0896C170.321 50.11 179.14 56.0028 186.569 63.4315C193.997 70.8602 199.89 79.6793 203.91 89.3853C207.931 99.0914 210 109.494 210 120C210 130.506 207.931 140.909 203.91 150.615C199.89 160.321 193.997 169.14 186.569 176.569C179.14 183.997 170.321 189.89 160.615 193.91C150.909 197.931 140.506 200 130 200L130 40ZM130.087 101.92C132.327 101.92 134.263 102.256 135.895 102.928C137.527 103.568 138.887 104.464 139.975 105.616C141.063 106.768 141.879 108.112 142.423 109.648C142.999 111.184 143.335 112.832 143.431 114.592C143.463 115.488 143.479 116.48 143.479 117.568C143.511 118.656 143.511 119.744 143.479 120.832C143.479 121.888 143.463 122.848 143.431 123.712C143.335 125.472 143.015 127.136 142.471 128.704C141.927 130.24 141.111 131.6 140.023 132.784C138.967 133.936 137.607 134.848 135.943 135.52C134.311 136.16 132.359 136.48 130.087 136.48V130.24C131.943 130.24 133.303 129.632 134.167 128.416C135.031 127.2 135.495 125.552 135.559 123.472C135.591 122.544 135.607 121.584 135.607 120.592C135.639 119.6 135.639 118.608 135.607 117.616C135.607 116.624 135.591 115.696 135.559 114.832C135.495 112.848 135.031 111.232 134.167 109.984C133.303 108.736 131.943 108.096 130.087 108.064V101.92ZM147.749 117.664C149.029 118.784 150.757 119.344 152.933 119.344C155.109 119.344 156.837 118.784 158.117 117.664C159.397 116.512 160.085 114.976 160.181 113.056C160.245 112.224 160.277 111.504 160.277 110.896C160.277 110.256 160.245 109.488 160.181 108.592C160.085 106.64 159.429 105.088 158.213 103.936C156.997 102.752 155.237 102.16 152.933 102.16C150.661 102.16 148.901 102.752 147.653 103.936C146.437 105.088 145.781 106.64 145.685 108.592C145.653 109.488 145.621 110.256 145.589 110.896C145.589 111.504 145.621 112.224 145.685 113.056C145.813 114.976 146.501 116.512 147.749 117.664ZM152.933 115.456C153.541 115.456 154.021 115.328 154.373 115.072C154.725 114.816 154.981 114.48 155.141 114.064C155.333 113.648 155.445 113.232 155.477 112.816C155.541 112.048 155.573 111.376 155.573 110.8C155.573 110.192 155.541 109.536 155.477 108.832C155.445 108.16 155.237 107.552 154.853 107.008C154.469 106.432 153.829 106.144 152.933 106.144C152.037 106.144 151.397 106.432 151.013 107.008C150.661 107.552 150.453 108.16 150.389 108.832C150.357 109.536 150.341 110.192 150.341 110.8C150.341 111.376 150.357 112.048 150.389 112.816C150.453 113.232 150.565 113.648 150.725 114.064C150.885 114.48 151.141 114.816 151.493 115.072C151.845 115.328 152.325 115.456 152.933 115.456ZM149.045 136C148.341 136 147.989 135.68 147.989 135.04C147.989 134.848 148.053 134.672 148.181 134.512L171.893 103.312C172.117 103.024 172.341 102.8 172.565 102.64C172.789 102.48 173.109 102.4 173.525 102.4H176.501C177.205 102.4 177.557 102.72 177.557 103.36C177.557 103.552 177.493 103.728 177.365 103.888L153.653 135.088C153.429 135.376 153.205 135.6 152.981 135.76C152.789 135.92 152.469 136 152.021 136H149.045ZM167.477 134.512C168.757 135.664 170.485 136.24 172.661 136.24C174.805 136.24 176.517 135.664 177.797 134.512C179.109 133.36 179.813 131.824 179.909 129.904C179.973 129.072 180.005 128.336 180.005 127.696C180.005 127.056 179.973 126.288 179.909 125.392C179.813 123.472 179.141 121.92 177.893 120.736C176.677 119.552 174.933 118.96 172.661 118.96C170.389 118.96 168.629 119.552 167.381 120.736C166.165 121.92 165.509 123.472 165.413 125.392C165.381 126.288 165.349 127.056 165.317 127.696C165.317 128.336 165.349 129.072 165.413 129.904C165.541 131.824 166.229 133.36 167.477 134.512ZM172.661 132.304C173.269 132.304 173.749 132.176 174.101 131.92C174.453 131.664 174.709 131.328 174.869 130.912C175.061 130.496 175.173 130.064 175.205 129.616C175.269 128.88 175.301 128.224 175.301 127.648C175.301 127.04 175.269 126.368 175.205 125.632C175.173 124.96 174.965 124.352 174.581 123.808C174.197 123.264 173.557 122.992 172.661 122.992C171.765 122.992 171.125 123.264 170.741 123.808C170.389 124.352 170.181 124.96 170.117 125.632C170.085 126.368 170.069 127.04 170.069 127.648C170.069 128.224 170.085 128.88 170.117 129.616C170.181 130.064 170.277 130.496 170.405 130.912C170.565 131.328 170.821 131.664 171.173 131.92C171.557 132.176 172.053 132.304 172.661 132.304Z" fill="#17191D"/>
</g>
<defs>
<clipPath id="clip0_716_92">
<rect width="260" height="346.66" rx="10" fill="white"/>
</clipPath>
</defs>
</svg>
