<svg width="245" height="319" viewBox="0 0 245 319" fill="none" xmlns="http://www.w3.org/2000/svg">
<path d="M135.449 58.5515C146.452 46.3572 166.63 54.7383 165.796 71.143C165.279 81.4704 173.78 89.9707 184.107 89.4543C200.472 88.6201 208.853 108.798 196.699 119.801C189.032 126.712 189.032 138.748 196.699 145.699C208.893 156.702 200.512 176.88 184.107 176.046C173.78 175.529 165.279 184.03 165.796 194.357C166.63 210.722 146.452 219.103 135.449 206.949C128.538 199.282 116.502 199.282 109.551 206.949C98.5483 219.143 78.3701 210.762 79.2043 194.357C79.7207 184.03 71.2204 175.529 60.893 176.046C44.528 176.88 36.1469 156.702 48.3015 145.699C55.9676 138.788 55.9676 126.752 48.3015 119.801C36.1072 108.798 44.4883 88.6201 60.893 89.4543C71.2204 89.9707 79.7207 81.4704 79.2043 71.143C78.3701 54.778 98.5483 46.3969 109.551 58.5515C116.502 66.2176 128.498 66.2176 135.449 58.5515Z" fill="black"/>
<rect x="15" y="250" width="215" height="4" fill="black"/>
<path d="M50.8389 288V270.864H64.3989V288H60.7749V273.888H54.4629V288H50.8389ZM72.9937 270.864C75.2017 270.864 76.8097 271.344 77.8177 272.304C78.8417 273.248 79.3537 274.552 79.3537 276.216C79.3537 276.968 79.2417 277.688 79.0177 278.376C78.7937 279.048 78.4177 279.656 77.8897 280.2C77.3777 280.728 76.6977 281.144 75.8497 281.448C75.0017 281.752 73.9537 281.904 72.7057 281.904H71.1457V288H67.5217V270.864H72.9937ZM72.8017 273.84H71.1457V278.928H72.3457C73.0337 278.928 73.6257 278.84 74.1217 278.664C74.6177 278.488 75.0017 278.208 75.2737 277.824C75.5457 277.44 75.6817 276.944 75.6817 276.336C75.6817 275.488 75.4497 274.864 74.9857 274.464C74.5217 274.048 73.7937 273.84 72.8017 273.84ZM96.944 279.408C96.944 280.736 96.776 281.944 96.44 283.032C96.12 284.104 95.624 285.032 94.952 285.816C94.296 286.6 93.448 287.2 92.408 287.616C91.384 288.032 90.176 288.24 88.784 288.24C87.392 288.24 86.176 288.032 85.136 287.616C84.112 287.184 83.264 286.584 82.592 285.816C81.936 285.032 81.44 284.096 81.104 283.008C80.784 281.92 80.624 280.712 80.624 279.384C80.624 277.608 80.912 276.064 81.488 274.752C82.08 273.44 82.976 272.424 84.176 271.704C85.392 270.968 86.936 270.6 88.808 270.6C90.664 270.6 92.192 270.968 93.392 271.704C94.592 272.424 95.48 273.448 96.056 274.776C96.648 276.088 96.944 277.632 96.944 279.408ZM84.44 279.408C84.44 280.608 84.592 281.64 84.896 282.504C85.2 283.368 85.672 284.032 86.312 284.496C86.952 284.96 87.776 285.192 88.784 285.192C89.824 285.192 90.656 284.96 91.28 284.496C91.92 284.032 92.384 283.368 92.672 282.504C92.976 281.64 93.128 280.608 93.128 279.408C93.128 277.6 92.792 276.184 92.12 275.16C91.448 274.136 90.344 273.624 88.808 273.624C87.784 273.624 86.952 273.856 86.312 274.32C85.672 274.784 85.2 275.448 84.896 276.312C84.592 277.176 84.44 278.208 84.44 279.408ZM115.398 285.12V292.992H111.894V288H99.2936V270.864H102.918V284.976H109.23V270.864H112.854V285.12H115.398ZM126.708 288H116.844V270.864H126.708V273.84H120.468V277.608H126.276V280.584H120.468V285H126.708V288ZM143.113 288H139.489V280.608H132.697V288H129.073V270.864H132.697V277.584H139.489V270.864H143.113V288ZM152.825 288H149.201V273.888H144.545V270.864H157.481V273.888H152.825V288ZM167.724 288L166.476 283.92H160.236L158.988 288H155.076L161.124 270.792H165.564L171.636 288H167.724ZM164.364 276.888C164.284 276.616 164.18 276.272 164.052 275.856C163.924 275.44 163.796 275.016 163.668 274.584C163.54 274.152 163.436 273.776 163.356 273.456C163.276 273.776 163.164 274.176 163.02 274.656C162.892 275.12 162.764 275.568 162.636 276C162.524 276.416 162.436 276.712 162.372 276.888L161.148 280.872H165.612L164.364 276.888ZM194.158 288H172.606V270.864H176.23V284.976H181.558V270.864H185.206V284.976H190.534V270.864H194.158V288Z" fill="black"/>
</svg>
