<svg width="260" height="347" viewBox="0 0 260 347" fill="none" xmlns="http://www.w3.org/2000/svg">
<g clip-path="url(#clip0_548_2)">
<rect width="260" height="346.66" fill="#A5959A"/>
<mask id="path-1-inside-1_548_2" fill="white">
<path d="M0 239H260V347H0V239Z"/>
</mask>
<path d="M0 239H260V347H0V239Z" fill="#A5959A"/>
<path d="M0 242H260V236H0V242Z" fill="#252525" mask="url(#path-1-inside-1_548_2)"/>
<path d="M22 302V281H43V302H37V284H28V302H22ZM46 302V281H64V284H67V293H64V296H52V302H46ZM52 293H61V284H52V293ZM73 302V299H70V284H73V281H88V284H91V299H88V302H73ZM76 299H85V284H76V299ZM109 305V302H94V281H100V299H106V281H112V299H115V305H109ZM118 302V281H139V284H124V290H136V293H124V299H139V302H118ZM142 302V281H148V290H157V281H163V302H157V293H148V302H142ZM175 302V284H169V281H187V284H181V302H175ZM190 302V287H193V284H196V281H205V284H208V287H211V302H205V296H196V302H190ZM196 293H205V287H202V284H199V287H196V293ZM214 302V281H220V299H223V281H226V299H229V281H235V302H214Z" fill="#252525"/>
<circle cx="130" cy="120" r="90" stroke="#252525" stroke-width="5" stroke-linecap="round" stroke-dasharray="10 30"/>
<path d="M130 40C140.506 40 150.909 42.0693 160.615 46.0896C170.321 50.11 179.14 56.0028 186.569 63.4315C193.997 70.8602 199.89 79.6793 203.91 89.3853C207.931 99.0914 210 109.494 210 120C210 130.506 207.931 140.909 203.91 150.615C199.89 160.321 193.997 169.14 186.569 176.569C179.14 183.997 170.321 189.89 160.615 193.91C150.909 197.931 140.506 200 130 200L130 120L130 40Z" fill="#252525"/>
<path d="M101.151 136.528C98.2706 136.528 95.8546 136.064 93.9026 135.136C91.9506 134.208 90.4626 132.992 89.4386 131.488C88.4466 129.984 87.9186 128.384 87.8546 126.688C87.8546 126.4 87.9506 126.16 88.1426 125.968C88.3346 125.776 88.5746 125.68 88.8626 125.68H94.2866C94.6706 125.68 94.9746 125.776 95.1986 125.968C95.4546 126.128 95.6466 126.352 95.7746 126.64C96.0946 127.504 96.5106 128.208 97.0226 128.752C97.5666 129.296 98.1906 129.696 98.8946 129.952C99.5986 130.208 100.351 130.336 101.151 130.336C102.175 130.336 103.119 130.128 103.983 129.712C104.847 129.264 105.535 128.624 106.047 127.792C106.559 126.96 106.815 125.936 106.815 124.72C106.815 123.664 106.575 122.736 106.095 121.936C105.615 121.136 104.943 120.512 104.079 120.064C103.215 119.616 102.239 119.392 101.151 119.392C100.319 119.392 99.6306 119.488 99.0866 119.68C98.5746 119.872 98.1426 120.112 97.7906 120.4C97.4386 120.656 97.1186 120.896 96.8306 121.12C96.5426 121.312 96.2226 121.408 95.8706 121.408H90.5426C90.2546 121.408 89.9986 121.312 89.7746 121.12C89.5826 120.896 89.4866 120.64 89.4866 120.352L91.1666 103.792C91.2306 103.344 91.3906 103.008 91.6466 102.784C91.9346 102.528 92.2706 102.4 92.6546 102.4H111.279C111.631 102.4 111.919 102.512 112.143 102.736C112.367 102.96 112.479 103.248 112.479 103.6V107.44C112.479 107.76 112.367 108.032 112.143 108.256C111.919 108.48 111.631 108.592 111.279 108.592H97.4066L96.6866 115.648C97.3266 115.232 98.1106 114.864 99.0386 114.544C99.9986 114.192 101.327 114.016 103.023 114.016C104.559 114.016 106.015 114.272 107.391 114.784C108.799 115.264 110.047 115.984 111.135 116.944C112.223 117.904 113.071 119.056 113.679 120.4C114.319 121.712 114.639 123.216 114.639 124.912C114.639 127.216 114.095 129.248 113.007 131.008C111.919 132.736 110.367 134.096 108.351 135.088C106.335 136.048 103.935 136.528 101.151 136.528ZM130.087 136.48C127.783 136.48 125.799 136.16 124.135 135.52C122.503 134.848 121.143 133.936 120.055 132.784C118.999 131.6 118.199 130.24 117.655 128.704C117.143 127.136 116.839 125.472 116.743 123.712C116.711 122.848 116.679 121.888 116.647 120.832C116.647 119.744 116.647 118.656 116.647 117.568C116.679 116.48 116.711 115.488 116.743 114.592C116.807 112.832 117.111 111.184 117.655 109.648C118.231 108.112 119.063 106.768 120.151 105.616C121.239 104.464 122.599 103.568 124.231 102.928C125.895 102.256 127.847 101.92 130.087 101.92C132.327 101.92 134.263 102.256 135.895 102.928C137.527 103.568 138.887 104.464 139.975 105.616C141.063 106.768 141.879 108.112 142.423 109.648C142.999 111.184 143.335 112.832 143.431 114.592C143.463 115.488 143.479 116.48 143.479 117.568C143.511 118.656 143.511 119.744 143.479 120.832C143.479 121.888 143.463 122.848 143.431 123.712C143.335 125.472 143.015 127.136 142.471 128.704C141.927 130.24 141.111 131.6 140.023 132.784C138.967 133.936 137.607 134.848 135.943 135.52C134.311 136.16 132.359 136.48 130.087 136.48ZM130.087 130.24C131.943 130.24 133.303 129.632 134.167 128.416C135.031 127.2 135.495 125.552 135.559 123.472C135.591 122.544 135.607 121.584 135.607 120.592C135.639 119.6 135.639 118.608 135.607 117.616C135.607 116.624 135.591 115.696 135.559 114.832C135.495 112.848 135.031 111.232 134.167 109.984C133.303 108.736 131.943 108.096 130.087 108.064C128.199 108.096 126.823 108.736 125.959 109.984C125.127 111.232 124.679 112.848 124.615 114.832C124.583 115.696 124.551 116.624 124.519 117.616C124.519 118.608 124.519 119.6 124.519 120.592C124.551 121.584 124.583 122.544 124.615 123.472C124.679 125.552 125.143 127.2 126.007 128.416C126.871 129.632 128.231 130.24 130.087 130.24ZM149.045 136C148.341 136 147.989 135.68 147.989 135.04C147.989 134.848 148.053 134.672 148.181 134.512L171.893 103.312C172.117 103.024 172.341 102.8 172.565 102.64C172.789 102.48 173.109 102.4 173.525 102.4H176.501C177.205 102.4 177.557 102.72 177.557 103.36C177.557 103.552 177.493 103.728 177.365 103.888L153.653 135.088C153.429 135.376 153.205 135.6 152.981 135.76C152.789 135.92 152.469 136 152.021 136H149.045ZM172.661 136.24C170.485 136.24 168.757 135.664 167.477 134.512C166.229 133.36 165.541 131.824 165.413 129.904C165.349 129.072 165.317 128.336 165.317 127.696C165.349 127.056 165.381 126.288 165.413 125.392C165.509 123.472 166.165 121.92 167.381 120.736C168.629 119.552 170.389 118.96 172.661 118.96C174.933 118.96 176.677 119.552 177.893 120.736C179.141 121.92 179.813 123.472 179.909 125.392C179.973 126.288 180.005 127.056 180.005 127.696C180.005 128.336 179.973 129.072 179.909 129.904C179.813 131.824 179.109 133.36 177.797 134.512C176.517 135.664 174.805 136.24 172.661 136.24ZM172.661 132.304C173.269 132.304 173.749 132.176 174.101 131.92C174.453 131.664 174.709 131.328 174.869 130.912C175.061 130.496 175.173 130.064 175.205 129.616C175.269 128.88 175.301 128.224 175.301 127.648C175.301 127.04 175.269 126.368 175.205 125.632C175.173 124.96 174.965 124.352 174.581 123.808C174.197 123.264 173.557 122.992 172.661 122.992C171.765 122.992 171.125 123.264 170.741 123.808C170.389 124.352 170.181 124.96 170.117 125.632C170.085 126.368 170.069 127.04 170.069 127.648C170.069 128.224 170.085 128.88 170.117 129.616C170.181 130.064 170.277 130.496 170.405 130.912C170.565 131.328 170.821 131.664 171.173 131.92C171.557 132.176 172.053 132.304 172.661 132.304ZM152.933 119.344C150.757 119.344 149.029 118.784 147.749 117.664C146.501 116.512 145.813 114.976 145.685 113.056C145.621 112.224 145.589 111.504 145.589 110.896C145.621 110.256 145.653 109.488 145.685 108.592C145.781 106.64 146.437 105.088 147.653 103.936C148.901 102.752 150.661 102.16 152.933 102.16C155.237 102.16 156.997 102.752 158.213 103.936C159.429 105.088 160.085 106.64 160.181 108.592C160.245 109.488 160.277 110.256 160.277 110.896C160.277 111.504 160.245 112.224 160.181 113.056C160.085 114.976 159.397 116.512 158.117 117.664C156.837 118.784 155.109 119.344 152.933 119.344ZM152.933 115.456C153.541 115.456 154.021 115.328 154.373 115.072C154.725 114.816 154.981 114.48 155.141 114.064C155.333 113.648 155.445 113.232 155.477 112.816C155.541 112.048 155.573 111.376 155.573 110.8C155.573 110.192 155.541 109.536 155.477 108.832C155.445 108.16 155.237 107.552 154.853 107.008C154.469 106.432 153.829 106.144 152.933 106.144C152.037 106.144 151.397 106.432 151.013 107.008C150.661 107.552 150.453 108.16 150.389 108.832C150.357 109.536 150.341 110.192 150.341 110.8C150.341 111.376 150.357 112.048 150.389 112.816C150.453 113.232 150.565 113.648 150.725 114.064C150.885 114.48 151.141 114.816 151.493 115.072C151.845 115.328 152.325 115.456 152.933 115.456Z" fill="#252525"/>
<mask id="mask0_548_2" style="mask-type:alpha" maskUnits="userSpaceOnUse" x="130" y="40" width="80" height="160">
<path d="M130 40C140.506 40 150.909 42.0693 160.615 46.0896C170.321 50.11 179.14 56.0028 186.569 63.4315C193.997 70.8602 199.89 79.6793 203.91 89.3853C207.931 99.0914 210 109.494 210 120C210 130.506 207.931 140.909 203.91 150.615C199.89 160.321 193.997 169.14 186.569 176.569C179.14 183.997 170.321 189.89 160.615 193.91C150.909 197.931 140.506 200 130 200L130 120L130 40Z" fill="#252525"/>
</mask>
<g mask="url(#mask0_548_2)">
<path d="M101.151 136.528C98.2706 136.528 95.8546 136.064 93.9026 135.136C91.9506 134.208 90.4626 132.992 89.4386 131.488C88.4466 129.984 87.9186 128.384 87.8546 126.688C87.8546 126.4 87.9506 126.16 88.1426 125.968C88.3346 125.776 88.5746 125.68 88.8626 125.68H94.2866C94.6706 125.68 94.9746 125.776 95.1986 125.968C95.4546 126.128 95.6466 126.352 95.7746 126.64C96.0946 127.504 96.5106 128.208 97.0226 128.752C97.5666 129.296 98.1906 129.696 98.8946 129.952C99.5986 130.208 100.351 130.336 101.151 130.336C102.175 130.336 103.119 130.128 103.983 129.712C104.847 129.264 105.535 128.624 106.047 127.792C106.559 126.96 106.815 125.936 106.815 124.72C106.815 123.664 106.575 122.736 106.095 121.936C105.615 121.136 104.943 120.512 104.079 120.064C103.215 119.616 102.239 119.392 101.151 119.392C100.319 119.392 99.6306 119.488 99.0866 119.68C98.5746 119.872 98.1426 120.112 97.7906 120.4C97.4386 120.656 97.1186 120.896 96.8306 121.12C96.5426 121.312 96.2226 121.408 95.8706 121.408H90.5426C90.2546 121.408 89.9986 121.312 89.7746 121.12C89.5826 120.896 89.4866 120.64 89.4866 120.352L91.1666 103.792C91.2306 103.344 91.3906 103.008 91.6466 102.784C91.9346 102.528 92.2706 102.4 92.6546 102.4H111.279C111.631 102.4 111.919 102.512 112.143 102.736C112.367 102.96 112.479 103.248 112.479 103.6V107.44C112.479 107.76 112.367 108.032 112.143 108.256C111.919 108.48 111.631 108.592 111.279 108.592H97.4066L96.6866 115.648C97.3266 115.232 98.1106 114.864 99.0386 114.544C99.9986 114.192 101.327 114.016 103.023 114.016C104.559 114.016 106.015 114.272 107.391 114.784C108.799 115.264 110.047 115.984 111.135 116.944C112.223 117.904 113.071 119.056 113.679 120.4C114.319 121.712 114.639 123.216 114.639 124.912C114.639 127.216 114.095 129.248 113.007 131.008C111.919 132.736 110.367 134.096 108.351 135.088C106.335 136.048 103.935 136.528 101.151 136.528ZM130.087 136.48C127.783 136.48 125.799 136.16 124.135 135.52C122.503 134.848 121.143 133.936 120.055 132.784C118.999 131.6 118.199 130.24 117.655 128.704C117.143 127.136 116.839 125.472 116.743 123.712C116.711 122.848 116.679 121.888 116.647 120.832C116.647 119.744 116.647 118.656 116.647 117.568C116.679 116.48 116.711 115.488 116.743 114.592C116.807 112.832 117.111 111.184 117.655 109.648C118.231 108.112 119.063 106.768 120.151 105.616C121.239 104.464 122.599 103.568 124.231 102.928C125.895 102.256 127.847 101.92 130.087 101.92C132.327 101.92 134.263 102.256 135.895 102.928C137.527 103.568 138.887 104.464 139.975 105.616C141.063 106.768 141.879 108.112 142.423 109.648C142.999 111.184 143.335 112.832 143.431 114.592C143.463 115.488 143.479 116.48 143.479 117.568C143.511 118.656 143.511 119.744 143.479 120.832C143.479 121.888 143.463 122.848 143.431 123.712C143.335 125.472 143.015 127.136 142.471 128.704C141.927 130.24 141.111 131.6 140.023 132.784C138.967 133.936 137.607 134.848 135.943 135.52C134.311 136.16 132.359 136.48 130.087 136.48ZM130.087 130.24C131.943 130.24 133.303 129.632 134.167 128.416C135.031 127.2 135.495 125.552 135.559 123.472C135.591 122.544 135.607 121.584 135.607 120.592C135.639 119.6 135.639 118.608 135.607 117.616C135.607 116.624 135.591 115.696 135.559 114.832C135.495 112.848 135.031 111.232 134.167 109.984C133.303 108.736 131.943 108.096 130.087 108.064C128.199 108.096 126.823 108.736 125.959 109.984C125.127 111.232 124.679 112.848 124.615 114.832C124.583 115.696 124.551 116.624 124.519 117.616C124.519 118.608 124.519 119.6 124.519 120.592C124.551 121.584 124.583 122.544 124.615 123.472C124.679 125.552 125.143 127.2 126.007 128.416C126.871 129.632 128.231 130.24 130.087 130.24ZM149.045 136C148.341 136 147.989 135.68 147.989 135.04C147.989 134.848 148.053 134.672 148.181 134.512L171.893 103.312C172.117 103.024 172.341 102.8 172.565 102.64C172.789 102.48 173.109 102.4 173.525 102.4H176.501C177.205 102.4 177.557 102.72 177.557 103.36C177.557 103.552 177.493 103.728 177.365 103.888L153.653 135.088C153.429 135.376 153.205 135.6 152.981 135.76C152.789 135.92 152.469 136 152.021 136H149.045ZM172.661 136.24C170.485 136.24 168.757 135.664 167.477 134.512C166.229 133.36 165.541 131.824 165.413 129.904C165.349 129.072 165.317 128.336 165.317 127.696C165.349 127.056 165.381 126.288 165.413 125.392C165.509 123.472 166.165 121.92 167.381 120.736C168.629 119.552 170.389 118.96 172.661 118.96C174.933 118.96 176.677 119.552 177.893 120.736C179.141 121.92 179.813 123.472 179.909 125.392C179.973 126.288 180.005 127.056 180.005 127.696C180.005 128.336 179.973 129.072 179.909 129.904C179.813 131.824 179.109 133.36 177.797 134.512C176.517 135.664 174.805 136.24 172.661 136.24ZM172.661 132.304C173.269 132.304 173.749 132.176 174.101 131.92C174.453 131.664 174.709 131.328 174.869 130.912C175.061 130.496 175.173 130.064 175.205 129.616C175.269 128.88 175.301 128.224 175.301 127.648C175.301 127.04 175.269 126.368 175.205 125.632C175.173 124.96 174.965 124.352 174.581 123.808C174.197 123.264 173.557 122.992 172.661 122.992C171.765 122.992 171.125 123.264 170.741 123.808C170.389 124.352 170.181 124.96 170.117 125.632C170.085 126.368 170.069 127.04 170.069 127.648C170.069 128.224 170.085 128.88 170.117 129.616C170.181 130.064 170.277 130.496 170.405 130.912C170.565 131.328 170.821 131.664 171.173 131.92C171.557 132.176 172.053 132.304 172.661 132.304ZM152.933 119.344C150.757 119.344 149.029 118.784 147.749 117.664C146.501 116.512 145.813 114.976 145.685 113.056C145.621 112.224 145.589 111.504 145.589 110.896C145.621 110.256 145.653 109.488 145.685 108.592C145.781 106.64 146.437 105.088 147.653 103.936C148.901 102.752 150.661 102.16 152.933 102.16C155.237 102.16 156.997 102.752 158.213 103.936C159.429 105.088 160.085 106.64 160.181 108.592C160.245 109.488 160.277 110.256 160.277 110.896C160.277 111.504 160.245 112.224 160.181 113.056C160.085 114.976 159.397 116.512 158.117 117.664C156.837 118.784 155.109 119.344 152.933 119.344ZM152.933 115.456C153.541 115.456 154.021 115.328 154.373 115.072C154.725 114.816 154.981 114.48 155.141 114.064C155.333 113.648 155.445 113.232 155.477 112.816C155.541 112.048 155.573 111.376 155.573 110.8C155.573 110.192 155.541 109.536 155.477 108.832C155.445 108.16 155.237 107.552 154.853 107.008C154.469 106.432 153.829 106.144 152.933 106.144C152.037 106.144 151.397 106.432 151.013 107.008C150.661 107.552 150.453 108.16 150.389 108.832C150.357 109.536 150.341 110.192 150.341 110.8C150.341 111.376 150.357 112.048 150.389 112.816C150.453 113.232 150.565 113.648 150.725 114.064C150.885 114.48 151.141 114.816 151.493 115.072C151.845 115.328 152.325 115.456 152.933 115.456Z" fill="#A5959A"/>
</g>
</g>
<defs>
<clipPath id="clip0_548_2">
<rect width="260" height="346.66" fill="white"/>
</clipPath>
</defs>
</svg>
