<svg width="260" height="347" viewBox="0 0 260 347" fill="none" xmlns="http://www.w3.org/2000/svg">
<g clip-path="url(#clip0_738_67)">
<mask id="path-2-inside-1_738_67" fill="white">
<path d="M0 239H260V347H0V239Z"/>
</mask>
<path d="M0 242H260V236H0V242Z" fill="#2E3034" mask="url(#path-2-inside-1_738_67)"/>
<path d="M46 290V269H67V290H61V272H52V290H46ZM70 290V269H76V281H79V278H82V275H85V269H91V290H85V281H82V284H79V287H76V290H70ZM103 275H106V278H109V281H112V287H115V290H109V287H106V281H100V290H94V269H100V278H103V275ZM115 269V272H112V275H106V272H109V269H115ZM124 290V287H121V284H118V275H121V272H124V269H136V272H139V275H133V272H127V275H124V284H127V287H133V284H139V287H136V290H124ZM142 290V269H163V272H148V278H160V281H148V287H163V290H142ZM166 290V284H169V281H172V269H187V290H181V272H175V287H172V290H166ZM190 290V269H196V275H208V278H211V287H208V290H190ZM196 287H205V278H196V287ZM82 314V293H100V296H88V302H100V305H103V311H100V314H82ZM88 311H97V305H88V311ZM106 314V299H109V296H112V293H121V296H124V299H127V314H121V308H112V314H106ZM112 305H121V299H118V296H115V299H112V305ZM139 314V296H133V293H151V296H145V314H139ZM154 314V308H157V305H160V293H175V314H169V296H163V311H160V314H154Z" fill="#2E3034"/>
<path d="M25.9985 119.637L130.137 15.4985L234.276 119.637L167.066 186.459L141.61 161.003L182.621 119.99L129.941 67.3108L78.3225 118.93L156.653 197.26L130.137 223.776L25.9985 119.637Z" fill="#2E3034"/>
<path fill-rule="evenodd" clip-rule="evenodd" d="M132.418 151.81L99.1841 118.576L135.021 82.7397L141.031 88.7501L143.854 91.5729L168.255 115.974L132.418 151.81ZM132.418 121.5L136.315 117.603L129.208 110.495L125.31 114.392L132.418 121.5ZM144.928 108.103L141.031 112L133.924 104.892L137.821 100.995L144.928 108.103Z" fill="#2E3034"/>
</g>
<defs>
<clipPath id="clip0_738_67">
<rect width="260" height="346.66" rx="10" fill="white"/>
</clipPath>
</defs>
</svg>
