<svg width="245" height="319" viewBox="0 0 245 319" fill="none" xmlns="http://www.w3.org/2000/svg">
<path d="M122.5 52.25C78.3383 52.25 42.5 88.0451 42.5 132.25C42.5 176.455 78.2951 212.25 122.5 212.25C166.705 212.25 202.5 176.455 202.5 132.25C202.5 88.0451 166.662 52.25 122.5 52.25ZM122.5 165.716C103.999 165.716 89.0337 150.708 89.0337 132.25C89.0337 113.792 104.042 98.7837 122.5 98.7837C141.001 98.7837 155.966 113.792 155.966 132.25C155.966 150.708 141.001 165.716 122.5 165.716Z" fill="black"/>
<rect x="15" y="249.5" width="215" height="4" fill="black"/>
<path d="M23.2374 278.596L17.4774 270.364H21.2214L26.7654 278.668V270.364H30.1494V278.668L35.6934 270.364H39.4374L33.6774 278.596L39.7734 287.5H35.8854L30.1494 278.812V287.5H26.7654V278.812L21.0294 287.5H17.1414L23.2374 278.596ZM47.99 287.5L43.862 274.06H43.766C43.782 274.38 43.806 274.86 43.838 275.5C43.87 276.14 43.902 276.828 43.934 277.564C43.966 278.284 43.982 278.94 43.982 279.532V287.5H40.742V270.364H45.686L49.742 283.468H49.814L54.11 270.364H59.054V287.5H55.67V279.388C55.67 278.844 55.678 278.22 55.694 277.516C55.726 276.812 55.75 276.148 55.766 275.524C55.798 274.884 55.822 274.404 55.838 274.084H55.742L51.326 287.5H47.99ZM62.1827 270.364H65.4467V278.644C65.4467 279.044 65.4387 279.492 65.4227 279.988C65.4067 280.484 65.3907 280.972 65.3747 281.452C65.3587 281.916 65.3427 282.324 65.3267 282.676C65.3107 283.012 65.2947 283.244 65.2787 283.372H65.3507L73.2707 270.364H77.6147V287.5H74.3747V279.268C74.3747 278.836 74.3827 278.364 74.3987 277.852C74.4147 277.324 74.4307 276.82 74.4467 276.34C74.4787 275.86 74.5027 275.444 74.5187 275.092C74.5507 274.724 74.5747 274.484 74.5907 274.372H74.4947L66.5507 287.5H62.1827V270.364ZM104.409 287.5H100.785V280.108H93.9926V287.5H90.3686V270.364H93.9926V277.084H100.785V270.364H104.409V287.5ZM118.008 287.5L116.76 283.42H110.52L109.272 287.5H105.36L111.408 270.292H115.848L121.92 287.5H118.008ZM114.648 276.388C114.568 276.116 114.464 275.772 114.336 275.356C114.208 274.94 114.08 274.516 113.952 274.084C113.824 273.652 113.72 273.276 113.64 272.956C113.56 273.276 113.448 273.676 113.304 274.156C113.176 274.62 113.048 275.068 112.92 275.5C112.808 275.916 112.72 276.212 112.656 276.388L111.432 280.372H115.896L114.648 276.388ZM146.487 287.5H142.359L136.143 278.812V287.5H132.519V270.364H136.143V278.668L142.287 270.364H146.151L139.911 278.596L146.487 287.5ZM161.484 287.5H157.86V280.108H151.068V287.5H147.444V270.364H151.068V277.084H157.86V270.364H161.484V287.5ZM180.147 278.908C180.147 280.236 179.979 281.444 179.643 282.532C179.323 283.604 178.827 284.532 178.155 285.316C177.499 286.1 176.651 286.7 175.611 287.116C174.587 287.532 173.379 287.74 171.987 287.74C170.595 287.74 169.379 287.532 168.339 287.116C167.315 286.684 166.467 286.084 165.795 285.316C165.139 284.532 164.643 283.596 164.307 282.508C163.987 281.42 163.827 280.212 163.827 278.884C163.827 277.108 164.115 275.564 164.691 274.252C165.283 272.94 166.179 271.924 167.379 271.204C168.595 270.468 170.139 270.1 172.011 270.1C173.867 270.1 175.395 270.468 176.595 271.204C177.795 271.924 178.683 272.948 179.259 274.276C179.851 275.588 180.147 277.132 180.147 278.908ZM167.643 278.908C167.643 280.108 167.795 281.14 168.099 282.004C168.403 282.868 168.875 283.532 169.515 283.996C170.155 284.46 170.979 284.692 171.987 284.692C173.027 284.692 173.859 284.46 174.483 283.996C175.123 283.532 175.587 282.868 175.875 282.004C176.179 281.14 176.331 280.108 176.331 278.908C176.331 277.1 175.995 275.684 175.323 274.66C174.651 273.636 173.547 273.124 172.011 273.124C170.987 273.124 170.155 273.356 169.515 273.82C168.875 274.284 168.403 274.948 168.099 275.812C167.795 276.676 167.643 277.708 167.643 278.908ZM182.497 287.5V270.364H196.057V287.5H192.433V273.388H186.121V287.5H182.497ZM213.148 287.5H209.02L202.804 278.812V287.5H199.18V270.364H202.804V278.668L208.948 270.364H212.812L206.572 278.596L213.148 287.5ZM222.553 282.484C222.073 283.572 221.561 284.516 221.017 285.316C220.489 286.1 219.809 286.7 218.977 287.116C218.145 287.532 217.057 287.74 215.713 287.74C215.297 287.74 214.841 287.708 214.345 287.644C213.849 287.58 213.393 287.492 212.977 287.38V284.26C213.361 284.42 213.785 284.532 214.249 284.596C214.713 284.66 215.145 284.692 215.545 284.692C216.073 284.692 216.497 284.604 216.817 284.428C217.153 284.252 217.417 284.012 217.609 283.708C217.817 283.388 217.985 283.044 218.113 282.676L212.185 270.364H216.025L219.217 277.78C219.297 277.94 219.393 278.148 219.505 278.404C219.617 278.66 219.729 278.924 219.841 279.196C219.953 279.468 220.041 279.708 220.105 279.916H220.225C220.289 279.724 220.369 279.492 220.465 279.22C220.577 278.932 220.689 278.644 220.801 278.356C220.929 278.052 221.041 277.788 221.137 277.564L224.113 270.364H227.857L222.553 282.484Z" fill="black"/>
</svg>
