<svg width="260" height="347" viewBox="0 0 260 347" fill="none" xmlns="http://www.w3.org/2000/svg">
<g clip-path="url(#clip0_716_66)">
<mask id="path-2-inside-1_716_66" fill="white">
<path d="M0 239H260V347H0V239Z"/>
</mask>
<path d="M0 242H260V236H0V242Z" fill="#17191D" mask="url(#path-2-inside-1_716_66)"/>
<path d="M60 269V278H57V275H54V269H60ZM66 278H69V281H66V290H63V281H60V278H63V269H66V278ZM75 269V275H72V278H69V269H75ZM57 281H60V290H54V284H57V281ZM69 290V281H72V284H75V290H69ZM78 290V269H84V272H87V275H90V272H93V269H99V290H93V278H90V284H87V278H84V290H78ZM102 290V269H108V281H111V278H114V275H117V269H123V290H117V281H114V284H111V287H108V290H102ZM150 290V269H156V278H165V269H171V290H165V281H156V290H150ZM174 290V275H177V272H180V269H189V272H192V275H195V290H189V284H180V290H174ZM180 281H189V275H186V272H183V275H180V281ZM63 299H66V302H69V305H72V311H75V314H69V311H66V305H60V314H54V293H60V302H63V299ZM75 293V296H72V299H66V296H69V293H75ZM78 314V293H84V302H93V293H99V314H93V305H84V314H78ZM105 314V311H102V296H105V293H120V296H123V311H120V314H105ZM108 311H117V296H108V311ZM126 314V293H147V314H141V296H132V314H126ZM159 299H162V302H165V305H168V311H171V314H165V311H162V305H156V314H150V293H156V302H159V299ZM171 293V296H168V299H162V296H165V293H171ZM177 314V311H174V308H180V311H189V305H177V302H174V293H180V302H189V293H195V311H192V314H177Z" fill="#17191D"/>
<path d="M172.479 114.195C172.479 127.558 153.236 138.391 129.5 138.391C105.764 138.391 86.5215 127.558 86.5215 114.195V142.848C86.5215 156.21 105.764 167.043 129.5 167.043C153.236 167.043 172.479 156.21 172.479 142.848V114.195Z" fill="#17191D"/>
<path d="M129.5 205.246C174.511 205.246 211 186.004 211 162.268V143.166C211 166.902 174.511 186.145 129.5 186.145C84.4888 186.145 48 166.902 48 143.166V162.268C48 186.004 84.4888 205.246 129.5 205.246Z" fill="#17191D"/>
<path d="M48 143.166V162.268C48 186.004 84.4888 205.246 129.5 205.246C174.511 205.246 211 186.004 211 162.268V143.166M48 143.166C48 166.902 84.4888 186.145 129.5 186.145C174.511 186.145 211 166.902 211 143.166M48 143.166C48 127.166 64.5796 113.208 89.1733 105.809M211 143.166C211 127.166 194.42 113.208 169.827 105.809M172.479 114.195C172.479 127.558 153.236 138.391 129.5 138.391C105.764 138.391 86.5215 127.558 86.5215 114.195M172.479 114.195V142.848C172.479 156.21 153.236 167.043 129.5 167.043C105.764 167.043 86.5215 156.21 86.5215 142.848V114.195M172.479 114.195C172.479 111.247 171.542 108.422 169.827 105.809M86.5215 114.195C86.5215 111.247 87.4582 108.422 89.1733 105.809M89.1733 105.809C95.2314 96.5798 111.001 90 129.5 90C130.244 90 130.984 90.0107 131.718 90.0317M169.827 105.809C165.326 98.953 155.467 93.559 143.11 91.2383M131.718 90.0317C132.381 85.3963 133.232 79.468 134.157 73.0364C137.107 52.6681 138.067 46.4097 138.199 46.5007C138.286 46.5667 140.608 49.494 143.332 53.0101C146.474 57.035 148.343 59.3806 148.409 59.3352C148.457 59.3027 150.577 55.9437 153.114 51.8683C155.651 47.793 157.756 44.4724 157.782 44.4689C157.868 44.4934 168.037 50.8483 168.022 50.8867C168.019 50.9027 165.911 54.2807 163.34 58.4075L158.664 65.8964L159.614 66.0831C163.637 66.9134 174.96 69.3303 174.986 69.3683C175.006 69.3968 164.978 76.2941 152.7 84.6886C148.997 87.2204 145.815 89.3937 143.11 91.2383M131.718 90.0317C130.87 95.9667 130.331 99.7823 130.342 99.8216C130.36 99.8951 134.071 97.4021 143.11 91.2383" stroke="#17191D" stroke-width="3"/>
<g filter="url(#filter0_d_716_66)">
<rect x="10" y="10" width="120" height="20" fill="#17191D" shape-rendering="crispEdges"/>
<rect x="10.5" y="10.5" width="119" height="19" stroke="#17191D" shape-rendering="crispEdges"/>
<path d="M15 23.75V15H23.75V23.75H21.25V16.25H17.5V23.75H15ZM26.25 23.75V22.5H25V16.25H26.25V15H32.5V16.25H33.75V22.5H32.5V23.75H26.25ZM27.5 22.5H31.25V16.25H27.5V22.5ZM35 23.75V15H43.75V23.75H41.25V16.25H37.5V23.75H35ZM46.25 23.75V22.5H45V21.25H47.5V22.5H51.25V20H46.25V18.75H45V15H47.5V18.75H51.25V15H53.75V22.5H52.5V23.75H46.25ZM55 23.75V21.25H56.25V20H57.5V15H63.75V23.75H61.25V16.25H58.75V22.5H57.5V23.75H55ZM65 23.75V22.5H66.25V21.25H67.5V20H65V16.25H66.25V15H73.75V23.75H71.25V21.25H68.75V23.75H65ZM68.75 20H71.25V16.25H67.5V18.75H68.75V20ZM75 23.75V15H82.5V16.25H83.75V20H82.5V21.25H77.5V23.75H75ZM77.5 20H81.25V16.25H77.5V20ZM85 23.75V15H87.5V18.75H91.25V15H93.75V23.75H91.25V20H87.5V23.75H85ZM95 23.75V15H97.5V17.5H100V23.75H95ZM101.25 23.75V15H103.75V23.75H101.25ZM97.5 22.5H98.75V18.75H97.5V22.5ZM106.25 16.25V15H112.5V16.25H106.25ZM105 23.75V17.5H107.5V21.25H108.75V20H110V18.75H111.25V17.5H113.75V23.75H111.25V21.25H110V22.5H108.75V23.75H105ZM117.5 21.25V15H121.25V18.75H120V21.25H117.5ZM117.5 23.75V22.5H120V23.75H117.5Z" fill="#00BDA6"/>
</g>
</g>
<defs>
<filter id="filter0_d_716_66" x="10" y="10" width="121" height="21" filterUnits="userSpaceOnUse" color-interpolation-filters="sRGB">
<feFlood flood-opacity="0" result="BackgroundImageFix"/>
<feColorMatrix in="SourceAlpha" type="matrix" values="0 0 0 0 0 0 0 0 0 0 0 0 0 0 0 0 0 0 127 0" result="hardAlpha"/>
<feOffset dx="1" dy="1"/>
<feComposite in2="hardAlpha" operator="out"/>
<feColorMatrix type="matrix" values="0 0 0 0 0.0901961 0 0 0 0 0.0980392 0 0 0 0 0.113725 0 0 0 1 0"/>
<feBlend mode="normal" in2="BackgroundImageFix" result="effect1_dropShadow_716_66"/>
<feBlend mode="normal" in="SourceGraphic" in2="effect1_dropShadow_716_66" result="shape"/>
</filter>
<clipPath id="clip0_716_66">
<rect width="260" height="346.66" rx="10" fill="white"/>
</clipPath>
</defs>
</svg>
