<svg width="260" height="347" viewBox="0 0 260 347" fill="none" xmlns="http://www.w3.org/2000/svg">
<g clip-path="url(#clip0_353_6)">
<rect width="260" height="346.66" fill="#FF4F37"/>
<mask id="path-1-inside-1_353_6" fill="white">
<path d="M0 239H260V347H0V239Z"/>
</mask>
<path d="M0 239H260V347H0V239Z" fill="#FF4F37"/>
<path d="M0 242H260V236H0V242Z" fill="#252525" mask="url(#path-1-inside-1_353_6)"/>
<path d="M60 269V278H57V275H54V269H60ZM66 278H69V281H66V290H63V281H60V278H63V269H66V278ZM75 269V275H72V278H69V269H75ZM57 281H60V290H54V284H57V281ZM69 290V281H72V284H75V290H69ZM78 290V269H84V272H87V275H90V272H93V269H99V290H93V278H90V284H87V278H84V290H78ZM102 290V269H108V281H111V278H114V275H117V269H123V290H117V281H114V284H111V287H108V290H102ZM150 290V269H156V278H165V269H171V290H165V281H156V290H150ZM174 290V275H177V272H180V269H189V272H192V275H195V290H189V284H180V290H174ZM180 281H189V275H186V272H183V275H180V281ZM63 299H66V302H69V305H72V311H75V314H69V311H66V305H60V314H54V293H60V302H63V299ZM75 293V296H72V299H66V296H69V293H75ZM78 314V293H84V302H93V293H99V314H93V305H84V314H78ZM105 314V311H102V296H105V293H120V296H123V311H120V314H105ZM108 311H117V296H108V311ZM126 314V293H147V314H141V296H132V314H126ZM159 299H162V302H165V305H168V311H171V314H165V311H162V305H156V314H150V293H156V302H159V299ZM171 293V296H168V299H162V296H165V293H171ZM177 314V311H174V308H180V311H189V305H177V302H174V293H180V302H189V293H195V311H192V314H177Z" fill="#252525"/>
<path d="M211 115.166H209.5C209.5 126.202 200.991 136.551 186.43 144.23C171.937 151.872 151.812 156.645 129.5 156.645C107.188 156.645 87.0631 151.872 72.5705 144.23C58.0093 136.551 49.5 126.202 49.5 115.166H48H46.5V134.268C46.5 146.968 56.2351 158.108 71.1711 165.985C86.1757 173.897 106.801 178.746 129.5 178.746C152.199 178.746 172.824 173.897 187.829 165.985C202.765 158.108 212.5 146.968 212.5 134.268V115.166H211Z" fill="#252525" stroke="#252525" stroke-width="3"/>
<path d="M129.5 159.645C152.199 159.645 172.824 154.796 187.829 146.883C202.765 139.007 212.5 127.867 212.5 115.166C212.5 102.465 202.765 91.3252 187.829 83.4488C172.824 75.5362 152.199 70.6875 129.5 70.6875C106.801 70.6875 86.1757 75.5362 71.1711 83.4488C56.2351 91.3252 46.5 102.465 46.5 115.166C46.5 127.867 56.2351 139.007 71.1711 146.883C86.1757 154.796 106.801 159.645 129.5 159.645Z" fill="#FF4F37" stroke="#252525" stroke-width="3"/>
<path d="M170.979 86.1953C170.979 92.0947 166.715 97.7405 159.155 101.997C151.641 106.227 141.159 108.891 129.5 108.891C117.841 108.891 107.359 106.227 99.8455 101.997C92.2847 97.7405 88.0215 92.0947 88.0215 86.1953H86.5215H85.0215V114.848C85.0215 122.311 90.3793 128.763 98.3737 133.263C106.415 137.79 117.423 140.543 129.5 140.543C141.577 140.543 152.585 137.79 160.626 133.263C168.621 128.763 173.979 122.311 173.979 114.848V86.1953H172.479H170.979Z" fill="#252525" stroke="#252525" stroke-width="3"/>
<path d="M129.5 111.891C141.577 111.891 152.585 109.138 160.626 104.611C168.621 100.111 173.979 93.6586 173.979 86.1953C173.979 78.732 168.621 72.2801 160.626 67.7795C152.585 63.2526 141.577 60.5 129.5 60.5C117.423 60.5 106.415 63.2526 98.3737 67.7795C90.3793 72.2801 85.0215 78.732 85.0215 86.1953C85.0215 93.6586 90.3793 100.111 98.3737 104.611C106.415 109.138 117.423 111.891 129.5 111.891Z" fill="#FF4F37" stroke="#252525" stroke-width="3"/>
</g>
<defs>
<clipPath id="clip0_353_6">
<rect width="260" height="346.66" fill="white"/>
</clipPath>
</defs>
</svg>
