<svg width="260" height="347" viewBox="0 0 260 347" fill="none" xmlns="http://www.w3.org/2000/svg">
<g clip-path="url(#clip0_703_296)">
<mask id="path-2-inside-1_703_296" fill="white">
<path d="M0 239H260V347H0V239Z"/>
</mask>
<path d="M0 242H260V236H0V242Z" fill="#F2F2F2" mask="url(#path-2-inside-1_703_296)"/>
<path d="M60 269V278H57V275H54V269H60ZM66 278H69V281H66V290H63V281H60V278H63V269H66V278ZM75 269V275H72V278H69V269H75ZM57 281H60V290H54V284H57V281ZM69 290V281H72V284H75V290H69ZM78 290V269H84V272H87V275H90V272H93V269H99V290H93V278H90V284H87V278H84V290H78ZM102 290V269H108V281H111V278H114V275H117V269H123V290H117V281H114V284H111V287H108V290H102ZM150 290V269H156V278H165V269H171V290H165V281H156V290H150ZM174 290V275H177V272H180V269H189V272H192V275H195V290H189V284H180V290H174ZM180 281H189V275H186V272H183V275H180V281ZM63 299H66V302H69V305H72V311H75V314H69V311H66V305H60V314H54V293H60V302H63V299ZM75 293V296H72V299H66V296H69V293H75ZM78 314V293H84V302H93V293H99V314H93V305H84V314H78ZM105 314V311H102V296H105V293H120V296H123V311H120V314H105ZM108 311H117V296H108V311ZM126 314V293H147V314H141V296H132V314H126ZM159 299H162V302H165V305H168V311H171V314H165V311H162V305H156V314H150V293H156V302H159V299ZM171 293V296H168V299H162V296H165V293H171ZM177 314V311H174V308H180V311H189V305H177V302H174V293H180V302H189V293H195V311H192V314H177Z" fill="#F2F2F2"/>
<path d="M211 143.166H209.5C209.5 154.202 200.991 164.551 186.43 172.23C171.937 179.872 151.812 184.645 129.5 184.645C107.188 184.645 87.0631 179.872 72.5705 172.23C58.0093 164.551 49.5 154.202 49.5 143.166H48H46.5V162.268C46.5 174.968 56.2351 186.108 71.1711 193.985C86.1757 201.897 106.801 206.746 129.5 206.746C152.199 206.746 172.824 201.897 187.829 193.985C202.765 186.108 212.5 174.968 212.5 162.268V143.166H211Z" fill="#F2F2F2" stroke="#F2F2F2" stroke-width="3"/>
<path d="M129.5 187.645C152.199 187.645 172.824 182.796 187.829 174.883C202.765 167.007 212.5 155.867 212.5 143.166C212.5 130.465 202.765 119.325 187.829 111.449C172.824 103.536 152.199 98.6875 129.5 98.6875C106.801 98.6875 86.1757 103.536 71.1711 111.449C56.2351 119.325 46.5 130.465 46.5 143.166C46.5 155.867 56.2351 167.007 71.1711 174.883C86.1757 182.796 106.801 187.645 129.5 187.645Z" fill="#EF552B" stroke="#F2F2F2" stroke-width="3"/>
<path d="M170.979 114.195C170.979 120.095 166.715 125.74 159.155 129.997C151.641 134.227 141.159 136.891 129.5 136.891C117.841 136.891 107.359 134.227 99.8455 129.997C92.2847 125.74 88.0215 120.095 88.0215 114.195H86.5215H85.0215V142.848C85.0215 150.311 90.3793 156.763 98.3737 161.263C106.415 165.79 117.423 168.543 129.5 168.543C141.577 168.543 152.585 165.79 160.626 161.263C168.621 156.763 173.979 150.311 173.979 142.848V114.195H172.479H170.979Z" fill="#F2F2F2" stroke="#F2F2F2" stroke-width="3"/>
<path d="M129.5 139.891C141.577 139.891 152.585 137.138 160.626 132.611C168.621 128.111 173.979 121.659 173.979 114.195C173.979 106.732 168.621 100.28 160.626 95.7795C152.585 91.2526 141.577 88.5 129.5 88.5C117.423 88.5 106.415 91.2526 98.3737 95.7795C90.3793 100.28 85.0215 106.732 85.0215 114.195C85.0215 121.659 90.3793 128.111 98.3737 132.611C106.415 137.138 117.423 139.891 129.5 139.891Z" fill="#EF552B" stroke="#F2F2F2" stroke-width="3"/>
<path d="M152.7 84.6886C164.978 76.2941 175.006 69.3968 174.986 69.3683C174.96 69.3303 163.637 66.9134 159.614 66.0831L158.664 65.8963L163.34 58.4075C165.911 54.2807 168.019 50.9027 168.022 50.8867C168.037 50.8483 157.868 44.4934 157.782 44.4689C157.756 44.4724 155.651 47.7929 153.114 51.8683C150.577 55.9437 148.457 59.3027 148.409 59.3351C148.343 59.3806 146.474 57.035 143.332 53.0101C140.608 49.494 138.286 46.5666 138.199 46.5007C138.067 46.4097 137.107 52.6681 134.157 73.0364C132.048 87.7028 130.322 99.7516 130.342 99.8216C130.365 99.917 136.624 95.6801 152.7 84.6886ZM137.566 73.6602C139.062 63.3147 140.313 54.8513 140.339 54.8478C140.371 54.8538 142.249 57.2344 144.503 60.1242C146.764 63.0236 148.643 65.4041 148.675 65.4102C148.707 65.4162 150.984 61.7969 153.743 57.3743C156.512 52.9453 158.802 49.3035 158.84 49.2776C158.963 49.1932 163.206 51.8938 163.179 52.0377C163.164 52.1177 160.919 55.743 158.204 60.1076C155.473 64.4692 153.237 68.088 153.225 68.1519C153.213 68.2159 156.165 68.8865 159.786 69.6577C163.417 70.4225 166.391 71.0641 166.404 71.0831C166.417 71.1021 159.337 75.9708 150.658 81.9048C141.513 88.1569 134.878 92.6375 134.864 92.5771C134.841 92.5231 136.06 84.0122 137.566 73.6602Z" fill="#F2F2F2"/>
<path d="M137.566 73.6602C139.062 63.3147 140.313 54.8513 140.339 54.8478C140.371 54.8538 142.249 57.2344 144.503 60.1242C146.764 63.0236 148.643 65.4042 148.675 65.4102C148.707 65.4162 150.984 61.7969 153.743 57.3743C156.512 52.9453 158.802 49.3035 158.84 49.2776C158.963 49.1932 163.206 51.8938 163.179 52.0377C163.164 52.1177 160.919 55.743 158.204 60.1076C155.473 64.4692 153.237 68.088 153.225 68.1519C153.213 68.2159 156.165 68.8865 159.786 69.6577C163.417 70.4225 166.391 71.0641 166.404 71.0831C166.417 71.1021 159.337 75.9708 150.658 81.9048C141.513 88.1569 134.878 92.6375 134.864 92.5771C134.841 92.5231 136.06 84.0122 137.566 73.6602Z" fill="#EF552B"/>
</g>
<defs>
<clipPath id="clip0_703_296">
<rect width="260" height="346.66" rx="10" fill="white"/>
</clipPath>
</defs>
</svg>
