<svg width="245" height="319" viewBox="0 0 245 319" fill="none" xmlns="http://www.w3.org/2000/svg">
<path d="M165.828 190.796C163.274 189.665 160.218 188.702 156.325 187.823C160.218 186.944 163.274 185.981 165.828 184.851C177.089 179.911 178.303 171.287 178.303 167.813C178.303 164.338 177.089 155.714 165.828 150.775C163.274 149.644 160.218 148.681 156.325 147.802C160.218 146.923 163.274 145.96 165.828 144.83C177.089 139.89 178.303 131.266 178.303 127.792C178.303 124.317 177.089 115.693 165.828 110.754C163.274 109.623 160.218 108.661 156.325 107.781C160.218 106.902 163.274 105.939 165.828 104.809C177.089 99.8693 178.303 91.2455 178.303 87.7709C178.303 84.2963 177.089 75.6726 165.828 70.7327C163.274 69.6024 160.218 68.6396 156.325 67.7605C160.218 66.8813 163.274 65.9185 165.828 64.7882C177.089 59.8484 178.303 51.2246 178.303 47.75H148.371H88.6329C84.7397 48.6291 81.6837 49.592 79.1301 50.7223C67.8689 55.6621 66.6549 64.2858 66.6549 67.7605C66.6549 71.2351 67.8689 79.8588 79.1301 84.7987C81.6837 85.929 84.7397 86.8918 88.6329 87.7709C84.7397 88.65 81.6837 89.6129 79.1301 90.7432C67.8689 95.683 66.6549 104.307 66.6549 107.781C66.6549 111.256 67.8689 119.88 79.1301 124.82C81.6837 125.95 84.7397 126.913 88.6329 127.792C84.7397 128.671 81.6837 129.634 79.1301 130.764C67.8689 135.704 66.6549 144.328 66.6549 147.802C66.6549 151.277 67.8689 159.901 79.1301 164.841C81.6837 165.971 84.7397 166.934 88.6329 167.813C84.7397 168.692 81.6837 169.655 79.1301 170.785C67.8689 175.725 66.6549 184.349 66.6549 187.823C66.6549 191.298 67.8689 199.922 79.1301 204.861C81.6418 205.95 84.6141 206.871 88.3818 207.75H178.345C178.261 204.234 177.006 195.652 165.828 190.796Z" fill="black"/>
<rect x="15" y="250.5" width="215" height="3" fill="black"/>
<path d="M36.4312 270.364C38.6392 270.364 40.2472 270.844 41.2552 271.804C42.2792 272.748 42.7912 274.052 42.7912 275.716C42.7912 276.468 42.6792 277.188 42.4552 277.876C42.2312 278.548 41.8552 279.156 41.3272 279.7C40.8152 280.228 40.1352 280.644 39.2872 280.948C38.4392 281.252 37.3912 281.404 36.1432 281.404H34.5832V287.5H30.9592V270.364H36.4312ZM36.2392 273.34H34.5832V278.428H35.7832C36.4712 278.428 37.0632 278.34 37.5592 278.164C38.0552 277.988 38.4392 277.708 38.7112 277.324C38.9832 276.94 39.1192 276.444 39.1192 275.836C39.1192 274.988 38.8872 274.364 38.4232 273.964C37.9592 273.548 37.2312 273.34 36.2392 273.34ZM44.8295 270.364H48.0935V278.644C48.0935 279.044 48.0855 279.492 48.0695 279.988C48.0535 280.484 48.0375 280.972 48.0215 281.452C48.0055 281.916 47.9895 282.324 47.9735 282.676C47.9575 283.012 47.9415 283.244 47.9255 283.372H47.9975L55.9175 270.364H60.2615V287.5H57.0215V279.268C57.0215 278.836 57.0295 278.364 57.0455 277.852C57.0615 277.324 57.0775 276.82 57.0935 276.34C57.1255 275.86 57.1495 275.444 57.1655 275.092C57.1975 274.724 57.2215 274.484 57.2375 274.372H57.1415L49.1975 287.5H44.8295V270.364ZM70.6593 273.148C69.9713 273.148 69.3553 273.284 68.8113 273.556C68.2833 273.828 67.8353 274.22 67.4673 274.732C67.0993 275.228 66.8193 275.836 66.6273 276.556C66.4513 277.276 66.3633 278.084 66.3633 278.98C66.3633 280.196 66.5073 281.236 66.7953 282.1C67.0993 282.948 67.5713 283.596 68.2113 284.044C68.8513 284.492 69.6673 284.716 70.6593 284.716C71.3633 284.716 72.0593 284.636 72.7473 284.476C73.4513 284.316 74.2113 284.092 75.0273 283.804V286.852C74.2753 287.156 73.5313 287.38 72.7953 287.524C72.0593 287.668 71.2353 287.74 70.3233 287.74C68.5633 287.74 67.1073 287.38 65.9553 286.66C64.8193 285.924 63.9793 284.9 63.4353 283.588C62.8913 282.26 62.6193 280.716 62.6193 278.956C62.6193 277.66 62.7953 276.476 63.1473 275.404C63.4993 274.316 64.0113 273.38 64.6833 272.596C65.3713 271.812 66.2113 271.204 67.2033 270.772C68.2113 270.34 69.3633 270.124 70.6593 270.124C71.5073 270.124 72.3553 270.236 73.2033 270.46C74.0673 270.668 74.8913 270.956 75.6753 271.324L74.4993 274.276C73.8593 273.972 73.2113 273.708 72.5553 273.484C71.9153 273.26 71.2833 273.148 70.6593 273.148ZM85.9166 282.484C85.4366 283.572 84.9246 284.516 84.3806 285.316C83.8526 286.1 83.1726 286.7 82.3406 287.116C81.5086 287.532 80.4206 287.74 79.0766 287.74C78.6606 287.74 78.2046 287.708 77.7086 287.644C77.2126 287.58 76.7566 287.492 76.3406 287.38V284.26C76.7246 284.42 77.1486 284.532 77.6126 284.596C78.0766 284.66 78.5086 284.692 78.9086 284.692C79.4366 284.692 79.8606 284.604 80.1806 284.428C80.5166 284.252 80.7806 284.012 80.9726 283.708C81.1806 283.388 81.3486 283.044 81.4766 282.676L75.5486 270.364H79.3886L82.5806 277.78C82.6606 277.94 82.7566 278.148 82.8686 278.404C82.9806 278.66 83.0926 278.924 83.2046 279.196C83.3166 279.468 83.4046 279.708 83.4686 279.916H83.5886C83.6526 279.724 83.7326 279.492 83.8286 279.22C83.9406 278.932 84.0526 278.644 84.1646 278.356C84.2926 278.052 84.4046 277.788 84.5006 277.564L87.4766 270.364H91.2206L85.9166 282.484ZM105.983 264.724C105.903 265.556 105.671 266.292 105.287 266.932C104.903 267.556 104.303 268.044 103.487 268.396C102.671 268.748 101.575 268.924 100.199 268.924C98.7907 268.924 97.6867 268.756 96.8867 268.42C96.1027 268.068 95.5427 267.58 95.2067 266.956C94.8707 266.332 94.6707 265.588 94.6067 264.724H97.7987C97.8787 265.604 98.1027 266.188 98.4707 266.476C98.8387 266.764 99.4387 266.908 100.271 266.908C100.959 266.908 101.519 266.756 101.951 266.452C102.399 266.132 102.663 265.556 102.743 264.724H105.983ZM92.1827 270.364H95.4467V278.644C95.4467 279.044 95.4387 279.492 95.4227 279.988C95.4067 280.484 95.3907 280.972 95.3747 281.452C95.3587 281.916 95.3427 282.324 95.3267 282.676C95.3107 283.012 95.2947 283.244 95.2787 283.372H95.3507L103.271 270.364H107.615V287.5H104.375V279.268C104.375 278.836 104.383 278.364 104.399 277.852C104.415 277.324 104.431 276.82 104.447 276.34C104.479 275.86 104.503 275.444 104.519 275.092C104.551 274.724 104.575 274.484 104.591 274.372H104.495L96.5507 287.5H92.1827V270.364ZM120.369 287.5V270.364H133.929V287.5H130.305V273.388H123.993V287.5H120.369ZM146.915 287.5H137.051V270.364H146.915V273.34H140.675V277.108H146.483V280.084H140.675V284.5H146.915V287.5ZM156.553 273.148C155.865 273.148 155.249 273.284 154.705 273.556C154.177 273.828 153.729 274.22 153.361 274.732C152.993 275.228 152.713 275.836 152.521 276.556C152.345 277.276 152.257 278.084 152.257 278.98C152.257 280.196 152.401 281.236 152.689 282.1C152.993 282.948 153.465 283.596 154.105 284.044C154.745 284.492 155.561 284.716 156.553 284.716C157.257 284.716 157.953 284.636 158.641 284.476C159.345 284.316 160.105 284.092 160.921 283.804V286.852C160.169 287.156 159.425 287.38 158.689 287.524C157.953 287.668 157.129 287.74 156.217 287.74C154.457 287.74 153.001 287.38 151.849 286.66C150.713 285.924 149.873 284.9 149.329 283.588C148.785 282.26 148.513 280.716 148.513 278.956C148.513 277.66 148.689 276.476 149.041 275.404C149.393 274.316 149.905 273.38 150.577 272.596C151.265 271.812 152.105 271.204 153.097 270.772C154.105 270.34 155.257 270.124 156.553 270.124C157.401 270.124 158.249 270.236 159.097 270.46C159.961 270.668 160.785 270.956 161.569 271.324L160.393 274.276C159.753 273.972 159.105 273.708 158.449 273.484C157.809 273.26 157.177 273.148 156.553 273.148ZM177.33 287.5H173.202L166.986 278.812V287.5H163.362V270.364H166.986V278.668L173.13 270.364H176.994L170.754 278.596L177.33 287.5ZM193.371 278.908C193.371 280.236 193.203 281.444 192.867 282.532C192.547 283.604 192.051 284.532 191.379 285.316C190.723 286.1 189.875 286.7 188.835 287.116C187.811 287.532 186.603 287.74 185.211 287.74C183.819 287.74 182.603 287.532 181.563 287.116C180.539 286.684 179.691 286.084 179.019 285.316C178.363 284.532 177.867 283.596 177.531 282.508C177.211 281.42 177.051 280.212 177.051 278.884C177.051 277.108 177.339 275.564 177.915 274.252C178.507 272.94 179.403 271.924 180.603 271.204C181.819 270.468 183.363 270.1 185.235 270.1C187.091 270.1 188.619 270.468 189.819 271.204C191.019 271.924 191.907 272.948 192.483 274.276C193.075 275.588 193.371 277.132 193.371 278.908ZM180.867 278.908C180.867 280.108 181.019 281.14 181.323 282.004C181.627 282.868 182.099 283.532 182.739 283.996C183.379 284.46 184.203 284.692 185.211 284.692C186.251 284.692 187.083 284.46 187.707 283.996C188.347 283.532 188.811 282.868 189.099 282.004C189.403 281.14 189.555 280.108 189.555 278.908C189.555 277.1 189.219 275.684 188.547 274.66C187.875 273.636 186.771 273.124 185.235 273.124C184.211 273.124 183.379 273.356 182.739 273.82C182.099 274.284 181.627 274.948 181.323 275.812C181.019 276.676 180.867 277.708 180.867 278.908ZM202.968 287.5L198.84 274.06H198.744C198.76 274.38 198.784 274.86 198.816 275.5C198.848 276.14 198.88 276.828 198.912 277.564C198.944 278.284 198.96 278.94 198.96 279.532V287.5H195.72V270.364H200.664L204.72 283.468H204.792L209.088 270.364H214.032V287.5H210.648V279.388C210.648 278.844 210.656 278.22 210.672 277.516C210.704 276.812 210.728 276.148 210.744 275.524C210.776 274.884 210.8 274.404 210.816 274.084H210.72L206.304 287.5H202.968Z" fill="black"/>
</svg>
