<svg width="260" height="347" viewBox="0 0 260 347" fill="none" xmlns="http://www.w3.org/2000/svg">
<g clip-path="url(#clip0_736_27)">
<mask id="path-2-inside-1_736_27" fill="white">
<path d="M0 239H260V347H0V239Z"/>
</mask>
<path d="M0 242H260V236H0V242Z" fill="#2E3034" mask="url(#path-2-inside-1_736_27)"/>
<path d="M40 302V299H37V296H34V287H37V284H40V281H52V284H55V287H49V284H43V287H40V296H43V299H49V296H55V299H52V302H40ZM61 302V299H58V296H64V299H70V296H73V293H61V290H73V287H70V284H64V287H58V284H61V281H73V284H76V287H79V296H76V299H73V302H61ZM82 302V281H88V290H97V281H103V302H97V293H88V302H82ZM106 305V299H109V293H112V281H127V299H130V305H124V302H112V305H106ZM115 299H121V284H115V299ZM130 305V299H133V293H136V281H151V299H154V305H148V302H136V305H130ZM139 299H145V284H139V299ZM154 302V281H172V284H175V293H172V296H160V302H154ZM160 293H169V284H160V293ZM181 302V299H178V284H181V281H196V284H199V299H196V302H181ZM184 299H193V284H184V299ZM205 302V299H202V296H208V299H217V293H205V290H202V281H208V290H217V281H223V299H220V302H205Z" fill="#2E3034"/>
<path d="M20 172.356H81.2651H93.1524H165.848H177.278H239C230.729 167.205 220.241 160.574 208.367 155.586C190.707 148.168 169.983 144.383 148.931 154.508C113.727 171.441 118.299 151.305 91.7808 149.932C88.5804 150.542 78.7962 151.58 65.263 150.847C61.1458 150.625 56.2188 151.836 51.0898 153.841C48.9763 154.667 46.8285 155.627 44.6889 156.678C34.9542 161.457 25.3896 168.092 20 172.356Z" fill="#2E3034"/>
<path d="M93.1524 148.559C113.269 149.474 114.752 160.118 129.271 158.627C147.102 156.796 143.902 149.017 173.163 145.356C165.848 145.356 129.271 117.898 93.1524 148.559Z" fill="#2E3034"/>
<path d="M82.6367 133.915C76.4327 135.599 71.3245 137.268 67.0919 138.918C64.3046 140.005 61.8969 141.083 59.806 142.153C49.8622 147.238 47.0802 152.116 44.6889 156.678C46.8285 155.627 48.9763 154.667 51.0898 153.841C52.309 151.013 60.9653 145.814 85.8372 147.644C96.3565 148.418 104.582 131.627 129.271 131.627C153.96 131.627 172.248 144.441 175.449 144.898C178.649 145.356 206.49 148.986 208.367 155.586C210.653 156.546 212.887 157.567 215.064 158.627C210.196 142.153 191.129 143.858 175.906 136.661C172.753 135.17 169.675 133.799 166.685 132.542C147.946 124.668 132.645 121.318 123.785 121.559C107.014 122.015 95.9488 130.302 82.6367 133.915Z" fill="#2E3034"/>
<path d="M117.841 52L59.806 142.153C61.8969 141.083 64.3046 140.005 67.0919 138.918L117.841 59.7797L166.685 132.542C169.675 133.799 172.753 135.17 175.906 136.661L117.841 52Z" fill="#2E3034"/>
<path d="M81.2651 172.356C81.2651 172.356 109.672 187 129.271 187C148.87 187 177.278 172.356 177.278 172.356H165.848C165.848 172.356 144.039 182.012 129.271 181.966C114.676 181.921 93.1524 172.356 93.1524 172.356H81.2651Z" fill="#2E3034"/>
<path d="M180.478 86.7795C180.478 93.3508 175.156 98.6779 168.591 98.6779C162.026 98.6779 156.704 93.3508 156.704 86.7795C156.704 80.2083 162.026 74.8812 168.591 74.8812C175.156 74.8812 180.478 80.2083 180.478 86.7795Z" fill="#2E3034"/>
<g filter="url(#filter0_d_736_27)">
<rect x="10" y="10" width="70" height="20" fill="#2E3034" shape-rendering="crispEdges"/>
<path d="M15 23.75V15H17.5V18.75H21.25V15H23.75V23.75H21.25V20H17.5V23.75H15ZM26.25 23.75V22.5H25V16.25H26.25V15H32.5V16.25H33.75V22.5H32.5V23.75H26.25ZM27.5 22.5H31.25V16.25H27.5V22.5ZM35 23.75V15H42.5V16.25H43.75V18.75H42.5V20H43.75V22.5H42.5V23.75H35ZM37.5 18.75H41.25V16.25H37.5V18.75ZM37.5 22.5H41.25V20H37.5V22.5ZM45 23.75V15H47.5V17.5H50V23.75H45ZM51.25 23.75V15H53.75V23.75H51.25ZM47.5 22.5H48.75V18.75H47.5V22.5ZM56.25 16.25V15H62.5V16.25H56.25ZM55 23.75V17.5H57.5V21.25H58.75V20H60V18.75H61.25V17.5H63.75V23.75H61.25V21.25H60V22.5H58.75V23.75H55ZM67.5 21.25V15H71.25V18.75H70V21.25H67.5ZM67.5 23.75V22.5H70V23.75H67.5Z" fill="#00BDA6"/>
<rect x="10.5" y="10.5" width="69" height="19" stroke="#2E3034" shape-rendering="crispEdges"/>
</g>
</g>
<defs>
<filter id="filter0_d_736_27" x="10" y="10" width="71" height="21" filterUnits="userSpaceOnUse" color-interpolation-filters="sRGB">
<feFlood flood-opacity="0" result="BackgroundImageFix"/>
<feColorMatrix in="SourceAlpha" type="matrix" values="0 0 0 0 0 0 0 0 0 0 0 0 0 0 0 0 0 0 127 0" result="hardAlpha"/>
<feOffset dx="1" dy="1"/>
<feComposite in2="hardAlpha" operator="out"/>
<feColorMatrix type="matrix" values="0 0 0 0 0.180392 0 0 0 0 0.188235 0 0 0 0 0.203922 0 0 0 1 0"/>
<feBlend mode="normal" in2="BackgroundImageFix" result="effect1_dropShadow_736_27"/>
<feBlend mode="normal" in="SourceGraphic" in2="effect1_dropShadow_736_27" result="shape"/>
</filter>
<clipPath id="clip0_736_27">
<rect width="260" height="346.66" rx="10" fill="white"/>
</clipPath>
</defs>
</svg>
