<svg width="245" height="319" viewBox="0 0 245 319" fill="none" xmlns="http://www.w3.org/2000/svg">
<path d="M162.19 97.5316C162.19 118.989 144.826 136.353 123.368 136.353C101.911 136.353 84.5465 118.989 84.5465 97.5316H42.5V197.831H202.5V97.5316H162.19Z" fill="black"/>
<path d="M123.327 58.6686C101.87 58.6686 84.5052 76.0329 84.5052 97.4903H162.19C162.19 76.0743 144.784 58.6686 123.327 58.6686Z" fill="black"/>
<rect x="15" y="251" width="215" height="3" fill="black"/>
<path d="M98.495 270.864C100.015 270.864 101.287 271.008 102.311 271.296C103.351 271.568 104.127 272.024 104.639 272.664C105.167 273.288 105.431 274.136 105.431 275.208C105.431 275.848 105.327 276.432 105.119 276.96C104.911 277.488 104.607 277.92 104.207 278.256C103.823 278.592 103.351 278.808 102.791 278.904V279.024C103.367 279.136 103.887 279.336 104.351 279.624C104.815 279.912 105.183 280.328 105.455 280.872C105.727 281.416 105.863 282.136 105.863 283.032C105.863 284.072 105.607 284.968 105.095 285.72C104.599 286.456 103.879 287.024 102.935 287.424C101.991 287.808 100.871 288 99.575 288H93.167V270.864H98.495ZM98.903 277.656C99.959 277.656 100.687 277.488 101.087 277.152C101.503 276.816 101.711 276.328 101.711 275.688C101.711 275.032 101.471 274.56 100.991 274.272C100.511 273.984 99.751 273.84 98.711 273.84H96.791V277.656H98.903ZM96.791 280.536V285H99.167C100.255 285 101.015 284.792 101.447 284.376C101.879 283.944 102.095 283.376 102.095 282.672C102.095 282.24 101.999 281.864 101.807 281.544C101.631 281.224 101.319 280.976 100.871 280.8C100.423 280.624 99.815 280.536 99.047 280.536H96.791ZM117.956 288H108.092V270.864H117.956V273.84H111.716V277.608H117.524V280.584H111.716V285H117.956V288ZM127.594 273.648C126.906 273.648 126.29 273.784 125.746 274.056C125.218 274.328 124.77 274.72 124.402 275.232C124.034 275.728 123.754 276.336 123.562 277.056C123.386 277.776 123.298 278.584 123.298 279.48C123.298 280.696 123.442 281.736 123.73 282.6C124.034 283.448 124.506 284.096 125.146 284.544C125.786 284.992 126.602 285.216 127.594 285.216C128.298 285.216 128.994 285.136 129.682 284.976C130.386 284.816 131.146 284.592 131.962 284.304V287.352C131.21 287.656 130.466 287.88 129.73 288.024C128.994 288.168 128.17 288.24 127.258 288.24C125.498 288.24 124.042 287.88 122.89 287.16C121.754 286.424 120.914 285.4 120.37 284.088C119.826 282.76 119.554 281.216 119.554 279.456C119.554 278.16 119.73 276.976 120.082 275.904C120.434 274.816 120.946 273.88 121.618 273.096C122.306 272.312 123.146 271.704 124.138 271.272C125.146 270.84 126.298 270.624 127.594 270.624C128.442 270.624 129.29 270.736 130.138 270.96C131.002 271.168 131.826 271.456 132.61 271.824L131.434 274.776C130.794 274.472 130.146 274.208 129.49 273.984C128.85 273.76 128.218 273.648 127.594 273.648ZM134.403 288V270.864H138.027V277.44H139.203C140.787 277.44 142.091 277.664 143.115 278.112C144.139 278.56 144.891 279.176 145.371 279.96C145.867 280.744 146.115 281.64 146.115 282.648C146.115 283.768 145.867 284.728 145.371 285.528C144.875 286.328 144.107 286.944 143.067 287.376C142.043 287.792 140.715 288 139.083 288H134.403ZM138.987 285.024C140.059 285.024 140.899 284.848 141.507 284.496C142.131 284.144 142.443 283.528 142.443 282.648C142.443 282.04 142.299 281.576 142.011 281.256C141.739 280.936 141.331 280.72 140.787 280.608C140.243 280.48 139.587 280.416 138.819 280.416H138.027V285.024H138.987ZM148.203 288V270.864H151.827V288H148.203Z" fill="black"/>
</svg>
