<svg width="245" height="319" viewBox="0 0 245 319" fill="none" xmlns="http://www.w3.org/2000/svg">
<path d="M110.792 121.282C126.413 105.661 126.413 80.3347 110.792 64.7139C95.1715 49.0931 69.8451 49.0931 54.2243 64.7139C38.6035 80.3347 38.6035 105.661 54.2243 121.282C69.8451 136.903 95.1715 136.903 110.792 121.282Z" fill="black"/>
<path d="M162.5 133.003C184.591 133.003 202.5 115.095 202.5 93.0033C202.5 70.9119 184.591 53.0033 162.5 53.0033C140.409 53.0033 122.5 70.9119 122.5 93.0033C122.5 115.095 140.409 133.003 162.5 133.003Z" fill="black"/>
<path d="M82.5 180.002C104.591 180.002 122.5 169.481 122.5 156.503C122.5 143.524 104.591 133.003 82.5 133.003C60.4086 133.003 42.5 143.524 42.5 156.503C42.5 169.481 60.4086 180.002 82.5 180.002Z" fill="black"/>
<path d="M162.5 180.002C184.591 180.002 202.5 169.481 202.5 156.503C202.5 143.524 184.591 133.003 162.5 133.003C140.409 133.003 122.5 143.524 122.5 156.503C122.5 169.481 140.409 180.002 162.5 180.002Z" fill="black"/>
<path d="M82.5 203.502C104.591 203.502 122.5 198.241 122.5 191.752C122.5 185.263 104.591 180.002 82.5 180.002C60.4086 180.002 42.5 185.263 42.5 191.752C42.5 198.241 60.4086 203.502 82.5 203.502Z" fill="black"/>
<path d="M162.5 203.502C184.591 203.502 202.5 198.241 202.5 191.752C202.5 185.263 184.591 180.002 162.5 180.002C140.409 180.002 122.5 185.263 122.5 191.752C122.5 198.241 140.409 203.502 162.5 203.502Z" fill="black"/>
<rect x="15" y="251" width="215" height="3" fill="black"/>
<path d="M69.5491 288V270.864H83.1091V288H79.4851V273.888H73.1731V288H69.5491ZM96.7199 288L95.4719 283.92H89.2319L87.9839 288H84.0719L90.1199 270.792H94.5599L100.632 288H96.7199ZM93.3599 276.888C93.2799 276.616 93.1759 276.272 93.0479 275.856C92.9199 275.44 92.7919 275.016 92.6639 274.584C92.5359 274.152 92.4319 273.776 92.3519 273.456C92.2719 273.776 92.1599 274.176 92.0159 274.656C91.8879 275.12 91.7599 275.568 91.6319 276C91.5199 276.416 91.4319 276.712 91.3679 276.888L90.1439 280.872H94.6079L93.3599 276.888ZM115.402 265.224C115.322 266.056 115.09 266.792 114.706 267.432C114.322 268.056 113.722 268.544 112.906 268.896C112.09 269.248 110.994 269.424 109.618 269.424C108.21 269.424 107.106 269.256 106.306 268.92C105.522 268.568 104.962 268.08 104.626 267.456C104.29 266.832 104.09 266.088 104.026 265.224H107.218C107.298 266.104 107.522 266.688 107.89 266.976C108.258 267.264 108.858 267.408 109.69 267.408C110.378 267.408 110.938 267.256 111.37 266.952C111.818 266.632 112.082 266.056 112.162 265.224H115.402ZM101.602 270.864H104.866V279.144C104.866 279.544 104.858 279.992 104.842 280.488C104.826 280.984 104.81 281.472 104.794 281.952C104.778 282.416 104.762 282.824 104.746 283.176C104.73 283.512 104.714 283.744 104.698 283.872H104.77L112.69 270.864H117.034V288H113.794V279.768C113.794 279.336 113.802 278.864 113.818 278.352C113.834 277.824 113.85 277.32 113.866 276.84C113.898 276.36 113.922 275.944 113.938 275.592C113.97 275.224 113.994 274.984 114.01 274.872H113.914L105.97 288H101.602V270.864ZM130.024 288H120.16V270.864H130.024V273.84H123.784V277.608H129.592V280.584H123.784V285H130.024V288ZM138.99 288H135.366V273.888H130.71V270.864H143.646V273.888H138.99V288ZM159.056 288H154.928L148.712 279.312V288H145.088V270.864H148.712V279.168L154.856 270.864H158.72L152.48 279.096L159.056 288ZM160.013 270.864H163.277V279.144C163.277 279.544 163.269 279.992 163.253 280.488C163.237 280.984 163.221 281.472 163.205 281.952C163.189 282.416 163.173 282.824 163.157 283.176C163.141 283.512 163.125 283.744 163.109 283.872H163.181L171.101 270.864H175.445V288H172.205V279.768C172.205 279.336 172.213 278.864 172.229 278.352C172.245 277.824 172.261 277.32 172.277 276.84C172.309 276.36 172.333 275.944 172.349 275.592C172.381 275.224 172.405 274.984 172.421 274.872H172.325L164.381 288H160.013V270.864Z" fill="black"/>
</svg>
