<svg width="245" height="319" viewBox="0 0 245 319" fill="none" xmlns="http://www.w3.org/2000/svg">
<path d="M42.5 47.75V207.75H202.5V47.75H42.5ZM152.434 157.684H92.6078V97.8578H152.392V157.684H152.434Z" fill="black"/>
<rect x="15" y="250.5" width="215" height="3" fill="black"/>
<path d="M31.2639 287.5V270.364H44.8239V287.5H41.1999V273.388H34.8879V287.5H31.2639ZM58.4347 287.5L57.1867 283.42H50.9467L49.6987 287.5H45.7867L51.8347 270.292H56.2747L62.3467 287.5H58.4347ZM55.0747 276.388C54.9947 276.116 54.8907 275.772 54.7627 275.356C54.6347 274.94 54.5067 274.516 54.3787 274.084C54.2507 273.652 54.1467 273.276 54.0667 272.956C53.9867 273.276 53.8747 273.676 53.7307 274.156C53.6027 274.62 53.4747 275.068 53.3467 275.5C53.2347 275.916 53.1467 276.212 53.0827 276.388L51.8587 280.372H56.3227L55.0747 276.388ZM76.877 287.5H73.253V273.388H69.053C68.957 274.124 68.853 274.924 68.741 275.788C68.645 276.652 68.533 277.532 68.405 278.428C68.293 279.308 68.173 280.148 68.045 280.948C67.917 281.732 67.789 282.428 67.661 283.036C67.453 284.028 67.173 284.876 66.821 285.58C66.485 286.284 66.013 286.82 65.405 287.188C64.813 287.556 64.037 287.74 63.077 287.74C62.757 287.74 62.453 287.716 62.165 287.668C61.877 287.62 61.605 287.556 61.349 287.476V284.5C61.557 284.564 61.757 284.62 61.949 284.668C62.157 284.716 62.381 284.74 62.621 284.74C62.941 284.74 63.205 284.636 63.413 284.428C63.621 284.22 63.805 283.868 63.965 283.372C64.125 282.86 64.285 282.156 64.445 281.26C64.525 280.876 64.621 280.332 64.733 279.628C64.845 278.908 64.973 278.068 65.117 277.108C65.277 276.132 65.437 275.076 65.597 273.94C65.757 272.788 65.909 271.596 66.053 270.364H76.877V287.5ZM93.9678 287.5H89.8398L83.6238 278.812V287.5H79.9998V270.364H83.6238V278.668L89.7678 270.364H93.6318L87.3918 278.596L93.9678 287.5ZM94.9248 270.364H98.1888V278.644C98.1888 279.044 98.1808 279.492 98.1648 279.988C98.1488 280.484 98.1328 280.972 98.1168 281.452C98.1008 281.916 98.0848 282.324 98.0688 282.676C98.0528 283.012 98.0368 283.244 98.0208 283.372H98.0928L106.013 270.364H110.357V287.5H107.117V279.268C107.117 278.836 107.125 278.364 107.141 277.852C107.157 277.324 107.173 276.82 107.189 276.34C107.221 275.86 107.245 275.444 107.261 275.092C107.293 274.724 107.317 274.484 107.333 274.372H107.237L99.2928 287.5H94.9248V270.364ZM123.111 270.364H126.375V278.644C126.375 279.044 126.367 279.492 126.351 279.988C126.335 280.484 126.319 280.972 126.303 281.452C126.287 281.916 126.271 282.324 126.255 282.676C126.239 283.012 126.223 283.244 126.207 283.372H126.279L134.199 270.364H138.543V287.5H135.303V279.268C135.303 278.836 135.311 278.364 135.327 277.852C135.343 277.324 135.359 276.82 135.375 276.34C135.407 275.86 135.431 275.444 135.447 275.092C135.479 274.724 135.503 274.484 135.519 274.372H135.423L127.479 287.5H123.111V270.364ZM151.297 287.5V270.364H164.857V287.5H161.233V273.388H154.921V287.5H151.297ZM183.532 278.908C183.532 280.236 183.364 281.444 183.028 282.532C182.708 283.604 182.212 284.532 181.54 285.316C180.884 286.1 180.036 286.7 178.996 287.116C177.972 287.532 176.764 287.74 175.372 287.74C173.98 287.74 172.764 287.532 171.724 287.116C170.7 286.684 169.852 286.084 169.18 285.316C168.524 284.532 168.028 283.596 167.692 282.508C167.372 281.42 167.212 280.212 167.212 278.884C167.212 277.108 167.5 275.564 168.076 274.252C168.668 272.94 169.564 271.924 170.764 271.204C171.98 270.468 173.524 270.1 175.396 270.1C177.252 270.1 178.78 270.468 179.98 271.204C181.18 271.924 182.068 272.948 182.644 274.276C183.236 275.588 183.532 277.132 183.532 278.908ZM171.028 278.908C171.028 280.108 171.18 281.14 171.484 282.004C171.788 282.868 172.26 283.532 172.9 283.996C173.54 284.46 174.364 284.692 175.372 284.692C176.412 284.692 177.244 284.46 177.868 283.996C178.508 283.532 178.972 282.868 179.26 282.004C179.564 281.14 179.716 280.108 179.716 278.908C179.716 277.1 179.38 275.684 178.708 274.66C178.036 273.636 176.932 273.124 175.396 273.124C174.372 273.124 173.54 273.356 172.9 273.82C172.26 274.284 171.788 274.948 171.484 275.812C171.18 276.676 171.028 277.708 171.028 278.908ZM198.972 287.5H195.348V273.388H191.148C191.052 274.124 190.948 274.924 190.836 275.788C190.74 276.652 190.628 277.532 190.5 278.428C190.388 279.308 190.268 280.148 190.14 280.948C190.012 281.732 189.884 282.428 189.756 283.036C189.548 284.028 189.268 284.876 188.916 285.58C188.58 286.284 188.108 286.82 187.5 287.188C186.908 287.556 186.132 287.74 185.172 287.74C184.852 287.74 184.548 287.716 184.26 287.668C183.972 287.62 183.7 287.556 183.444 287.476V284.5C183.652 284.564 183.852 284.62 184.044 284.668C184.252 284.716 184.476 284.74 184.716 284.74C185.036 284.74 185.3 284.636 185.508 284.428C185.716 284.22 185.9 283.868 186.06 283.372C186.22 282.86 186.38 282.156 186.54 281.26C186.62 280.876 186.716 280.332 186.828 279.628C186.94 278.908 187.068 278.068 187.212 277.108C187.372 276.132 187.532 275.076 187.692 273.94C187.852 272.788 188.004 271.596 188.148 270.364H198.972V287.5ZM207.855 280.924L203.847 287.5H199.815L204.687 279.964C204.223 279.772 203.759 279.492 203.295 279.124C202.831 278.74 202.447 278.236 202.143 277.612C201.839 276.972 201.687 276.188 201.687 275.26C201.687 273.676 202.255 272.468 203.391 271.636C204.527 270.788 206.119 270.364 208.167 270.364H213.735V287.5H210.111V280.924H207.855ZM208.311 273.34C207.687 273.34 207.151 273.412 206.703 273.556C206.271 273.7 205.935 273.932 205.695 274.252C205.471 274.572 205.359 274.996 205.359 275.524C205.359 276.276 205.607 276.876 206.103 277.324C206.615 277.756 207.383 277.972 208.407 277.972H210.111V273.34H208.311Z" fill="black"/>
</svg>
