<svg width="260" height="347" viewBox="0 0 260 347" fill="none" xmlns="http://www.w3.org/2000/svg">
<mask id="path-2-inside-1_716_81" fill="white">
<path d="M0 239H260V347H0V239Z"/>
</mask>
<path d="M0 242H260V236H0V242Z" fill="#17191D" mask="url(#path-2-inside-1_716_81)"/>
<path d="M76 290V287H73V284H70V275H73V272H76V269H88V272H91V275H85V272H79V275H76V284H79V287H85V284H91V287H88V290H76ZM94 290V269H112V272H115V278H112V281H115V287H112V290H94ZM100 278H109V272H100V278ZM100 287H109V281H100V287ZM118 290V275H121V272H124V269H133V272H136V275H139V290H133V284H124V290H118ZM124 281H133V275H130V272H127V275H124V281ZM145 272V269H160V272H145ZM142 290V275H148V284H151V281H154V278H157V275H163V290H157V284H154V287H151V290H142ZM166 290V269H187V290H181V272H172V290H166ZM79 314V311H73V308H70V299H73V296H79V293H82V296H88V299H91V308H88V311H82V314H79ZM76 308H79V299H76V308ZM82 308H85V299H82V308ZM94 314V299H97V296H100V293H109V296H112V299H115V314H109V308H100V314H94ZM100 305H109V299H106V296H103V299H100V305ZM127 299H130V302H133V305H136V311H139V314H133V311H130V305H124V314H118V293H124V302H127V299ZM139 293V296H136V299H130V296H133V293H139ZM151 314V296H145V293H163V296H157V314H151ZM166 314V293H172V299H178V314H166ZM181 314V293H187V314H181ZM172 311H175V302H172V311Z" fill="#17191D"/>
<path d="M64.4174 179.01L70.9713 181.395L71.9382 175.912L62.4107 170.411L61.5327 172.823C60.621 175.328 61.9125 178.098 64.4174 179.01Z" fill="#17191D"/>
<path d="M62.4107 170.411L71.9382 175.912L82.7725 114.467L62.4107 170.411Z" fill="#17191D"/>
<path d="M54.4131 160.22C53.0802 162.529 53.8712 165.481 56.1798 166.814L62.4107 170.411L82.7725 114.467L83.6273 109.62L54.4131 160.22Z" fill="#17191D"/>
<path d="M131.42 210.253C133.728 211.586 136.68 210.795 138.013 208.487L139.297 206.264L111.625 196.192L105.059 195.034L131.42 210.253Z" fill="#17191D"/>
<path d="M111.625 196.192L139.297 206.264L142.018 201.551L111.625 196.192Z" fill="#17191D"/>
<path d="M146.058 208.724C148.563 209.636 151.332 208.344 152.244 205.84L153.094 203.504L142.018 201.551L139.297 206.264L146.058 208.724Z" fill="#17191D"/>
<path d="M197.589 81.2559L187.662 75.5243L176.373 139.547L197.589 81.2559Z" fill="#17191D"/>
<path d="M205.586 91.4466C206.919 89.138 206.128 86.1861 203.82 84.8532L197.589 81.2559L176.373 139.547L175.738 143.145L205.586 91.4466Z" fill="#17191D"/>
<path d="M195.582 72.6571L188.614 70.121L187.662 75.5243L197.589 81.2559L198.467 78.8435C199.379 76.3386 198.087 73.5688 195.582 72.6571Z" fill="#17191D"/>
<path d="M117.896 50.2642L149.245 55.7919L120.703 45.4032L117.896 50.2642Z" fill="#17191D"/>
<path d="M113.942 42.9425C111.437 42.0307 108.667 43.3223 107.755 45.8272L106.849 48.3163L117.896 50.2642L120.703 45.4032L113.942 42.9425Z" fill="#17191D"/>
<path d="M128.58 41.4133C126.271 40.0805 123.319 40.8715 121.986 43.18L120.703 45.4032L149.245 55.7919L155.348 56.8679L128.58 41.4133Z" fill="#17191D"/>
<path d="M117.896 50.2642L106.849 48.3163M117.896 50.2642L149.245 55.7919M117.896 50.2642L120.703 45.4032M106.849 48.3163L99.5643 47.0318C96.9392 46.5689 94.4358 48.3218 93.9729 50.947L83.6273 109.62M106.849 48.3163L107.755 45.8272C108.667 43.3223 111.437 42.0307 113.942 42.9425L120.703 45.4032M62.4107 170.411L61.5327 172.823C60.621 175.328 61.9125 178.098 64.4174 179.01L70.9713 181.395M62.4107 170.411L56.1798 166.814C53.8712 165.481 53.0802 162.529 54.4131 160.22L83.6273 109.62M62.4107 170.411L71.9382 175.912M62.4107 170.411L82.7725 114.467M71.9382 175.912L82.7725 114.467M71.9382 175.912L70.9713 181.395M142.018 201.551L153.094 203.504M142.018 201.551L111.625 196.192M142.018 201.551L139.297 206.264M153.094 203.504L159.98 204.718C162.605 205.181 165.109 203.428 165.572 200.803L175.738 143.145M153.094 203.504L152.244 205.84C151.332 208.344 148.563 209.636 146.058 208.724L139.297 206.264M187.662 75.5243L197.589 81.2559M187.662 75.5243L176.373 139.547M187.662 75.5243L188.614 70.121M197.589 81.2559L203.82 84.8532C206.128 86.1861 206.919 89.138 205.586 91.4466L175.738 143.145M197.589 81.2559L198.467 78.8435C199.379 76.3386 198.087 73.5688 195.582 72.6571L188.614 70.121M197.589 81.2559L176.373 139.547M83.6273 109.62L82.7725 114.467M176.373 139.547L175.738 143.145M70.9713 181.395L70.5049 184.04C70.0421 186.665 71.7949 189.169 74.4201 189.632L105.059 195.034M139.297 206.264L138.013 208.487C136.68 210.795 133.728 211.586 131.42 210.253L105.059 195.034M139.297 206.264L111.625 196.192M111.625 196.192L105.059 195.034M188.614 70.121L189.039 67.7098C189.502 65.0846 187.749 62.5812 185.124 62.1183L155.348 56.8679M149.245 55.7919L120.703 45.4032M149.245 55.7919L155.348 56.8679M120.703 45.4032L121.986 43.18C123.319 40.8715 126.271 40.0805 128.58 41.4133L155.348 56.8679" stroke="#17191D" stroke-width="3"/>
<path d="M93.2915 176.951L84 163.682L97.2696 154.39L98.8666 156.671L87.8525 164.361L95.5677 175.379L93.2915 176.951ZM89.472 169.164L87.1907 165.906L109.626 169.862L109.137 172.631L89.472 169.164ZM87.759 162.683L91.0171 160.401L110.682 163.869L110.194 166.639L87.759 162.683Z" fill="#17191D"/>
<path d="M163.038 97.561L161.437 95.3055L172.455 87.5903L164.736 76.597L167.016 75L176.308 88.2696L163.038 97.561ZM149.625 88.0822L150.114 85.3125L172.549 89.2684L169.291 91.5498L149.625 88.0822ZM150.682 82.0895L151.17 79.3197L170.836 82.7872L173.117 86.0454L150.682 82.0895Z" fill="#17191D"/>
</svg>
