<svg width="260" height="347" viewBox="0 0 260 347" fill="none" xmlns="http://www.w3.org/2000/svg">
<g clip-path="url(#clip0_435_17)">
<rect width="260" height="346.66" fill="#FEF14B"/>
<mask id="path-1-inside-1_435_17" fill="white">
<path d="M0 239H260V347H0V239Z"/>
</mask>
<path d="M0 239H260V347H0V239Z" fill="#FEF14B"/>
<path d="M0 242H260V236H0V242Z" fill="#252525" mask="url(#path-1-inside-1_435_17)"/>
<path d="M76 290V287H73V284H70V275H73V272H76V269H88V272H91V275H85V272H79V275H76V284H79V287H85V284H91V287H88V290H76ZM94 290V269H112V272H115V278H112V281H115V287H112V290H94ZM100 278H109V272H100V278ZM100 287H109V281H100V287ZM118 290V275H121V272H124V269H133V272H136V275H139V290H133V284H124V290H118ZM124 281H133V275H130V272H127V275H124V281ZM145 272V269H160V272H145ZM142 290V275H148V284H151V281H154V278H157V275H163V290H157V284H154V287H151V290H142ZM166 290V269H187V290H181V272H172V290H166ZM79 314V311H73V308H70V299H73V296H79V293H82V296H88V299H91V308H88V311H82V314H79ZM76 308H79V299H76V308ZM82 308H85V299H82V308ZM94 314V299H97V296H100V293H109V296H112V299H115V314H109V308H100V314H94ZM100 305H109V299H106V296H103V299H100V305ZM127 299H130V302H133V305H136V311H139V314H133V311H130V305H124V314H118V293H124V302H127V299ZM139 293V296H136V299H130V296H133V293H139ZM151 314V296H145V293H163V296H157V314H151ZM166 314V293H172V299H178V314H166ZM181 314V293H187V314H181ZM172 311H175V302H172V311Z" fill="#252525"/>
<rect x="123.517" y="35.7033" width="101.36" height="149.626" rx="7.23999" transform="rotate(30 123.517 35.7033)" fill="#252525" stroke="#252525" stroke-width="4.82666"/>
<rect x="107.964" y="38.1984" width="101.36" height="149.626" rx="7.23999" transform="rotate(20 107.964 38.1984)" fill="#252525" stroke="#252525" stroke-width="4.82666"/>
<rect x="92.8534" y="43.3979" width="101.36" height="149.626" rx="7.23999" transform="rotate(10 92.8534 43.3979)" fill="#FEF14B" stroke="#252525" stroke-width="4.82666"/>
<path d="M92.3366 178.296L83.0451 165.026L96.3147 155.735L97.9117 158.015L86.8976 165.706L94.6129 176.724L92.3366 178.296ZM88.5172 170.509L86.2358 167.25L108.671 171.206L108.183 173.976L88.5172 170.509ZM86.8041 164.027L90.0623 161.746L109.728 165.214L109.239 167.983L86.8041 164.027Z" fill="#252525"/>
<path d="M162.083 98.9057L160.482 96.6501L171.501 88.9349L163.781 77.9416L166.062 76.3446L175.353 89.6142L162.083 98.9057ZM148.671 89.4269L149.159 86.6571L171.594 90.613L168.336 92.8944L148.671 89.4269ZM149.727 83.4341L150.216 80.6643L169.881 84.1318L172.162 87.39L149.727 83.4341Z" fill="#252525"/>
</g>
<defs>
<clipPath id="clip0_435_17">
<rect width="260" height="346.66" fill="white"/>
</clipPath>
</defs>
</svg>
