<svg width="245" height="319" viewBox="0 0 245 319" fill="none" xmlns="http://www.w3.org/2000/svg">
<path d="M170.802 84.9882V53.25H42.5V181.512H74.2382V213.25H202.5V84.9882H170.802ZM170.802 84.9882C170.802 138.308 127.598 181.512 74.2778 181.512C74.2382 128.231 117.481 84.9882 170.802 84.9882Z" fill="black"/>
<rect x="15" y="251.5" width="215" height="4" fill="black"/>
<path d="M50.0273 274.148C49.3393 274.148 48.7233 274.284 48.1793 274.556C47.6513 274.828 47.2033 275.22 46.8353 275.732C46.4673 276.228 46.1873 276.836 45.9953 277.556C45.8193 278.276 45.7313 279.084 45.7313 279.98C45.7313 281.196 45.8753 282.236 46.1633 283.1C46.4673 283.948 46.9393 284.596 47.5793 285.044C48.2193 285.492 49.0353 285.716 50.0273 285.716C50.7313 285.716 51.4273 285.636 52.1153 285.476C52.8193 285.316 53.5793 285.092 54.3953 284.804V287.852C53.6433 288.156 52.8993 288.38 52.1633 288.524C51.4273 288.668 50.6033 288.74 49.6913 288.74C47.9313 288.74 46.4753 288.38 45.3233 287.66C44.1873 286.924 43.3473 285.9 42.8033 284.588C42.2593 283.26 41.9873 281.716 41.9873 279.956C41.9873 278.66 42.1633 277.476 42.5153 276.404C42.8673 275.316 43.3793 274.38 44.0513 273.596C44.7393 272.812 45.5793 272.204 46.5713 271.772C47.5793 271.34 48.7313 271.124 50.0273 271.124C50.8753 271.124 51.7233 271.236 52.5713 271.46C53.4353 271.668 54.2593 271.956 55.0433 272.324L53.8673 275.276C53.2273 274.972 52.5793 274.708 51.9233 274.484C51.2833 274.26 50.6513 274.148 50.0273 274.148ZM62.1646 271.364C63.6846 271.364 64.9566 271.508 65.9806 271.796C67.0206 272.068 67.7966 272.524 68.3086 273.164C68.8366 273.788 69.1006 274.636 69.1006 275.708C69.1006 276.348 68.9966 276.932 68.7886 277.46C68.5806 277.988 68.2766 278.42 67.8766 278.756C67.4926 279.092 67.0206 279.308 66.4606 279.404V279.524C67.0366 279.636 67.5566 279.836 68.0206 280.124C68.4846 280.412 68.8526 280.828 69.1246 281.372C69.3966 281.916 69.5326 282.636 69.5326 283.532C69.5326 284.572 69.2766 285.468 68.7646 286.22C68.2686 286.956 67.5486 287.524 66.6046 287.924C65.6606 288.308 64.5406 288.5 63.2446 288.5H56.8366V271.364H62.1646ZM62.5726 278.156C63.6286 278.156 64.3566 277.988 64.7566 277.652C65.1726 277.316 65.3806 276.828 65.3806 276.188C65.3806 275.532 65.1406 275.06 64.6606 274.772C64.1806 274.484 63.4206 274.34 62.3806 274.34H60.4606V278.156H62.5726ZM60.4606 281.036V285.5H62.8366C63.9246 285.5 64.6846 285.292 65.1166 284.876C65.5486 284.444 65.7646 283.876 65.7646 283.172C65.7646 282.74 65.6686 282.364 65.4766 282.044C65.3006 281.724 64.9886 281.476 64.5406 281.3C64.0926 281.124 63.4846 281.036 62.7166 281.036H60.4606ZM82.2496 288.5L81.0016 284.42H74.7616L73.5136 288.5H69.6016L75.6496 271.292H80.0896L86.1616 288.5H82.2496ZM78.8896 277.388C78.8096 277.116 78.7056 276.772 78.5776 276.356C78.4496 275.94 78.3216 275.516 78.1936 275.084C78.0656 274.652 77.9616 274.276 77.8816 273.956C77.8016 274.276 77.6896 274.676 77.5456 275.156C77.4176 275.62 77.2896 276.068 77.1616 276.5C77.0496 276.916 76.9616 277.212 76.8976 277.388L75.6736 281.372H80.1376L78.8896 277.388ZM100.932 265.724C100.852 266.556 100.62 267.292 100.236 267.932C99.8519 268.556 99.2519 269.044 98.4359 269.396C97.6199 269.748 96.5239 269.924 95.1479 269.924C93.7399 269.924 92.6359 269.756 91.8359 269.42C91.0519 269.068 90.4919 268.58 90.1559 267.956C89.8199 267.332 89.6199 266.588 89.5559 265.724H92.7479C92.8279 266.604 93.0519 267.188 93.4199 267.476C93.7879 267.764 94.3879 267.908 95.2199 267.908C95.9079 267.908 96.4679 267.756 96.8999 267.452C97.3479 267.132 97.6119 266.556 97.6919 265.724H100.932ZM87.1319 271.364H90.3959V279.644C90.3959 280.044 90.3879 280.492 90.3719 280.988C90.3559 281.484 90.3399 281.972 90.3239 282.452C90.3079 282.916 90.2919 283.324 90.2759 283.676C90.2599 284.012 90.2439 284.244 90.2279 284.372H90.2999L98.2199 271.364H102.564V288.5H99.3239V280.268C99.3239 279.836 99.3319 279.364 99.3479 278.852C99.3639 278.324 99.3799 277.82 99.3959 277.34C99.4279 276.86 99.4519 276.444 99.4679 276.092C99.4999 275.724 99.5239 275.484 99.5399 275.372H99.4439L91.4999 288.5H87.1319V271.364ZM105.69 288.5V271.364H119.25V288.5H115.626V274.388H109.314V288.5H105.69ZM132.165 271.124V273.236C134.037 273.284 135.525 273.612 136.629 274.22C137.749 274.812 138.549 275.58 139.029 276.524C139.525 277.468 139.773 278.5 139.773 279.62C139.773 280.34 139.645 281.076 139.389 281.828C139.149 282.58 138.733 283.276 138.141 283.916C137.565 284.54 136.789 285.052 135.813 285.452C134.837 285.852 133.621 286.068 132.165 286.1V288.74H128.901V286.1C127.429 286.068 126.197 285.852 125.205 285.452C124.229 285.052 123.453 284.532 122.877 283.892C122.301 283.252 121.893 282.564 121.653 281.828C121.413 281.076 121.293 280.34 121.293 279.62C121.293 278.788 121.429 277.996 121.701 277.244C121.973 276.492 122.405 275.82 122.997 275.228C123.589 274.636 124.373 274.164 125.349 273.812C126.325 273.46 127.509 273.268 128.901 273.236V271.124H132.165ZM128.901 276.068C127.861 276.116 127.029 276.3 126.405 276.62C125.797 276.924 125.357 277.332 125.085 277.844C124.829 278.356 124.701 278.94 124.701 279.596C124.701 280.316 124.845 280.948 125.133 281.492C125.437 282.02 125.893 282.444 126.501 282.764C127.125 283.068 127.925 283.244 128.901 283.292V276.068ZM132.165 283.292C133.141 283.244 133.933 283.068 134.541 282.764C135.165 282.444 135.621 282.02 135.909 281.492C136.213 280.948 136.365 280.316 136.365 279.596C136.365 278.94 136.229 278.356 135.957 277.844C135.701 277.332 135.261 276.924 134.637 276.62C134.029 276.3 133.205 276.116 132.165 276.068V283.292ZM152.309 288.5L151.061 284.42H144.821L143.573 288.5H139.661L145.709 271.292H150.149L156.221 288.5H152.309ZM148.949 277.388C148.869 277.116 148.765 276.772 148.637 276.356C148.509 275.94 148.381 275.516 148.253 275.084C148.125 274.652 148.021 274.276 147.941 273.956C147.861 274.276 147.749 274.676 147.605 275.156C147.477 275.62 147.349 276.068 147.221 276.5C147.109 276.916 147.021 277.212 146.957 277.388L145.733 281.372H150.197L148.949 277.388ZM171.159 288.5H167.031L160.815 279.812V288.5H157.191V271.364H160.815V279.668L166.959 271.364H170.823L164.583 279.596L171.159 288.5ZM178.716 288.5H175.092V274.388H170.436V271.364H183.372V274.388H178.716V288.5ZM184.815 288.5V271.364H188.439V277.94H189.615C191.199 277.94 192.503 278.164 193.527 278.612C194.551 279.06 195.303 279.676 195.783 280.46C196.279 281.244 196.527 282.14 196.527 283.148C196.527 284.268 196.279 285.228 195.783 286.028C195.287 286.828 194.519 287.444 193.479 287.876C192.455 288.292 191.127 288.5 189.495 288.5H184.815ZM189.399 285.524C190.471 285.524 191.311 285.348 191.919 284.996C192.543 284.644 192.855 284.028 192.855 283.148C192.855 282.54 192.711 282.076 192.423 281.756C192.151 281.436 191.743 281.22 191.199 281.108C190.655 280.98 189.999 280.916 189.231 280.916H188.439V285.524H189.399ZM198.615 288.5V271.364H202.239V288.5H198.615Z" fill="black"/>
</svg>
