<svg width="245" height="319" viewBox="0 0 245 319" fill="none" xmlns="http://www.w3.org/2000/svg">
<path d="M202.5 83.3473C185.878 83.3473 172.403 69.8725 172.403 53.25H162.5H152.597C152.597 69.8725 139.122 83.3473 122.5 83.3473C105.878 83.3473 92.4027 69.8725 92.4027 53.25H82.5H72.5973C72.5973 69.8725 59.1225 83.3473 42.5 83.3473V93.25V103.153C59.1225 103.153 72.5973 116.628 72.5973 133.25C72.5973 149.872 59.1225 163.347 42.5 163.347V173.25V183.153C59.1225 183.153 72.5973 196.628 72.5973 213.25H82.5H92.4027C92.4027 196.628 105.878 183.153 122.5 183.153C139.122 183.153 152.597 196.628 152.597 213.25H162.5H172.403C172.403 196.628 185.878 183.153 202.5 183.153V173.25V163.347C185.878 163.347 172.403 149.872 172.403 133.25C172.403 116.628 185.878 103.153 202.5 103.153V93.25V83.3473ZM152.597 133.25C152.597 149.872 139.122 163.347 122.5 163.347C105.878 163.347 92.4027 149.872 92.4027 133.25C92.4027 116.628 105.878 103.153 122.5 103.153C139.122 103.153 152.597 116.628 152.597 133.25Z" fill="black"/>
<rect x="15" y="251.5" width="215" height="4" fill="black"/>
<path d="M28.5709 287.5H24.7869L19.0889 279.536V287.5H15.7669V271.792H19.0889V279.404L24.7209 271.792H28.2629L22.5429 279.338L28.5709 287.5ZM34.4642 271.792C36.4882 271.792 37.9622 272.232 38.8862 273.112C39.8248 273.977 40.2942 275.173 40.2942 276.698C40.2942 277.387 40.1915 278.047 39.9862 278.678C39.7808 279.294 39.4362 279.851 38.9522 280.35C38.4828 280.834 37.8595 281.215 37.0822 281.494C36.3048 281.773 35.3442 281.912 34.2002 281.912H32.7702V287.5H29.4482V271.792H34.4642ZM34.2882 274.52H32.7702V279.184H33.8702C34.5008 279.184 35.0435 279.103 35.4982 278.942C35.9528 278.781 36.3048 278.524 36.5542 278.172C36.8035 277.82 36.9282 277.365 36.9282 276.808C36.9282 276.031 36.7155 275.459 36.2902 275.092C35.8648 274.711 35.1975 274.52 34.2882 274.52ZM51.2046 287.5H42.1626V271.792H51.2046V274.52H45.4846V277.974H50.8086V280.702H45.4846V284.75H51.2046V287.5ZM60.0392 274.344C59.4085 274.344 58.8438 274.469 58.3452 274.718C57.8612 274.967 57.4505 275.327 57.1132 275.796C56.7758 276.251 56.5192 276.808 56.3432 277.468C56.1818 278.128 56.1012 278.869 56.1012 279.69C56.1012 280.805 56.2332 281.758 56.4972 282.55C56.7758 283.327 57.2085 283.921 57.7952 284.332C58.3818 284.743 59.1298 284.948 60.0392 284.948C60.6845 284.948 61.3225 284.875 61.9532 284.728C62.5985 284.581 63.2952 284.376 64.0432 284.112V286.906C63.3538 287.185 62.6718 287.39 61.9972 287.522C61.3225 287.654 60.5672 287.72 59.7312 287.72C58.1178 287.72 56.7832 287.39 55.7272 286.73C54.6858 286.055 53.9158 285.117 53.4172 283.914C52.9185 282.697 52.6692 281.281 52.6692 279.668C52.6692 278.48 52.8305 277.395 53.1532 276.412C53.4758 275.415 53.9452 274.557 54.5612 273.838C55.1918 273.119 55.9618 272.562 56.8712 272.166C57.7952 271.77 58.8512 271.572 60.0392 271.572C60.8165 271.572 61.5938 271.675 62.3712 271.88C63.1632 272.071 63.9185 272.335 64.6372 272.672L63.5592 275.378C62.9725 275.099 62.3785 274.857 61.7772 274.652C61.1905 274.447 60.6112 274.344 60.0392 274.344ZM72.331 287.5H69.009V274.564H64.741V271.792H76.599V274.564H72.331V287.5ZM77.9212 271.792H80.9132V279.382C80.9132 279.749 80.9059 280.159 80.8912 280.614C80.8765 281.069 80.8619 281.516 80.8472 281.956C80.8325 282.381 80.8179 282.755 80.8032 283.078C80.7885 283.386 80.7739 283.599 80.7592 283.716H80.8252L88.0852 271.792H92.0672V287.5H89.0972V279.954C89.0972 279.558 89.1045 279.125 89.1192 278.656C89.1339 278.172 89.1485 277.71 89.1632 277.27C89.1925 276.83 89.2145 276.449 89.2292 276.126C89.2585 275.789 89.2805 275.569 89.2952 275.466H89.2072L81.9252 287.5H77.9212V271.792ZM107.737 287.5H103.953L98.2545 279.536V287.5H94.9325V271.792H98.2545V279.404L103.887 271.792H107.429L101.709 279.338L107.737 287.5ZM108.614 271.792H111.606V279.382C111.606 279.749 111.598 280.159 111.584 280.614C111.569 281.069 111.554 281.516 111.54 281.956C111.525 282.381 111.51 282.755 111.496 283.078C111.481 283.386 111.466 283.599 111.452 283.716H111.518L118.778 271.792H122.76V287.5H119.79V279.954C119.79 279.558 119.797 279.125 119.812 278.656C119.826 278.172 119.841 277.71 119.856 277.27C119.885 276.83 119.907 276.449 119.922 276.126C119.951 275.789 119.973 275.569 119.988 275.466H119.9L112.618 287.5H108.614V271.792ZM125.779 282.704V279.558H134.381V282.704H125.779ZM150.264 287.5H146.942V280.724H140.716V287.5H137.394V271.792H140.716V277.952H146.942V271.792H150.264V287.5ZM167.373 279.624C167.373 280.841 167.219 281.949 166.911 282.946C166.617 283.929 166.163 284.779 165.547 285.498C164.945 286.217 164.168 286.767 163.215 287.148C162.276 287.529 161.169 287.72 159.893 287.72C158.617 287.72 157.502 287.529 156.549 287.148C155.61 286.752 154.833 286.202 154.217 285.498C153.615 284.779 153.161 283.921 152.853 282.924C152.559 281.927 152.413 280.819 152.413 279.602C152.413 277.974 152.677 276.559 153.205 275.356C153.747 274.153 154.569 273.222 155.669 272.562C156.783 271.887 158.199 271.55 159.915 271.55C161.616 271.55 163.017 271.887 164.117 272.562C165.217 273.222 166.031 274.161 166.559 275.378C167.101 276.581 167.373 277.996 167.373 279.624ZM155.911 279.624C155.911 280.724 156.05 281.67 156.329 282.462C156.607 283.254 157.04 283.863 157.627 284.288C158.213 284.713 158.969 284.926 159.893 284.926C160.846 284.926 161.609 284.713 162.181 284.288C162.767 283.863 163.193 283.254 163.457 282.462C163.735 281.67 163.875 280.724 163.875 279.624C163.875 277.967 163.567 276.669 162.951 275.73C162.335 274.791 161.323 274.322 159.915 274.322C158.976 274.322 158.213 274.535 157.627 274.96C157.04 275.385 156.607 275.994 156.329 276.786C156.05 277.578 155.911 278.524 155.911 279.624ZM181.527 287.5H178.205V274.564H174.355C174.267 275.239 174.171 275.972 174.069 276.764C173.981 277.556 173.878 278.363 173.761 279.184C173.658 279.991 173.548 280.761 173.431 281.494C173.313 282.213 173.196 282.851 173.079 283.408C172.888 284.317 172.631 285.095 172.309 285.74C172.001 286.385 171.568 286.877 171.011 287.214C170.468 287.551 169.757 287.72 168.877 287.72C168.583 287.72 168.305 287.698 168.041 287.654C167.777 287.61 167.527 287.551 167.293 287.478V284.75C167.483 284.809 167.667 284.86 167.843 284.904C168.033 284.948 168.239 284.97 168.459 284.97C168.752 284.97 168.994 284.875 169.185 284.684C169.375 284.493 169.544 284.171 169.691 283.716C169.837 283.247 169.984 282.601 170.131 281.78C170.204 281.428 170.292 280.929 170.395 280.284C170.497 279.624 170.615 278.854 170.747 277.974C170.893 277.079 171.04 276.111 171.187 275.07C171.333 274.014 171.473 272.921 171.605 271.792H181.527V287.5ZM184.389 271.792H187.381V279.382C187.381 279.749 187.374 280.159 187.359 280.614C187.345 281.069 187.33 281.516 187.315 281.956C187.301 282.381 187.286 282.755 187.271 283.078C187.257 283.386 187.242 283.599 187.227 283.716H187.293L194.553 271.792H198.535V287.5H195.565V279.954C195.565 279.558 195.573 279.125 195.587 278.656C195.602 278.172 195.617 277.71 195.631 277.27C195.661 276.83 195.683 276.449 195.697 276.126C195.727 275.789 195.749 275.569 195.763 275.466H195.675L188.393 287.5H184.389V271.792ZM214.205 287.5H210.421L204.723 279.536V287.5H201.401V271.792H204.723V279.404L210.355 271.792H213.897L208.177 279.338L214.205 287.5ZM215.082 271.792H218.074V279.382C218.074 279.749 218.066 280.159 218.052 280.614C218.037 281.069 218.022 281.516 218.008 281.956C217.993 282.381 217.978 282.755 217.964 283.078C217.949 283.386 217.934 283.599 217.92 283.716H217.986L225.246 271.792H229.228V287.5H226.258V279.954C226.258 279.558 226.265 279.125 226.28 278.656C226.294 278.172 226.309 277.71 226.324 277.27C226.353 276.83 226.375 276.449 226.39 276.126C226.419 275.789 226.441 275.569 226.456 275.466H226.368L219.086 287.5H215.082V271.792Z" fill="black"/>
</svg>
