<svg width="260" height="347" viewBox="0 0 260 347" fill="none" xmlns="http://www.w3.org/2000/svg">
<g clip-path="url(#clip0_238_6)">
<rect width="260" height="346.66" fill="#26B8B5"/>
<mask id="path-1-inside-1_238_6" fill="white">
<path d="M0 239H260V347H0V239Z"/>
</mask>
<path d="M0 239H260V347H0V239Z" fill="#26B8B5"/>
<path d="M0 242H260V236H0V242Z" fill="#252525" mask="url(#path-1-inside-1_238_6)"/>
<path d="M43 275H46V278H49V281H52V287H55V290H49V287H46V281H40V290H34V269H40V278H43V275ZM55 269V272H52V275H46V272H49V269H55ZM58 290V269H76V272H79V281H76V284H64V290H58ZM64 281H73V272H64V281ZM82 290V269H103V272H88V278H100V281H88V287H103V290H82ZM112 290V287H109V284H106V275H109V272H112V269H124V272H127V275H121V272H115V275H112V284H115V287H121V284H127V287H124V290H112ZM139 290V272H133V269H151V272H145V290H139ZM154 290V269H160V281H163V278H166V275H169V269H175V290H169V281H166V284H163V287H160V290H154ZM187 275H190V278H193V281H196V287H199V290H193V287H190V281H184V290H178V269H184V278H187V275ZM199 269V272H196V275H190V272H193V269H199ZM202 290V269H208V281H211V278H214V275H217V269H223V290H217V281H214V284H211V287H208V290H202ZM49 305V302H67V305H49ZM70 314V293H76V302H85V293H91V314H85V305H76V314H70ZM97 314V311H94V296H97V293H112V296H115V311H112V314H97ZM100 311H109V296H100V311ZM118 314V308H121V305H124V293H139V314H133V296H127V311H124V314H118ZM142 314V293H148V305H151V302H154V299H157V293H163V314H157V305H154V308H151V311H148V314H142ZM175 299H178V302H181V305H184V311H187V314H181V311H178V305H172V314H166V293H172V302H175V299ZM187 293V296H184V299H178V296H181V293H187ZM190 314V293H196V305H199V302H202V299H205V293H211V314H205V305H202V308H199V311H196V314H190Z" fill="#252525"/>
<mask id="mask0_238_6" style="mask-type:alpha" maskUnits="userSpaceOnUse" x="0" y="0" width="260" height="239">
<path d="M0 0H260V239H0V0Z" fill="#26B8B5"/>
</mask>
<g mask="url(#mask0_238_6)">
<g clip-path="url(#clip1_238_6)">
<rect x="47.5533" y="45.5533" width="54.2267" height="54.2267" stroke="#252525" stroke-width="1.10667"/>
<rect x="47.5533" y="156.22" width="54.2267" height="54.2267" stroke="#252525" stroke-width="1.10667"/>
<rect x="158.22" y="45.5533" width="54.2267" height="54.2267" stroke="#252525" stroke-width="1.10667"/>
<rect x="158.22" y="156.22" width="54.2267" height="54.2267" stroke="#252525" stroke-width="1.10667"/>
<rect x="47.5533" y="100.887" width="54.2267" height="54.2267" stroke="#252525" stroke-width="1.10667"/>
<rect x="158.22" y="100.887" width="54.2267" height="54.2267" stroke="#252525" stroke-width="1.10667"/>
<rect x="102.887" y="45.5533" width="54.2267" height="54.2267" stroke="#252525" stroke-width="1.10667"/>
<rect x="102.887" y="156.22" width="54.2267" height="54.2267" stroke="#252525" stroke-width="1.10667"/>
<rect x="102.887" y="100.887" width="54.2267" height="54.2267" stroke="#252525" stroke-width="1.10667"/>
<path d="M207.467 72.6667C207.467 84.8906 197.557 94.8 185.334 94.8C173.11 94.8 163.2 84.8906 163.2 72.6667C163.2 60.4428 173.11 50.5333 185.334 50.5333C197.557 50.5333 207.467 60.4428 207.467 72.6667ZM168.734 72.6667C168.734 81.8346 176.166 89.2667 185.334 89.2667C194.501 89.2667 201.934 81.8346 201.934 72.6667C201.934 63.4987 194.501 56.0667 185.334 56.0667C176.166 56.0667 168.734 63.4987 168.734 72.6667Z" fill="#252525"/>
<path d="M96.2466 72.6667C96.2466 84.8906 86.3372 94.8 74.1133 94.8C61.8894 94.8 51.98 84.8906 51.98 72.6667C51.98 60.4428 61.8894 50.5333 74.1133 50.5333C86.3372 50.5333 96.2466 60.4428 96.2466 72.6667ZM57.5133 72.6667C57.5133 81.8346 64.9454 89.2667 74.1133 89.2667C83.2812 89.2667 90.7133 81.8346 90.7133 72.6667C90.7133 63.4987 83.2812 56.0667 74.1133 56.0667C64.9454 56.0667 57.5133 63.4987 57.5133 72.6667Z" fill="#252525"/>
<path d="M207.467 182.78C207.467 195.004 197.557 204.913 185.334 204.913C173.11 204.913 163.2 195.004 163.2 182.78C163.2 170.556 173.11 160.647 185.334 160.647C197.557 160.647 207.467 170.556 207.467 182.78ZM168.734 182.78C168.734 191.948 176.166 199.38 185.334 199.38C194.501 199.38 201.934 191.948 201.934 182.78C201.934 173.612 194.501 166.18 185.334 166.18C176.166 166.18 168.734 173.612 168.734 182.78Z" fill="#252525"/>
<rect x="107.313" y="146.005" width="57.5467" height="6.64" rx="3.32" transform="rotate(-45 107.313 146.005)" fill="#252525"/>
<rect x="112.009" y="105.313" width="57.5467" height="6.64" rx="3.32" transform="rotate(45 112.009 105.313)" fill="#252525"/>
<rect x="163.2" y="146.005" width="57.5467" height="6.64" rx="3.32" transform="rotate(-45 163.2 146.005)" fill="#252525"/>
<rect x="167.896" y="105.313" width="57.5467" height="6.64" rx="3.32" transform="rotate(45 167.896 105.313)" fill="#252525"/>
<rect x="51.98" y="201.338" width="57.5467" height="6.64" rx="3.32" transform="rotate(-45 51.98 201.338)" fill="#252525"/>
<rect x="56.6753" y="160.647" width="57.5467" height="6.64" rx="3.32" transform="rotate(45 56.6753 160.647)" fill="#252525"/>
</g>
<rect x="46.4467" y="44.4467" width="167.107" height="167.107" stroke="#252525" stroke-width="1.10667"/>
</g>
</g>
<defs>
<clipPath id="clip0_238_6">
<rect width="260" height="346.66" fill="white"/>
</clipPath>
<clipPath id="clip1_238_6">
<rect x="47" y="45" width="166" height="166" fill="white"/>
</clipPath>
</defs>
</svg>
