<svg width="260" height="347" viewBox="0 0 260 347" fill="none" xmlns="http://www.w3.org/2000/svg">
<g clip-path="url(#clip0_717_102)">
<mask id="path-2-inside-1_717_102" fill="white">
<path d="M0 239H260V347H0V239Z"/>
</mask>
<path d="M0 242H260V236H0V242Z" fill="#1844DC" mask="url(#path-2-inside-1_717_102)"/>
<path d="M43 275H46V278H49V281H52V287H55V290H49V287H46V281H40V290H34V269H40V278H43V275ZM55 269V272H52V275H46V272H49V269H55ZM58 290V269H76V272H79V281H76V284H64V290H58ZM64 281H73V272H64V281ZM82 290V269H103V272H88V278H100V281H88V287H103V290H82ZM112 290V287H109V284H106V275H109V272H112V269H124V272H127V275H121V272H115V275H112V284H115V287H121V284H127V287H124V290H112ZM139 290V272H133V269H151V272H145V290H139ZM154 290V269H160V281H163V278H166V275H169V269H175V290H169V281H166V284H163V287H160V290H154ZM187 275H190V278H193V281H196V287H199V290H193V287H190V281H184V290H178V269H184V278H187V275ZM199 269V272H196V275H190V272H193V269H199ZM202 290V269H208V281H211V278H214V275H217V269H223V290H217V281H214V284H211V287H208V290H202ZM49 305V302H67V305H49ZM70 314V293H76V302H85V293H91V314H85V305H76V314H70ZM97 314V311H94V296H97V293H112V296H115V311H112V314H97ZM100 311H109V296H100V311ZM118 314V308H121V305H124V293H139V314H133V296H127V311H124V314H118ZM142 314V293H148V305H151V302H154V299H157V293H163V314H157V305H154V308H151V311H148V314H142ZM175 299H178V302H181V305H184V311H187V314H181V311H178V305H172V314H166V293H172V302H175V299ZM187 293V296H184V299H178V296H181V293H187ZM190 314V293H196V305H199V302H202V299H205V293H211V314H205V305H202V308H199V311H196V314H190Z" fill="#1844DC"/>
<mask id="mask0_717_102" style="mask-type:alpha" maskUnits="userSpaceOnUse" x="0" y="0" width="260" height="239">
<path d="M0 0H260V239H0V0Z" fill="#26B8B5"/>
</mask>
<g mask="url(#mask0_717_102)">
<rect x="47.5533" y="45.5533" width="54.2267" height="54.2267" stroke="#1844DC" stroke-width="1.10667"/>
<rect x="47.5533" y="156.22" width="54.2267" height="54.2267" stroke="#1844DC" stroke-width="1.10667"/>
<rect x="158.22" y="45.5533" width="54.2267" height="54.2267" stroke="#1844DC" stroke-width="1.10667"/>
<rect x="158.22" y="156.22" width="54.2267" height="54.2267" stroke="#1844DC" stroke-width="1.10667"/>
<rect x="47.5533" y="100.887" width="54.2267" height="54.2267" stroke="#1844DC" stroke-width="1.10667"/>
<rect x="158.22" y="100.887" width="54.2267" height="54.2267" stroke="#1844DC" stroke-width="1.10667"/>
<rect x="102.887" y="45.5533" width="54.2267" height="54.2267" stroke="#1844DC" stroke-width="1.10667"/>
<rect x="102.887" y="156.22" width="54.2267" height="54.2267" stroke="#1844DC" stroke-width="1.10667"/>
<rect x="102.887" y="100.887" width="54.2267" height="54.2267" stroke="#1844DC" stroke-width="1.10667"/>
<path d="M207.467 72.6665C207.467 84.8904 197.557 94.7999 185.334 94.7999C173.11 94.7999 163.2 84.8904 163.2 72.6665C163.2 60.4426 173.11 50.5332 185.334 50.5332C197.557 50.5332 207.467 60.4426 207.467 72.6665ZM168.734 72.6665C168.734 81.8345 176.166 89.2665 185.334 89.2665C194.501 89.2665 201.934 81.8345 201.934 72.6665C201.934 63.4986 194.501 56.0665 185.334 56.0665C176.166 56.0665 168.734 63.4986 168.734 72.6665Z" fill="#1844DC"/>
<path d="M96.2466 72.6665C96.2466 84.8904 86.3372 94.7999 74.1133 94.7999C61.8894 94.7999 51.98 84.8904 51.98 72.6665C51.98 60.4426 61.8894 50.5332 74.1133 50.5332C86.3372 50.5332 96.2466 60.4426 96.2466 72.6665ZM57.5133 72.6665C57.5133 81.8345 64.9454 89.2665 74.1133 89.2665C83.2812 89.2665 90.7133 81.8345 90.7133 72.6665C90.7133 63.4986 83.2812 56.0665 74.1133 56.0665C64.9454 56.0665 57.5133 63.4986 57.5133 72.6665Z" fill="#1844DC"/>
<path d="M207.467 182.78C207.467 195.004 197.557 204.913 185.334 204.913C173.11 204.913 163.2 195.004 163.2 182.78C163.2 170.556 173.11 160.646 185.334 160.646C197.557 160.646 207.467 170.556 207.467 182.78ZM168.734 182.78C168.734 191.948 176.166 199.38 185.334 199.38C194.501 199.38 201.934 191.948 201.934 182.78C201.934 173.612 194.501 166.18 185.334 166.18C176.166 166.18 168.734 173.612 168.734 182.78Z" fill="#1844DC"/>
<path d="M170.243 148.353C168.946 149.649 166.844 149.649 165.548 148.353C164.251 147.056 164.251 144.954 165.548 143.657L181.198 128.007L165.548 112.356C164.251 111.06 164.251 108.957 165.548 107.661C166.844 106.364 168.946 106.364 170.243 107.661L185.893 123.312L201.544 107.661C202.841 106.364 204.943 106.364 206.239 107.661C207.536 108.957 207.536 111.06 206.239 112.356L190.589 128.007L206.239 143.657C207.536 144.954 207.536 147.056 206.239 148.353C204.943 149.649 202.841 149.649 201.544 148.353L185.893 132.702L170.243 148.353Z" fill="#1844DC"/>
<path d="M114.668 148.664C113.371 149.961 111.269 149.961 109.972 148.664C108.676 147.368 108.676 145.265 109.972 143.969L125.623 128.318L109.972 112.668C108.676 111.371 108.676 109.269 109.972 107.972C111.269 106.676 113.371 106.676 114.668 107.972L130.318 123.623L145.969 107.972C147.265 106.676 149.368 106.676 150.664 107.972C151.961 109.269 151.961 111.371 150.664 112.668L135.013 128.318L150.664 143.969C151.961 145.265 151.961 147.368 150.664 148.664C149.368 149.961 147.265 149.961 145.969 148.664L130.318 133.013L114.668 148.664Z" fill="#1844DC"/>
<path d="M59.6676 203.664C58.3711 204.961 56.2689 204.961 54.9724 203.664C53.6759 202.368 53.6759 200.265 54.9724 198.969L70.6231 183.318L54.9724 167.668C53.6759 166.371 53.6759 164.269 54.9724 162.972C56.269 161.676 58.3711 161.676 59.6676 162.972L75.3183 178.623L90.9689 162.972C92.2654 161.676 94.3675 161.676 95.664 162.972C96.9606 164.269 96.9606 166.371 95.664 167.668L80.0134 183.318L95.6641 198.969C96.9606 200.265 96.9606 202.368 95.6641 203.664C94.3675 204.961 92.2654 204.961 90.9689 203.664L75.3183 188.013L59.6676 203.664Z" fill="#1844DC"/>
</g>
</g>
<defs>
<clipPath id="clip0_717_102">
<rect width="260" height="346.66" rx="10" fill="white"/>
</clipPath>
</defs>
</svg>
