<svg width="245" height="319" viewBox="0 0 245 319" fill="none" xmlns="http://www.w3.org/2000/svg">
<path d="M139.391 110.017C246.235 86.029 122.501 -3.8483 122.501 97.7571C122.501 -3.8483 -1.23168 86.029 105.612 110.017C-1.23168 86.029 46.0222 231.472 112.064 129.867C46.0222 231.51 198.943 231.51 132.901 129.867C198.981 231.472 246.235 86.029 139.391 110.017Z" fill="black"/>
<rect x="15" y="251" width="215" height="3" fill="black"/>
<path d="M63.4272 288H59.8032V273.888H55.1472V270.864H68.0832V273.888H63.4272V288ZM74.9976 270.864C77.2056 270.864 78.8136 271.344 79.8216 272.304C80.8456 273.248 81.3576 274.552 81.3576 276.216C81.3576 276.968 81.2456 277.688 81.0216 278.376C80.7976 279.048 80.4216 279.656 79.8936 280.2C79.3816 280.728 78.7016 281.144 77.8536 281.448C77.0056 281.752 75.9576 281.904 74.7096 281.904H73.1496V288H69.5256V270.864H74.9976ZM74.8056 273.84H73.1496V278.928H74.3496C75.0376 278.928 75.6296 278.84 76.1256 278.664C76.6216 278.488 77.0056 278.208 77.2776 277.824C77.5496 277.44 77.6856 276.944 77.6856 276.336C77.6856 275.488 77.4536 274.864 76.9896 274.464C76.5256 274.048 75.7976 273.84 74.8056 273.84ZM92.6886 288L91.4406 283.92H85.2006L83.9526 288H80.0406L86.0886 270.792H90.5286L96.6006 288H92.6886ZM89.3286 276.888C89.2486 276.616 89.1446 276.272 89.0166 275.856C88.8886 275.44 88.7606 275.016 88.6326 274.584C88.5046 274.152 88.4006 273.776 88.3206 273.456C88.2406 273.776 88.1286 274.176 87.9846 274.656C87.8566 275.12 87.7286 275.568 87.6006 276C87.4886 276.416 87.4006 276.712 87.3366 276.888L86.1126 280.872H90.5766L89.3286 276.888ZM102.899 270.864C104.419 270.864 105.691 271.008 106.715 271.296C107.755 271.568 108.531 272.024 109.043 272.664C109.571 273.288 109.835 274.136 109.835 275.208C109.835 275.848 109.731 276.432 109.523 276.96C109.315 277.488 109.011 277.92 108.611 278.256C108.227 278.592 107.755 278.808 107.195 278.904V279.024C107.771 279.136 108.291 279.336 108.755 279.624C109.219 279.912 109.587 280.328 109.859 280.872C110.131 281.416 110.267 282.136 110.267 283.032C110.267 284.072 110.011 284.968 109.499 285.72C109.003 286.456 108.283 287.024 107.339 287.424C106.395 287.808 105.275 288 103.979 288H97.5709V270.864H102.899ZM103.307 277.656C104.363 277.656 105.091 277.488 105.491 277.152C105.907 276.816 106.115 276.328 106.115 275.688C106.115 275.032 105.875 274.56 105.395 274.272C104.915 273.984 104.155 273.84 103.115 273.84H101.195V277.656H103.307ZM101.195 280.536V285H103.571C104.659 285 105.419 284.792 105.851 284.376C106.283 283.944 106.499 283.376 106.499 282.672C106.499 282.24 106.403 281.864 106.211 281.544C106.035 281.224 105.723 280.976 105.275 280.8C104.827 280.624 104.219 280.536 103.451 280.536H101.195ZM128.048 279.408C128.048 280.736 127.88 281.944 127.544 283.032C127.224 284.104 126.728 285.032 126.056 285.816C125.4 286.6 124.552 287.2 123.512 287.616C122.488 288.032 121.28 288.24 119.888 288.24C118.496 288.24 117.28 288.032 116.24 287.616C115.216 287.184 114.368 286.584 113.696 285.816C113.04 285.032 112.544 284.096 112.208 283.008C111.888 281.92 111.728 280.712 111.728 279.384C111.728 277.608 112.016 276.064 112.592 274.752C113.184 273.44 114.08 272.424 115.28 271.704C116.496 270.968 118.04 270.6 119.912 270.6C121.768 270.6 123.296 270.968 124.496 271.704C125.696 272.424 126.584 273.448 127.16 274.776C127.752 276.088 128.048 277.632 128.048 279.408ZM115.544 279.408C115.544 280.608 115.696 281.64 116 282.504C116.304 283.368 116.776 284.032 117.416 284.496C118.056 284.96 118.88 285.192 119.888 285.192C120.928 285.192 121.76 284.96 122.384 284.496C123.024 284.032 123.488 283.368 123.776 282.504C124.08 281.64 124.232 280.608 124.232 279.408C124.232 277.6 123.896 276.184 123.224 275.16C122.552 274.136 121.448 273.624 119.912 273.624C118.888 273.624 118.056 273.856 117.416 274.32C116.776 274.784 116.304 275.448 116 276.312C115.696 277.176 115.544 278.208 115.544 279.408ZM136.271 288H132.647V273.888H127.991V270.864H140.927V273.888H136.271V288ZM147.841 270.864C150.049 270.864 151.657 271.344 152.665 272.304C153.689 273.248 154.201 274.552 154.201 276.216C154.201 276.968 154.089 277.688 153.865 278.376C153.641 279.048 153.265 279.656 152.737 280.2C152.225 280.728 151.545 281.144 150.697 281.448C149.849 281.752 148.801 281.904 147.553 281.904H145.993V288H142.369V270.864H147.841ZM147.649 273.84H145.993V278.928H147.193C147.881 278.928 148.473 278.84 148.969 278.664C149.465 278.488 149.849 278.208 150.121 277.824C150.393 277.44 150.529 276.944 150.529 276.336C150.529 275.488 150.297 274.864 149.833 274.464C149.369 274.048 148.641 273.84 147.649 273.84ZM171.792 279.408C171.792 280.736 171.624 281.944 171.288 283.032C170.968 284.104 170.472 285.032 169.8 285.816C169.144 286.6 168.296 287.2 167.256 287.616C166.232 288.032 165.024 288.24 163.632 288.24C162.24 288.24 161.024 288.032 159.984 287.616C158.96 287.184 158.112 286.584 157.44 285.816C156.784 285.032 156.288 284.096 155.952 283.008C155.632 281.92 155.472 280.712 155.472 279.384C155.472 277.608 155.76 276.064 156.336 274.752C156.928 273.44 157.824 272.424 159.024 271.704C160.24 270.968 161.784 270.6 163.656 270.6C165.512 270.6 167.04 270.968 168.24 271.704C169.44 272.424 170.328 273.448 170.904 274.776C171.496 276.088 171.792 277.632 171.792 279.408ZM159.288 279.408C159.288 280.608 159.44 281.64 159.744 282.504C160.048 283.368 160.52 284.032 161.16 284.496C161.8 284.96 162.624 285.192 163.632 285.192C164.672 285.192 165.504 284.96 166.128 284.496C166.768 284.032 167.232 283.368 167.52 282.504C167.824 281.64 167.976 280.608 167.976 279.408C167.976 277.6 167.64 276.184 166.968 275.16C166.296 274.136 165.192 273.624 163.656 273.624C162.632 273.624 161.8 273.856 161.16 274.32C160.52 274.784 160.048 275.448 159.744 276.312C159.44 277.176 159.288 278.208 159.288 279.408ZM188.181 288H184.557V280.608H177.765V288H174.141V270.864H177.765V277.584H184.557V270.864H188.181V288Z" fill="black"/>
</svg>
