<svg width="512" height="512" viewBox="0 0 512 512" fill="none" xmlns="http://www.w3.org/2000/svg">
<rect x="10" y="10" width="492" height="492" rx="90" fill="#8080FF" stroke="#252525" stroke-width="20"/>
<path d="M34 255.5L255.5 34.0004L477 255.5L334.048 397.628L279.904 343.484L367.131 256.252L255.084 144.204L145.292 253.996L311.898 420.602L255.5 477L34 255.5Z" fill="#F2F2F2"/>
<path fill-rule="evenodd" clip-rule="evenodd" d="M260.352 323.932L189.664 253.244L265.888 177.021L278.672 189.805L284.676 195.809L336.575 247.709L260.352 323.932ZM260.352 259.463L268.641 251.174L253.523 236.056L245.234 244.345L260.352 259.463ZM286.961 230.967L278.672 239.257L263.554 224.139L271.843 215.849L286.961 230.967Z" fill="#F2F2F2"/>
<path fill-rule="evenodd" clip-rule="evenodd" d="M145.292 253.996L311.898 420.602L334.048 397.628L279.904 343.484L367.131 256.252L255.084 144.204L145.292 253.996ZM260.352 323.932L189.664 253.244L265.888 177.021L278.672 189.805L284.676 195.809L336.575 247.709L260.352 323.932Z" fill="#252525"/>
<path d="M260.352 259.463L268.641 251.174L253.523 236.056L245.234 244.345L260.352 259.463Z" fill="#252525"/>
<path d="M278.672 239.257L286.961 230.967L271.843 215.849L263.554 224.139L278.672 239.257Z" fill="#252525"/>
</svg>
